<mxfile host="65bd71144e">
    <diagram id="ZSMtSVo6U7M9Tc2V_tuz" name="Page-1">
        <mxGraphModel dx="1763" dy="1643" grid="1" gridSize="10" guides="1" tooltips="1" connect="1" arrows="1" fold="1" page="1" pageScale="1" pageWidth="827" pageHeight="1169" math="0" shadow="0">
            <root>
                <mxCell id="0"/>
                <mxCell id="1" parent="0"/>
                <mxCell id="40" value="" style="rounded=1;whiteSpace=wrap;html=1;fontSize=13;arcSize=7;fillColor=none;" parent="1" vertex="1">
                    <mxGeometry x="30" y="-100" width="540" height="310" as="geometry"/>
                </mxCell>
                <mxCell id="13" value="" style="shape=image;verticalLabelPosition=bottom;labelBackgroundColor=default;verticalAlign=top;aspect=fixed;imageAspect=0;image=data:image/png,iVBORw0KGgoAAAANSUhEUgAAAVoAAAFoCAYAAAAW4zPQAAAMP2lDQ1BJQ0MgUHJvZmlsZQAASImVVwdYU8kWnluSkJCEEkBASuhNEKkBpITQQu8INkISIJQYA0HFji4quHaxgA1dFVGwAmJH7CyKvS8WVJR1sWBX3qSArvvK9+b75s5//znznzPnzr1zBwCN4zyJJA/VBCBfXCiNDw1kjkpNY5KeAgKgADqwAVQev0DCjo2NBLAMtH8v764DRN5ecZRr/bP/vxYtgbCADwASC3GGoICfD/F+APAqvkRaCABRzltMKpTIMaxARwoDhHi+HGcpcZUcZyjxboVNYjwH4lYA1Kg8njQLAPolyDOL+FlQg94LsbNYIBIDoMGE2C8/f4IA4nSIbaGNBGK5PivjB52sv2lmDGryeFmDWDkXRVELEhVI8nhT/s90/O+Snycb8GENKzVbGhYvnzPM283cCRFyTIW4R5wRHQOxNsQfRAKFPcQoJVsWlqS0R434BRyYM6AHsbOAFxQBsRHEIeK86EgVn5EpCuFCDFcIOllUyE2EWB/i+cKC4ASVzUbphHiVL7QhU8phq/izPKnCr9zXfVluElul/zpbyFXpY/Ti7MQUiCkQWxaJkqMhpkPsVJCbEKGyGVmczYkesJHK4uXxW0IcLxSHBir1saJMaUi8yr4sv2BgvtjGbBE3WoX3FmYnhinzg7XyeYr44VywS0IxO2lAR1gwKnJgLgJhULBy7tgzoTgpQaXzQVIYGK8ci1MkebEqe9xcmBcq580hdisoSlCNxZML4YJU6uOZksLYRGWceHEOLzxWGQ++BEQCDggCTCCDNQNMADlA1N7T2APvlD0hgAekIAsIgaOKGRiRougRw2sCKAZ/QiQEBYPjAhW9QlAE+a+DrPLqCDIVvUWKEbngCcT5IALkwXuZYpR40FsyeAwZ0T+882Dlw3jzYJX3/3t+gP3OsCETqWJkAx6ZGgOWxGBiEDGMGEK0ww1xP9wHj4TXAFhdcBbuNTCP7/aEJ4QOwkPCNUIn4dZ4UYn0pyijQCfUD1HlIuPHXODWUNMdD8R9oTpUxvVwQ+CIu0E/bNwfenaHLEcVtzwrzJ+0/zaDH56Gyo7sTEbJQ8gBZNufR9Lt6e6DKvJc/5gfZawZg/nmDPb87J/zQ/YFsI342RKbj+3DzmAnsHPYYawRMLFjWBPWhh2R48HV9Vixuga8xSviyYU6on/4G3iy8kwWONc6dzt/UfYVCifLv9GAM0EyRSrKyi5ksuGOIGRyxXynYUwXZxdXAOT7i/Lz9SZOsW8gem3fuTl/AOB7rL+//9B3LvwYAHs84et/8Dtny4JbhzoAZw/yZdIiJYfLL/J9SwO+aQbABFgAWzgfF+ABfEAACAbhIAYkglQwDkafDde5FEwC08BsUArKwRKwEqwFG8BmsB3sAntBIzgMToDT4AK4BK6BO3D1dIEXoBe8A58RBCEhNISBGCCmiBXigLggLMQPCUYikXgkFUlHshAxIkOmIXOQcmQZshbZhNQge5CDyAnkHNKB3EIeIN3Ia+QTiqFUVAc1Rq3R4SgLZaMRaCI6Fs1CJ6LF6Fx0EboarUZ3og3oCfQCeg3tRF+gfRjA1DE9zAxzxFgYB4vB0rBMTIrNwMqwCqwaq8Oa4XO+gnViPdhHnIgzcCbuCFdwGJ6E8/GJ+Ax8Ib4W34434K34FfwB3ot/I9AIRgQHgjeBSxhFyCJMIpQSKghbCQcIp+C71EV4RyQS9Yg2RE/4LqYSc4hTiQuJ64j1xOPEDuIjYh+JRDIgOZB8STEkHqmQVEpaQ9pJOka6TOoifVBTVzNVc1ELUUtTE6uVqFWo7VA7qnZZ7anaZ7Im2YrsTY4hC8hTyIvJW8jN5IvkLvJnihbFhuJLSaTkUGZTVlPqKKcodylv1NXVzdW91OPUReqz1Fer71Y/q/5A/SNVm2pP5VDHUGXURdRt1OPUW9Q3NBrNmhZAS6MV0hbRamgnafdpH+gMuhOdSxfQZ9Ir6Q30y/SXGmQNKw22xjiNYo0KjX0aFzV6NMma1pocTZ7mDM1KzYOaNzT7tBhaI7RitPK1Fmrt0Dqn9UybpG2tHawt0J6rvVn7pPYjBsawYHAYfMYcxhbGKUaXDlHHRoerk6NTrrNLp12nV1db1003WXeybqXuEd1OPUzPWo+rl6e3WG+v3nW9T0OMh7CHCIcsGFI35PKQ9/pD9QP0hfpl+vX61/Q/GTANgg1yDZYaNBrcM8QN7Q3jDCcZrjc8ZdgzVGeoz1D+0LKhe4feNkKN7I3ijaYabTZqM+ozNjEONZYYrzE+adxjomcSYJJjssLkqEm3KcPUz1RkusL0mOlzpi6Tzcxjrma2MnvNjMzCzGRmm8zazT6b25gnmZeY15vfs6BYsCwyLVZYtFj0WppaRllOs6y1vG1FtmJZZVutsjpj9d7axjrFep51o/UzG30brk2xTa3NXVuarb/tRNtq26t2RDuWXa7dOrtL9qi9u322faX9RQfUwcNB5LDOoWMYYZjXMPGw6mE3HKmObMcix1rHB056TpFOJU6NTi+HWw5PG750+Jnh35zdnfOctzjfGaE9InxEyYjmEa9d7F34LpUuV11priGuM12bXF+5ObgJ3da73XRnuEe5z3Nvcf/q4ekh9ajz6Pa09Ez3rPK8wdJhxbIWss56EbwCvWZ6Hfb66O3hXei91/svH0efXJ8dPs9G2owUjtwy8pGvuS/Pd5Nvpx/TL91vo1+nv5k/z7/a/2GARYAgYGvAU7YdO4e9k/0y0DlQGngg8D3HmzOdczwICwoNKgtqD9YOTgpeG3w/xDwkK6Q2pDfUPXRq6PEwQlhE2NKwG1xjLp9bw+0N9wyfHt4aQY1IiFgb8TDSPlIa2RyFRoVHLY+6G20VLY5ujAEx3JjlMfdibWInxh6KI8bFxlXGPYkfET8t/kwCI2F8wo6Ed4mBiYsT7yTZJsmSWpI1ksck1yS/TwlKWZbSOWr4qOmjLqQapopSm9JIaclpW9P6RgePXjm6a4z7mNIx18fajJ089tw4w3F5446M1xjPG78vnZCekr4j/QsvhlfN68vgZlRl9PI5/FX8F4IAwQpBt9BXuEz4NNM3c1nmsyzfrOVZ3dn+2RXZPSKOaK3oVU5Yzoac97kxudty+/NS8urz1fLT8w+KtcW54tYJJhMmT+iQOEhKJZ0TvSeunNgrjZBuLUAKxhY0FerAH/k2ma3sF9mDIr+iyqIPk5In7ZusNVk8uW2K/ZQFU54WhxT/NhWfyp/aMs1s2uxpD6azp2+agczImNEy02Lm3Jlds0JnbZ9NmZ07+/cS55JlJW/npMxpnms8d9bcR7+E/lJbSi+Vlt6Y5zNvw3x8vmh++wLXBWsWfCsTlJ0vdy6vKP+ykL/w/K8jfl39a/+izEXtiz0Wr19CXCJecn2p/9Lty7SWFS97tDxqecMK5oqyFW9Xjl95rsKtYsMqyirZqs7Vkaub1liuWbLmy9rstdcqAyvrq4yqFlS9XydYd3l9wPq6DcYbyjd82ijaeHNT6KaGauvqis3EzUWbn2xJ3nLmN9ZvNVsNt5Zv/bpNvK1ze/z21hrPmpodRjsW16K1strunWN2XtoVtKupzrFuU71efflusFu2+/me9D3X90bsbdnH2le332p/1QHGgbIGpGFKQ29jdmNnU2pTx8Hwgy3NPs0HDjkd2nbY7HDlEd0ji49Sjs492n+s+FjfccnxnhNZJx61jG+5c3LUyautca3tpyJOnT0dcvrkGfaZY2d9zx4+533u4HnW+cYLHhca2tzbDvzu/vuBdo/2houeF5sueV1q7hjZcfSy/+UTV4KunL7KvXrhWvS1jutJ12/eGHOj86bg5rNbebde3S66/fnOrLuEu2X3NO9V3De6X/2H3R/1nR6dRx4EPWh7mPDwziP+oxePCx5/6Zr7hPak4qnp05pnLs8Od4d0X3o++nnXC8mLzz2lf2r9WfXS9uX+vwL+ausd1dv1Svqq//XCNwZvtr11e9vSF9t3/13+u8/vyz4YfNj+kfXxzKeUT08/T/pC+rL6q93X5m8R3+725/f3S3hSnuJXAIMVzcwE4PU2AGipADDg+YwyWnn+UxREeWZVIPCfsPKMqCgeANTB//e4Hvh3cwOA3Vvg8Qvqa4wBIJYGQKIXQF1dB+vAWU1xrpQXIjwHbIz9mpGfAf5NUZ45f4j75xbIVd3Az+2/AFXzfFpmSUm+AAAAimVYSWZNTQAqAAAACAAEARoABQAAAAEAAAA+ARsABQAAAAEAAABGASgAAwAAAAEAAgAAh2kABAAAAAEAAABOAAAAAAAAAJAAAAABAAAAkAAAAAEAA5KGAAcAAAASAAAAeKACAAQAAAABAAABWqADAAQAAAABAAABaAAAAABBU0NJSQAAAFNjcmVlbnNob3Trx+R8AAAACXBIWXMAABYlAAAWJQFJUiTwAAAB1mlUWHRYTUw6Y29tLmFkb2JlLnhtcAAAAAAAPHg6eG1wbWV0YSB4bWxuczp4PSJhZG9iZTpuczptZXRhLyIgeDp4bXB0az0iWE1QIENvcmUgNi4wLjAiPgogICA8cmRmOlJERiB4bWxuczpyZGY9Imh0dHA6Ly93d3cudzMub3JnLzE5OTkvMDIvMjItcmRmLXN5bnRheC1ucyMiPgogICAgICA8cmRmOkRlc2NyaXB0aW9uIHJkZjphYm91dD0iIgogICAgICAgICAgICB4bWxuczpleGlmPSJodHRwOi8vbnMuYWRvYmUuY29tL2V4aWYvMS4wLyI+CiAgICAgICAgIDxleGlmOlBpeGVsWURpbWVuc2lvbj4zNjA8L2V4aWY6UGl4ZWxZRGltZW5zaW9uPgogICAgICAgICA8ZXhpZjpQaXhlbFhEaW1lbnNpb24+MzQ2PC9leGlmOlBpeGVsWERpbWVuc2lvbj4KICAgICAgICAgPGV4aWY6VXNlckNvbW1lbnQ+U2NyZWVuc2hvdDwvZXhpZjpVc2VyQ29tbWVudD4KICAgICAgPC9yZGY6RGVzY3JpcHRpb24+CiAgIDwvcmRmOlJERj4KPC94OnhtcG1ldGE+CgmnmcMAAAAcaURPVAAAAAIAAAAAAAAAtAAAACgAAAC0AAAAtAAAOmEkqEBHAAA6LUlEQVR4Aex9WXMbWZbeIUEABAES3Hdxk6iltFLULlVV93RVL9Oz9HSEHf3Q4ZhH+8V+ar/YEQ6/2H5w+MH+BeMHe8ITM9HunonxVPXUSK0q7XtJpV0UKe47AZDYQX/nJhIJkElwAwkkeK4EInEz8+bN72Z+efLcs5R0du1fpm0Uu8dOzReaqP5MPVV2Vq7dUsnqVUaVsURpi6v3kBpBQBAQBHYHAf+gn6bvTdP4zQmKBqLbOmjJVom2vK6c2j9ro9ZPWohKkuyYjSRN1hlVxpIQ7bbGU3YWBASBXCMAUXT02igNfzlCoZnQllrfEtF2/mEHdfy0AwSr/uPASaJM48tVvTFZZ1QZS3pTq/aXCkFAEBAE8okACHfwbwdp8O+GNt2LTRGtp9NDB36xnyo7oCJIcqP2lfHDvBNpXKpvYFQZS3q7+jbyLQgIAoJAISHAKoXX/+sNBQYDG+7Whom26UIjHfzlwRTB6oSoUWSSKNP4clUPTNYZVcaS3u6q/aVCEBAEBIFCQQDS7cv/+ZImbk5uqEcbItp90MV2/Vl3ZoNJbtS+Mn5kbqf/Sm6i/+Rvo8pYSqtM31SWBQFBQBAoOAQG/nqAPnw5vG6/1iXa9h+0UffPu1c3lORG7Svjx+ptuSa5SfpKo8pYMtsufR9ZFgQEAUGgkBDYCNlmJdqmCw1QFxwyJUmdEDWKTBJlGl+uAsJknVFlLOntrtpfKgQBQUAQKFAEXv5FdjXCmkTr6fBQ369OgmRBgmk8mDrPZJ32lfEjtUnGgkkbRpWxZHqsjIbkhyAgCAgCBYYAdLYP/svDNSfI1iTaU//2JKwLPDgbkGAaD6ZOL1mnfWX8SG2SsWDShlFlLJkeK6Mh+SEICAKCQOEhwNYID//zI9OOmRJtx0/2KTtZjf7wN40HU60k61Lb8Aqz7fQdTNYZVcZS1jb0tuRbEBAEBIECRGDwt+Z2tquItry2nM78x/40QRYkmMaDqXNL1mlfGT9Sm2QsmLRhVBlLpsfKaEh+CAKCgCBQoAhAhXDn399d5UG2imj3/7MeavkUbrUoGv3hbxoPpk4vWZfaxtghtUnGgkkbRpWxZHqsjIbkhyAgCAgChYvA6NVRevOXbzM6mEG0HCDm/H86R1SqbZMi0TQeTO2drEttwyvMttN3MFlnVBlLWdvQ25JvQUAQEAQKFQFItTd/dSsjEE0G0bLNbNfPulKEqdEf/qbxYOrcknWpbXiF2Xb6DibrjCpjKWsbelvyLQgIAoJAASOw0rY2g2hP/uqEeRyDNB5MnVuyTvvK+JHaJGPBpA2jylgSos1ATX4IAoKABRFYaYGQItrUJBifVAZv4kcaD6bOeeU2afultklfMGnDqDKWTI+V3o4sCwKCgCBgAQTu/DtjUixFtI3n2QsMQWO4rCTRNB7UNjDZJm2/1DbpCyZtGFXGkn7s9F1lWRAQBAQBqyGQ7i2WIlplbcBBvLkkeU/7wt80HtQ2MNkmbb/UNukLJm0YVcaS6bHS25FlQUAQEAQsgEC69UGKaI/962NU3evVup/kPe0Lf9N4MHV+K7fhFWbb6TuYrDOqjKWsbehtybcgIAgIAgWOwPyrBXry356oXqaI9sx/OEPl9U6t60ne077wN40HU+e2chteYbadvoPJOqPKWMraht6WfAsCgoAgUOAIhKbDcF64o3qZItqL//UC2Zw2retJ3tO+8DeNB1PntnIbXmG2nb6DyTqjyljK2obelnwLAoKAIFDgCMTDcfrm39xQvUwR7ZX/ftkgyiTvaV/4m8aDqXNbuQ2vMNtO38FknVFlLGVtQ29LvgUBQUAQKHQE4Ljw+391XfXSINr/AaLVS5L3tC/8TeNBfRO9LrUNrzDbTt/BZJ1RZSxlbUNvS74FAUFAELAAAr//l0K0Fhgm6aIgIAhYGQEhWiuPnvRdEBAELIGAEK0lhkk6KQgIAlZGQIjWyqMnfRcEBAFLICBEa4lhkk4KAoKAlREQorXy6EnfBQFBwBIICNFaYpikk4KAIGBlBIRorTx60ndBQBCwBAJCtJYYJumkICAIWBkBIVorj570XRAQBCyBgBCtJYZJOikICAJWRkCI1sqjJ30XBAQBSyAgRGuJYZJOCgKCgJUREKK18uhJ3wUBQcASCAjRWmKYpJOCgCBgZQSEaK08etJ3QUAQsAQCQrSWGCbppCAgCFgZASFaK4+e9F0QEAQsgYAQrSWGSTopCAgCVkZAiNbKoyd9FwQEAUsgIERriWGSTgoCgoCVERCitfLoSd8FAUHAEggI0VpimKSTgoAgYGUEhGitPHrSd0FAELAEAkK0lhgm6aQgIAhYGQEhWiuPnvRdEBAELIGAEK0lhkk6KQgIAlZGQIjWyqMnfRcEBAFLICBEa4lhkk4KAoKAlREQorXy6EnfBQFBwBIICNFaYpikk4KAIGBlBIRorTx60ndBQBCwBAJCtJYYJumkICAIWBkBIVorj570XRAQBCyBgBCtJYZJOikICAJWRkCI1sqjt6f7XoKzX04ikL68p0GRky9QBIRoC3RgpFvZECgh/recJFpjWSfebPvKOkFg9xEQot19zPf4EZkWN1Y0IuW/CUN4xa7LaECjVJ1YtTZL9J/cPLYpoVK1sNEjZrbJjUgRBHKDgBBtbnCUVjaEAEhzmemMP0ye6cy4ugEmVC5qn5JSKilJMizX83J64ba4Od5ELSe07bkq+2GSbSVJWbW7ou3048iyILAFBIRotwCa7GKGAMuNaxNUgmKUWMYnEcZ3mJbxTYkYGgLhqgJVQJIQUxxqc4AsnVjrpNIyB5WWllFpooTspXZy4JNeIokoRfFJlEL+RbuJWASrcRwci+K8bPC61r7OviBYtFtSimPgWKXqG8ehMrWP2R9d0jZbJ3WCgBkCQrRmqEjdBhHQiZUl1bgi0uXlKBiNyVMnUK0pJrCyUhd5ysqpHMTmsIHKSpk0bWS32UFrdrKV2EBwoGtuVn1ApiV2EKAddSBdGwgR/Gjn/fE7vUSWIyDamKZWiOMbvxOqL9wf/mhEm8BCHH2NEYg5zuSM5cQyReIJCmH/QCyE30H1QEhvH2yMvrBUzf1BP9BXrZO8lU7amXvIL0FAR0CIVkdCvjeIgE4qzFxJogX7xRMRRW60HAQZRsGTcbVeybngKHtZA1U6W2mfq53qXXVU7fSS0+6kCkcFeRyV5LSVk7PUAbotVWS7qjMg5BJicgPllZaClPlV3yhxkHsioZE7egOex2dFYZKFzEth9DUcD1Eg4qelyBKFo2GaDy/QdHCGPgSHyR8epWhsSj0vlPSK81vGsZdBslTiUqRvQ1/Tz98gXf3hs+Lg8nNPIyBEu6eHf+MnzxNSLLWyNLiMV3QivI5DalQF0qXXWU+15Y3UUlEP4nSTC8RZUVoOydUJknWSDb/tkGir7JXkglTrRF0pyFKpAaAiYGmWSbk0pTfI7JumltCJXdF3xgaKEHXdA2hR/c7YQvuRwDb8j88jApWCUjeApMOxMAUhzfqiftQFKQ4ijqIuEg/TUiJEQUXMizS2NE2zoUlaCE9nnD8RJG6oM9R5qHPJfBCYdEWq9hACQrR7aLDXPlUmMENSTdGUUgFo9ctYZhJ02lxUAX1pRRn0pNiHibIMxFnjaqUGVws1VzSBdL0gWpdGqFAZMNFq/FkCdUGZkkaZZLlo5JofUkrgnHRC5mWWimNKb4xanDYTbRi6ZCbgYDwIcl2g8aUJmgqO0VxwlGKoZ6KO4CyWYlFsF6GI0kFzu7pki29WOSTPNVPy1TFXUMifIkZAiLaIB3djp6ZJhxrh4PUbkl6iBN9MQdB1KsbBMhdXWQXtq9pPXVU9+HRSnaOavHjtdzvdGuGCRJlAWapjQtWkUI1MU7yDdvR61WgB/dFJV3UJp6z/5m8mYJaCmZB5mQl2MbxIC1A/zETm6b1vkAZ9AzSx+J4WowGsZzUGkyzOFrplptrSZahFlG5XaaKT7QvZFtAlsGNdEaLdMWgLv2HIcOBRVgloplAlIMky6F2dmJzi1/sqRw3VOmuprryGPE4QqsNDlajzOplgWWp1YlvoVfFhaVcnUDbD0pcLH4WN9ZDJVjNN0wiYVRBRqB7C+AShXliILJAPEu9idB6630Usg4BDM1AzzJAvMqek4jAm32Ks71WYQ+ZlSRcfPJo21gnZyrIICNFadug233EmC9zlmqDFu6u3W0zz4MZ3lLmoHBKrG3pVr91D1eVeanK1UYu7jdoqW/G7RhHt5o+69/ZYxAQbqxmGfR9obHGYJoIjNB9aoAVIuovQ94ZiSxSJQQ8MklUqBlg9aCUpAWsDs/eAK+IzFqIt4sFNPzVtMguvv3jlZenTgVd7V1klVdjc5IE+tcnTqki12d0EfSukVqgE7JhZ58ksByRcm9KtiuSVjulay7p6gSfbeDItCisHVjHMBedofHEC5DtCE4FRCkDv648FIPHOg3DxVoF/Nui8S9h8DHKulOJBQIi2eMZy1Zlor7usGohDZ8pG/g5y4cNWAdXOKqpx1FFNeS2Wq7Xv5HKFvQLSLTsKSMkVAiFMrC1Fl2BGNg/pdpbm8OFlVi9Mw4LBH/ZhfZCCIOUIPjE8ENlWV6kXRMLN1TDkrR0h2rxBv9MH5tdRXR8YI4/dC0KtpSZnE7VCam2tbIGVQD1sWhuopqJOTWLtdI+kfQMBlnrnlkCywSlYMUzTqH+MRiHtToQnQMCzFIguaJIt1AuajkfpeYwGZMlSCAjRWmq41u4sv3oq/Ss2KcGyDfdlpaMWE1rVVAeJtbYcpFreoMyvql1e1FdROdu4YiLLAXOtYpu8WhupwljDbxsRmIPxhFoI6gVfxEfzQc18bDo0hUm0aZqBxMtqBX9kFhYP/NhMqhPUZKOoFgpjJDfWCyHajeFUoFsp5QBuQHYQZd8luLSCPD2Y1Kqyu6keNq0NrmZqdkHvCrUAWwrUuKqhFoDzAPSuUgoHAXYHDsEudy44rywYWLUwHmSb3XGahu2uL7oI9+AlEHOYbUWSGl1+qLKkK9Ju4YykeU+EaM1xsUStii+AWy4BkyEnpJwKeF5VOxup09NJB2DrWgeVQF0FdLCuWqWftcGNVTm4YlsphYcAm4+xBXMc7sOsp50PztLMEn9m6I3vHQ0GBqFWmISnWpDC2LYUpnjaeMokZeGNZmaPhGgz8SjgX0yOLMFqTgVMsnbMTjswaVVe5qYWF9xfIb02VkCCdcNDC3pYdoPleAJOSLDsSCDqgQIe3rSuqVGGDjcMCZfjMLD7L1srjC+O0eTSOI1Byh0LTkICXoT6AVYNiIrGE2fsDKFZK2jXSlqTsphnBIRo8zwAGz88bj/cfJxXgAmXnQKq1QRXDSazGmi/p0dJsvWeeqqCRYEblgNSigeBRVgs+GCZMB2YVpLt28A7TKZNQcKdo3lMnGnOFHx14HGamkArnvO3+pkI0VpkBDl0HwKrIsQg4gyAYKtgQXCgsof2ufdRAywI6qB79dqrlISrxxOwyKlJNzeAgB6HgSXYhaiPZqDLnYKlwofFD/TG/w4kPAvzsAWEeuRAP+wC7dpAq7LJbiEgRLtbSG/hOBwom6VXG6RXOz5ueG+xaqChgk2zWkCy7fhuoKpynuBi5wKOlSqz0VuA2jK7sFlYRE2cRcgXAtnCPOwDvM840M3UkqZaWITXWRQ63Dh7AbIyASomKflFQIg2v/ivcXTNmiCGSFCIggozLAdMtGqptaKVDtQcRmCXbphptahYruxYwEFcpOw9BDjIjXKEgMvvOEj2A4LavJl7QaNLozANm4XZWATvQBwxDdHT8E+sE/J3jQjR5g/7FUfWLAGWOd0LAmdz6pcKmGnVIM7rvop26vDsQ8yBdmr0NMEG1qvWsYqAg2DLJNcKKPfITzVphihhHE1sCaZfPgS2mQxM0Ih/mIYCH+jD0jDNweuM13FqHi1ThS7dsrQrZbcQEKLdLaTXOQ5PdHH6lxK2JgB5csaBJncrtXs6qKdyPzy52qgRagIXMhJwKhdREawD6B5bzSoFTuUThHQ7CXXCqH+E3vnf0nBgCKEbR1VGCQ7duKzefrSoYXsMoryerhBtXuE3Ds5qAs5c4IRNbD0yFbS5e+hgzRHqrO4CybaSy+5StrBsAisSrIGbLBkIKIUTBFW2wQ0ibsKof5QG59/Tq7nnNLL4jqaRGSIM21vOBMHqBCm7h4AQ7e5hbXokLT1MCFKqkyqR5qXL0wY1QRe1Qw/b5G5GPFiEJ0RgbdbDihRrCqFUrkCApVvW33Jg8lmYf00sjiNk4wDUCe/pfWCE/CpdD/T/JeXK/nbF7vJzBxAQot0BUDfWJNvFaum2bVAZ1MHZoA0eXcdrj1Knt0s5HShXWagJpAgCW0WA1Qns2svODoML7+nb2Wc0Ag+zGTg9xKG5ZedtDssoE2VbRXhj+wnRbgynnG7F3l1MsrG4X8WCbXV305G6E3Sw7gjtg0TrQSYDh8paIBNdOQV+DzamJsyUSVgEmR8C9AES7auZ5/R85gmihQ2omLhltkpFthIDd+cuECHancN2RcuaW2QcFgWsLijFz2ak3WZrgv1Vh6GLxYQXSLYSJMvWBFIEgVwjwNYJfpDtKMh2cP4tvfW9UNYJ44ipwEke2KPMxinVlSmYWCXkEn8h2lyiuU5bbFkQQyoTJtkKOB9cbPmYTjacoh4EgHEj2pZE1FoHQFmdEwQ4UtgiooG9Q6Cax1OP6MbY18oEjP0bypDKSHPhzcmhpJEkAkK0u3QpxGFVwC60FQgA01HVRYdhUXCo9pByQuDYsCqylnh17dJo7O3DqMkyRAhjsh1ZGoEa4Tm9gGXCkO89CHcR4NhwPYpVQi6vEiHaXKJp0pauj2UX2kpIrR2QXg9jwuujuo9gxlWvJFmxJjABTqp2BQEmW7a7/W7mGb3ARNkQpFw/6tiFV3KX5W4IhGhzh6VpS4llRNFPLFKLsxkxYg/RpX2fgmw7VZZZiQ1rCplU7iIC+mQZZ+kd8g3SjQ/XEPv2JY2Fx2Fy6Iaay7GLvSneQwnR5nxsedKLrQo4bmxEpYvhJIh99afoeMMJuNHuS1kV5PzQ0qAgsEUEOGMvWyWM+D/Qs+mn9GjmMRJHTqlYuEy2mt6WzcFkkmwrEAvRbgW1dfbR1AVxcsKVthFpZA57j9G51vN0uO7QOnvKakEg/wi8mn1N98bu0XfzjxCsZpzCcN1VGXmV3W3++2fFHgjR5nDU+DUsjn9MtGXw5DriPUwnao9TX/NpBIepUW60OTycNCUI7AgCQYRZZFXCw4n79Bj2ts8XXlAMJolsZ4tpMnEB3wLqQrRbAM1sF871xATL/zik4T5PO52sO0kHqw9Sh7dDQhmagSZ1BYsAu/AOLQzRy7lXimyHEfN2NjyjyJYJl/9J2TgCQrQbxyrLlklJFgFhOCbBsZqjdLnpAqwLjiA5Yn2W/WSVIFDYCEwvTdPz6Rd0e/IWPZv7jqL4hxBgSrIVt92Nj50Q7caxMt0ygSd/HNGSnHBAqIZ6oKeyC6ZbR+k4PlVOr0rtbbqjVAoCFkCA4yQsQI3wDOZfz2afIygNcpVxUPFoCLa2DlglSND5jQyjEO1GUFpjGyZZFUMWSoMmpJbpQg6v43XHqLumG+60LbgIJVbBGtBJtUUQ0M2/RgNjNDD/DoT7lAb8AyqjAyeC5KA0QrbrD6YQ7foYrbHFMkWRBrqs1EYeezWdrD0BnewJ6q3rRQ6vKtggss+4FEGgOBCIIlayL+Sj1zOvlc728ewTCkTn4VKOQPUIUi9qhOzjLESbHR/TtfrElx3h5eqdddQNb69jkGQP1vTCEaEaagQ9R5Pp7lIpCFgOAZZsw8jAO4+EkG8WINkiNxnnJ5sOTcOLLKYmyWSCbO1hFaJdGxvTNXzB8b9SRIapgyNCd2W3kmT31/YghmyzqAtMUZPKYkCAr3uOkzAVnKFB5CW7P34HpPuGZiIzlED4L878Idk/zEdaiNYcF9NavtDiSJrowCRAZVklHUFgmI/4U/+RCm8okqwpbFJZRAjwPaB5kS3Cg4wnyL6j5whI44/5VQodG5JACtmuHnAh2tWYrFHDl5hmKdvoaoQk20nH4Iywv7qHWjDxxTFk5QJbAzqpLioE+D7g2LZjmCB7iwmyp7PfYoJsEMFpJpV9rXYf8ESZFB0BIVodiXW+OVg3J0Ysg9/3YYQ3PNt4hnqhk21AZlo7siHIZbUOgLK6qBDgiAdRxEeYQuSv13Ov6e7kPUT/egkPsgjifHAQcTH7Sh9wIdp0NEyX8fyGXqoESgN3WQV1VR3AxNdxOtl4Anaz1eSC/ayEOTQFTiqLHAHW1yp33fA8PZ58Qk9nvqX3vje0GFuCzAtXXRVfWUQQvgyEaNe5GbQstRHyIsVMS0ULJr7O0KG6w9SNBIqsLhCSXQdAWV3UCDDZshphAIkfX868gOnXPZpAIBp/xA+xFiEWRbJV4y9Eu85toOLJxhfpECa9jteeopNNp0G4zeQG8cqzeh3wZPWeQIDVCIsIsTgGgn088QAqhEf0DqZfCVsFvHUlni1fBEK0WW6FOIy0HQh16IXK4FRjP/J79SEVeA/iyVbCIUESKGaBTlbtMQQ4rXkAUuwgbGy/nXpITyYf0BzS4oQQYtEmzjtCtGvdD8rCAERbg3xe+5EOvL/5DMy4jsHrq1qSKK4FmtTvaQQ46aMPDg3fIXD4/fF79BbpzOciPtic2/e8RY5ItCa3Bhtx8dSp0+akTk8nnW84RwfrDlJrZatmxsXmB1IEAUEgA4Fl3DOsrx31j9KrmVd0e+oODQYGKRxHYlLcMxxeca8WIVqTkU8ol8IELAx66GjNMTrbdJYaKxrI4/SYbC1VgoAgkI5AIBygyaUpujtxF666T2GJ8A5WCBx8Zu+q24Ro068QtcxuhjGyQ2i90vYp9TeepaMIecgWBlIEAUFgYwiwZPsMWXXvT9yjr0euIh4C4nwpot2bb4NCtGnXDasMOLZstd1LrRVt9HH7J3SkDsG7XXVixpWGkywKAushwGZfs6E5WCA8p2tD12h0aZjmowsqhu1eVCEI0SavGJ780mLLxqnL000navqor6WP2ivb1OSXuNeud2vJekEgEwG2RBjxjdD9sfv0ZO4hgoYPKEcGjmG71+4nIdrktcHBYkqgsK9iUy6YcV1p/ZTa3a1KL7vXLorM20V+CQJbR8Af9tPw4ih9PXqNHsHsy8deY5g04+Aze6kI0SZHO7YconKbnQ5UHVR62XMt58htd0sA7710N8i55hwBDhi+GF2kO2N36P7kXXrje0UhmIGVlXCw8L1ThGgx1qw2WF4OU63DS5eaP6VTTX10CIFjpAgCgkBuEHiJgDOPJh7SjfFrNBtZwNvj3gqOv+eJlrMlIL0ieWwuFfrwT/b/DGZdXUqazc0lJq0IAoIAS7Xvfe/pN29/rUIqBuJBlUl3r2RlEKKFKRerDXqrDtGp+j5YGnwsVgbCC4JAjhFgK4QZZGa4PnydHk0/pNe+l0p9sFdsa/c40bLNbBRpOEL0B+0/pCst36cObzu57K4cX2bSnCAgCASjQRpaGKavx/6Jvhr+Aq655TCb5CSmxW9bu4eJlt0FQ+RC0O4GZwN91vEjOt9yUZGsDZltpQgCgkBuEYgjYy6T7e2xm/S7oX+gqfAUBRE8vAyEW+xku2eJlifAorEFanTVQ2Vwji60XlbOCbm9tKQ1QUAQWInAy5nndHv0Bj2Yvk0TwWmyl3mL3q52DxNtgiKxaer19tLPDvwSE2Dd0M3Wrrwm5LcgIAjkGIH54DyNIMfYX73+C3qx8IocZfUg2uIOOLMHibZE6WWXkduowVlLx+tP0h/2/ClVl9fAjtaZ40tKmhMEBIGVCHAWXQ6n+LcDv6bHU4+gQpiFuZcjqa9lD83iK3uOaNnLK5ZYgvFsmPrqL9CZpgt0se0COaCrlSIICAK7gwCT7c2RW3Rv4hY9nL4FFa0TulpkZMC/Yix7jmh5EGPxAJUuB+lnPb+gs82Xqc27j2yS26gYr285pwJFII6s0iMLH+ju+Df063d/SYkSF5XZijcM6R4iWjYhgXMCVAZ2xDSosXugm/3niGtwmiqdUMZLMO8CvSWlW8WIAMc78IcXEP/gAf36zf+huWgAoRQRA0HlGGN9bXFJtnuGaFllkMBTNBr3UV15I/V4j9APuz6jg9W9iM7lwFopgoAgsFsIMI1GoT54Nf+avnj/O3q38JxmQpO4F6ugq7UVnQphjxFthCLRSTpce4Iutf2QjtcdoyZ3k8Sa3a27S44jCKQhwN5iE4sT9O3MU7ox8gVi1z4hh70R96NDiDYNJ20xKQpqXxk/Vm2qKkxER6PKWMq1iLmMQV2GFxgl/NDLXqQfdv+c2txtVIm04VIEAUEgPwj4kaZ8ZHGEvhj4G+hrbyJUbSXUeEjmWFJc5l57RqKNJcKsPKAqZLW92HyJPu/4CUy6qqi8bG+Fa8vP7SRHFQTMEQjFQjQf8tGXQ39PN8dvkA9Zczm/WFlpcZla7gmiZf1sBLpZl81Gx+r6qb/pHJ1u7FckK7nAzG8AqRUEdgMBzi3GZPtg8j7yi92hpzP34ZYbh7llVVGpD/YE0bIfdTQ2R9WOCsQ0+BM6gQwKXdXdyqQrn9kTWEfFHzZ1SWDGlWdi1yocf4FN0Gyl+U0DwnaOqs8J7rvW77X6XApLDp7YKEPf2aojG9YaDgmVrjobDnwsxoAfkKV4vczW5lr92mg9++bz2PD32iOjtcbnyGO0Xp/4PGNojwmmEIoNGKawzIPlDV9PjPH7+QF6ggwMvxv6Dc1HluCWWwN41kO9EBDcWB/2ANEygfHFHaQGxDX4456f09HaY9TsadrRm3Q9+PkCi8QiFIwFyRf1UzgagX0vdMhrFI+zEvrkSvI43Iq41thsR6t1kg1GguSPLKrI+TxzbF5KMLHhQFzfCqpyVimHkLIstspBSDVL0SWaC85hNnptHPhYbqR9rymvVm8k9h3KTsxkH8A5+iN+8iEdC19D2YrX5VXn6YIqai2bbCbZcCyM9nw0i/MshFKB8WHXc6fdmbdsInxdjQcmkDX3Kf323d/QFOIflJW6knratHmbQgBsi30ocqItURNgTLKVZZXUgXgGP+76Ke339kA/W71FyLa/G99wnLhuzD9Go4EP9ME/QBH8Zql2ZdHIbRlqDyfVIxvv0YYTVFtenxfdMqclWYA+bXDhHb2bf0Vh9JmlEfNSoiQlziDc7T1ATRWNppjHFRZReusbQLsDNLs4jodiFDfZ6pxSjA4TXjVcp1uQz63D2wlTvVr4yrN5Xu5uyFA8DJIN0MD8GxoLjNBcaAZUgCOYTNCoSVbg0I5g8R24rjiZJ5PXyv6wVMwPklG0N4QA2MO+QSrBQyKf9tsJPNCqndXUWX2A2jxtVFtRhxix+enTPFxy3+K6+n/v/w74DJA/5k+SLYdRXH1fmF9zhVtb1ETLF3scJBuJzSJ7wmHoZ0/TxfYr1OJpoYqy/MWcZZLlcHGc2uPx1H16hihGcb41S1e7AStpHGRWggDlza5GOFn8gnprjlANbordLkvo8+D8IN0avYpke19Sqa3clBCNfi1Tq7udzjZcpmMNx3BDdxqrkksR3Owcff93w/9EtzEZ4l/8APJOoO3V48MPnTiwq0VYyw53F51vu0QHYAdd46pWr+yrGt9ixRxu+uHAMFxEr9Hr2Wc0H56G9gkEVMo3fWZZxkMhHl9C5LfTUEmdp/7mfvSnZpVUy3rIaUhqD5AR9tnMA3oz/wzniHQuJg+UzCPs1C+ogJDloNZZD3PHfjrdfAbXVa8KE8rqj90uS3izGwuM0c3hr6GnfYAsDC/wAK2FOsaFUReiTYWR1OSJpFSRTbgwWWdUGUvgnW0XjWiX8Lo2DQ8wjmtwRU2Cmd0I2z7YJhoI43WbX0fvjNwG0d6lF/MPgSOCaoC4VhVIuTBMo3jMR02QPn7W+0s6gkA4DbD/3e2yBN3Z+9kBkOwXdHX076BHq0PwZr4RTF6rQZax+CI1VzRRX8Ml6sONfAA3Mr/q87joRZ91/u37v6Ybo9cQhB1roGIoMVUz4JYDHqyC8CA4+9nGS3Qc+vbDdQfJgYdUrqTDiaUpej3/lq5++AKG9K/hsRTDPDj0wSZ9SsCaJRb30/6qo7DL7qdL+65QI6T3lbEzWA0xEuBssNfp5dwzLL+DxMYPqtXkrWOzo9/Akd/02AqnA9lFLrdewT1yEtK4a9VDYkf7kWyc34xYbcSTYvcmvobH2C1yIqqXrUjiHxS1RMtjyNkTogkfXWr5Hl1ECvEjkAY9ebad5VfT+dACnt43FdG+8j3BDQfdHkhrrRKJTlMD9LN/1vvnUB/0UROk8t0uSyCLgZl3dH3k7+mr0d9AB9tKNpvbVH/J5BuNz1Gjs45OghDPNF9AwsvDIER7hvTJkv0swub9+t3/puujV5W/eyllJ58E3KjZnZozFh+rO0mcsZhVFJy1OBdlBOqL53Ov6R9hcjTge4eHCSa5+N/yakkvgeBE7G3Y6T4Iou2jT/Z9Cv1/C0gi0zzJHw7QkH+Ivhq5Sq/nvqPJpVFFtFqGgVz0enNtsJTIRMuYteDt4Pvt34Mg0q/UHtl06Zs7yua2ZnXN87nndBMP3BtjV/FQhpeYCgq+uXYKceuiJtplPCU1aStBn+BCutRymbqhS6soq8jrWOhEe2f0Dp7c9+nlAhMtRy8yf01iCTAcmaR6h6vgiLbMVgmMV77ascTKk30z1FAOosUr9XpE+38H/oq+Hr8OaRWTILRaP5s+YNq4YmwhNXdWdtEneIgebfgI+tH29M22vKwTLadbec9EC4Jl64mVMVPVGxNIPwKJtst9gI7VngLRfgyibc5KtG/mXtDE0hjcTVl6tJvgt+Wub3BH7Y0iijcOd5kb6p1O+hQPiDNNp/NKtEuxJTzY3oNkv6HfD1/FubBVifmbxAZPtGA2K1Ki1W70OF7rWILyOmrVq9EZvL624FV2pbSx26ORTrSso33h+xYXlANEy2HiVr6G8+3MRDtRcETrVBJtNqKdBdHWbpJoeSJpvVRCrELgCcUw1UCdctB7mM43n4N0+xFV4G3Ftk1LBINov1REa1vGCGQh2iiIttPdC6I9uWmi1STalQ+qnb4i+YoiPCAKi2jZImNsaYLujd+jb0a/poXILCaJoxhPfjvQ7umdRman2i9aotUuJD9V2mFt4NlPF5AP7GT9CfLCG8xuy/5qulNg6+0K0Rqv4LrqwJBoN0K0jCS/+oYRia2MqjDGF5svwhHlDLVCquVZ/+1M6Owe0erJCfUrY7e+C5No2ayPrVoeTz+hW8grNhR4S36YPjrUW5M25ruFUK6PU7REq726zlM9JJ6P6s5Aj3ces6tHlFkUG2nnswjRGvhvnWh5hDl+BQz/8frO6eKP49W9v+0s7KUbie1Zt1qEaNd7o9gqstn3Y2sTnhx9Mfuc7ozdpu9m7tF0eB7WB2yKKRKtQo9h0MAwvlTVyj/ahhm1RpWxpHDN2GozP7gdzgk2S03lDdTXeJnOYMLkYM0hvJ6zri3tOJtpNkfbCtHmhmh5OBIg2vhyCPGFq2mfpxNvLpdh3XCAmt3NavZ8K5YIQrT5IVptgi5Or+Ze0r2xO/Rw8huaCE0pMy/W1/Kj1aqlSCVaTdqJxuapxdVM55qg6G85q27AQhgoIdrcES3fnDw5Fk9EoCbyID1RPx6spzE5dkzlgNtKLIviJ1q+C+CWDh2tBxPDrbA64MmwfkyGsSffWp5tu3XvvJl7A6K9S3cmrtFYcBxmhNXorXHN7FY/cnmcoiRavvmILQ7wKrKvsoOutH6PjtV/RB05mpXe7gAI0Ro3zXZUB/o4aGQbU/a17MxwquEUTPkuQKptgr3t5sNgFhbR8oMEcSVK1Fnqp7ytb36jQ3PK/reqzEOdnoOYxPsenWrqUw4L+SbaIf8wPZ3+DjbHV+E1OYSJSFwvajIyv2+i2wG9KImWg52w7s4Ft9v9cC+80vYx0or3wA20YTtY5WxfIdrcEi0PjLLWgBE+v1weqjkIU6Wz9BHsdptcTXj13JyLbiERLU/q2W1lBMMHlt3V+W33QiwFSExZ7NFW66yhQ96jiNF8ng7Vwc4Z2Ua2M5G43b7x/sphBO64X49cp7dwgw7CHZc96NjEzqqlKImWXyMTCPLdDPfPQ5gAu4QZ6Xb4cnMgkkIoQrS5J1oeV37AxuCgwrEgOqt66Ao7SVQfVO7KmyGPQiLacriKe+HSy04TXNaLbKY22vAfuEhDtdaPNwC2L2+C6SNHIMv3HIbmAj1CNxAI/CUmxsYXh0GydvRttYv6hk81zxsWIdFyfIMQbroItVXsU5G6LsK9kOMbVCECViEUIdqdIVqW93hyzAE7WtbXnqrvg7fWCbjoHsbbDZwDkmS13jWQf6JVZwLCs6lUSydgllgDydOlHG1YZs9d4QwjLRXNCC7jVY48m3kg5a4XmS2xe7qKewBbWo7oNbL0AUTrwPixJUluzz/zyDv3q+iIlpXmscQSbrgQdVV0Qzd7ki62fUoNFfUqxODOQbnxloVod4Zo9RHgTMcEwu3yHFBEe6ntItUiFKBZVC19n/TvfBMtq0FYOmevsQNQfX3e8RksKtoQTzn3b2T88NHj0RYCyfI4cFyIqaVpFdTn6fRjer80AKItX8OhJ33kCne5aIl2mcJ02HuQTtSfprMtHyu1wXZsK3M5hEK0O0u0uouuE0F6uhEak50Zemt7MbveihuW3TqzT6rkm2gRCl79K0PMh0M1h+mnXT8G0e7bMdXXekHZc3ntb6Qtjk3M6oO7Y9fpyfQDerHwCiPGLupmnpMbaTH/2xQt0cLBEC6RxzADfYbOw7bSjVckdscthCJEu7NEq6aNeKYe/2rLaxBZq4dON/TTkdqPNM/Ada6DQiBaJlsbiPZg9SH6ScePqKsKsXcragvh8t3xPrDb7SICzNxGzINHU/foKdQHtKaL+o53JycHKGqiPYkYof2N5+h860WloyuUVyMh2p0mWu3eiBGHN1wmJ2arLzZeoXOYHOuu6cZDd3Vg7vS7Kd9Eq3m8xdUE0P4qqA7afkD7a3qo0VMYVjPpWO3EMgfG58wjt0dv0v3JO/QY8WmFaJNvYdpXxg/zMTB5azOqjKV13u7M21a1WrBvlmiZaE83noX7LYgWcTbzFf5tZWeFaHeHaJU5FHS1ywhl2AWvsaM1x+lyx/fU7LoTQbfXKkK0ayGzO/Ux6KfZvvoO4h08mLybIlotjKhMhmEUCoFoYR+IGwvm2Ipo+5Tq4LwQbQ7ukZXxaPMXvWtjJ8O6WLZC4LirHsSHbXe3wab6czoIK4QWuOiupa8tBKLlyTA7olb1envp8/bPkA6oi+rdu59VY2NI53YrnWhvI97BQ6gONIm2DJODaz8cc9uD3LdWdKoDhoinEtiZ5ASCjJxuOE0XEB6RzXtEdbC9C8hqRGucbQm8oJBuHtlzD3lP0zmoks61nVM6ezMvqHwTLV+/rKP12Dx0GJNhP9j3mfJqLBQ7cAPXnVnSVQe3EC7xwdQDejL7iKBNgM5aHBaSsmz+JVpNv5VQNpMnYXHQh2wE55pPw++dQ9IZr6w7c4lsrFVRHRjjsDUXXCgF+M7jotKYG+1plSv/QrKFbTXra6vsVcj40EeX4C3IVgicymXldZFvolUqD/SV0/Nw/ORj8HCrg9OCB0G6c1X4GJz23IPzb/V0qAy++cyjl35eTLSheIjujD+ARIu8erA84OSW7Ipr1ZgHRSbRssE6Z2VdxmuXA8FFzkCiPYXvk0K06VfyFpcLQ6LVdHTIb4ybjv9ynDZdaZWm4zc5Rzb7isLGusfbTf31ZxXhtiH+Betr002+8k20ete5TxUI91hfXolvp3LE0Ndt95txi8CMqg6eYcehXmMzuEZ346qHznaPs5X9daJ9OPkYEu0jRPG6h3Hj9EWgWeWGm32ct3LMnd6nKImWL1AHJNhzzWch0Z5C5P2j6mZaKbnsNLhrtS8SrSGBbk6i1SRZO8yz2EbWDgknAh2sD77wpXit5Lxe2QpLceya7YbnWJ2zij7r+mM4tJxSadzTr41CIVo+F8ji+MB6AlFgcksvUE4g/XktcrodrD0LE0i4K0N3zdlH0rHIhudOrWOiDSOv3tOZZ5BoH0GyvYtsECGM3rIQrXYRJC+FbFeEyTqjylja2lWlSbT8esE34nmERjwN1cERxDtgqSXfF5B+YQrRGoS4GaJltVBChUOshJRXRzWOOgrj9+DiEAJGB4knUUo5LXiWi4fbIOzjAHH1N12gU3jrOQ7vwfI0q5RCIloVAhIPB5bbmWhyUdRdxllwESbRa/dCmj1KHyNM4qnGUwURvUsnWg4AzkR7E7Fpw4pokYZeJFq+BJJEmcaXqy4Mk3VGlbGkN7Vq/6wVBtGWI/EdEy1LtEK0WUHb8Mp8qw60V/8ggrnXUU9lNz6HQLQxeoTJksngGNKe+OA9hOSO6mZc+7S0oEMRakD8AM6i+3nPHyG3Wb2Kxcp7FRLRrn0W21mjPYoKLWeYfkY60b6afamI9gaINoRIY/yQFKJVKCWJMo0vdfBS3ybrjCpjSYhWR4xvCknOyA9xjWgD1MhEy95ejRege3fTu/m39HTuEQ36B7AZvP9AtNkmTXgibRmz+pxrt9ndAvUBBws/hbgCPdDtl9Ho4oRKN/7V8E4nZ5ScYfpVnv4tRJvGgylgknXaV8aP1CYZCyZtGFXGEu6ULRRDonUmJVqeDBOJdgtQmuySX4nWINoGuNV2g2gvt/4BNbpaaCE8R/cmb9OzmSc0F/FBhcC6vPXcrbXkjjzT3ljRirYuIVzgaapB8Jmp4IwQrcn471aVTrQvZ1+kVAeheFAkWh4AjReT7JiNJE3WGVXG0vaIFiEoUkQrOtpc3SD5JVrYkiirgSASbkKvyJkzYMi/H7EAOFjQ48mHdG/iHn07+5gWMZtepkLqZT9zdmYoxetoGUzE+pvOqc/R2qO0EA0I0WaHbkfX6kT7XOloHyIj7l3oaJloZTKsQIiWDbvwWogbx45I8WcgofRhVvlkw3Ex78rBrVEoRKsk2spOuowYAL1IuFnpqKSxxVEEiX5JX499TaOBEZDtkgozqNKgrHHufONyJo5lTI61IgzhIbT1adv3lTT8YWmUvvzwD/QOkf5tSG/Aet+V6ghW6XBIxmjcT53uXti7nkRKmI+p2dOsZu/TD+sPB2gIaVm+GrlKb+ZeIIvAGK5RUR2kY6QvM9GyHe3jqW/pET9Ap+7D6oC9PZGiUSbDGIakRJommHJtRjFZZ1QZS3pTGftu8AfnVyq12aivto9Og2jPNPcJ0W4Qu2ybFQ7R1ipb2Mut36deZFCogoTL5kDjSxP0zQgHi/6WBn0DKiI/p0BhQlyraFkZwrBRLVUBsD9r/xyxaxsogBv9S+homWhV6pciI1rGg5MzuuEE0eruVMkZzyA5I8fszXdMEJ1o740/VJ5hj6cfwrkiilGEw4JyOlp7PNca53zXF5kdrQZnHOYwbMp+ApMc/Y39sD6AC66SHgyzonwCL+ZdxjhsyrwrqTpoKF9NtPwuswS70GFIjbfGb9D1kWsIK6ReNmFhy9NeaxdOD5NYDsIpAPFfEcO43d2NcIoN9DXaGQoMKam3uCRaxmIZRBssWKIN4kF3e4xdcB/CBfchzPqWlaV0SphbezgLck1REm0sEQbRIqgMiPY07CTPt5xTsQ7M/NrzMSpCtLkn2lKoi+Iw9VpCHNMn00/o5ug3NBh4D32rD/cmJ2fkY5pLQpoKIAxVA1Etshg0wFuKs+m+hRXDTGiWolAPaFJx5v67oTpQ6g1Wh+F1Wjn85+yC1exoq8qqkF/tCH3S/gn1NRWGHW0cD1QVJhFmXQ+gNngy8xDnD5cUjKNVS5ESbRA3RlSL3qXCJF6AtIIwiTDdKYQiRLszRKuP7agf+tqpF3Rj7AsaAFmGYYGgqRCM4+rbrvxmQi6Hft+NN6AoyC0C/S2PFxPeyrIbRMt5wZfxITxEckq0OLdEzIcHSx0dqDmLdE+X6GjDR1SOicV8O/bE+IEJB5Q7Y7fgfquFSYRTvbKRXjkGVvlddETLF38sHsATMIjsCucg0Z5PBf4WiXZ7l2Uh62hZotUL55yaQc6pO4jQ/xT62nf+9xBmOV31eiZf3AJSIqIprT3YJECtwBKWWdkpolWkDiJkdUUVJOy2yjaqtFUggHluBQWeCPQiqEx75X7qqu5EIkjEOoCums8rnyUl0SLw9wOY7T2augMsICghmpnZAy+ffd3osYuQaJGcURHtktLRnlYZFi5DooWSXyTajV4XpttZhWj5Rg3FwvRy5gUiPz2iu4jSzxJSXNnXrk9WBtGtrW5ggHaOaFlVoGVYaEEM3dOIQtdc0QBSrEQ9H3m1dM21WynseszxDiqdHrjfcpbZ/Bcl0ULfzhObD9k+GjrakhLcv4pok1Hb8t/NTfWgOIkWEZo4OePRmiNIOY0JsZYr5EUQkfIsUfU3hdo2NxbVgfEKn6vJsHSJloeHZ67ngvP03dxzuoqJsdHAIBwb5uH5hTQ2mLnOhWS0G0TbU7WffgDHjJ7aLuiO65V0nYu+65cwqwk4SE8hJWjk+2MhtEDXh67So+l79C7wBm8YkgVXjZn2spF85cj25mGyzqgylrb69sI6Nk43zulLeip7VPDv81D017nqUr7s+kWWr28h2p0nWiajSCxCE8EJegHJ9t7kLXoJ+9W4sonlaP1l2ybb3SDalTnD+AGSy8LnwCRbSGUR0uwMvPNuDF+DxcFjuFa/Rx8dMNdjiTt30vxunnMRSrTQ0SLIc2I5RO2uDgQNOQFF/yfwaW9Sr0e7Ce5axxKi3Xmi1bHnqF4LSF199cM/0u2JWzQVmsEcfklyYmV7N20+iFY/r2L+ZueOccSbuDl2DWqDpzQcGAbR2kG0ksomKYAmn4zZHpAm64wqY2mrEi1fgHp0plZ3h0oxfQHJGdsQPKS6vLogrk8h2t0jWpYA2ezru+nvoO+7T7cmvyEfTMC0KF/cj7RrbpNXhxDtJgHb4ObzeDCOwNPv95BoX8w+o8nQpDLtsiGYv1VL0Um0PBDsw84fr7OWDngP0EXEHd2PyEwcQb4QihDt7hGtPt6TgSl6M/8K+tqv4IQwiJCKfty8yKywjZn8nSJazhfGruQ2mDRxcsYfd/wIyRk7qa5ibyRnnFycxFi9o+uj1+jNwmtMZC4qixGONWzVUpREq+IdYNaWzWP2uffRpcaLdKzhGHVWdxTEOG2HaH/W++ewdzxFTZ6WHTkXJo+1ilWsDsz6H4UL5xRMvm4O31RZVV/7niupVjP5WvuczdrS63aKaPXkjGUgWk7O+NOun9I+mHjtVHLGbGOun+tufg/OD9HTqaf0zcR1+rD4AYdGD01coHezT9s9VlESLSvM+V8cutpWhMA713CRTjWfoh5ItTzLmu8La6tEW+dw0R/1/gukHDmmZqC3O/gr9+eL2ZUlE4WViZZVCOyiO7gwpNw6707fJT+sEKLxqIqJsBUVwk4RLQsKHIPBBr3kgeoD9KOOz1XQm2pYzuS68KRgOdLX5Pue4PPie5bH6R2k2UfjSGEz+XuoEMZg1uUG0W5PzZNr3DbbXpESrTZsEURVakaAkH4QbV9TPyI99aZMWTYLVC633xzRquc5ZtBnqQoeS5fbf0j7kEjP68y9vtlus1MNsg5UObwquMjKh5KViZbHj+0zA5hoeT7/ElYIDxAw5iXNqskxjsyl/dvMOO8c0WKSDoTDD742ZOo9h2AvdTDt8tg9m+neuttyjAcXPCbrEdfB7XCrNDb5JFzuD795vJ59TXeRJ+zR1A2aCE2Ro4yv9a29dawLwi5toBPt/wcAAP//xrz9VAAAMdZJREFU7X1ZcxzZld4BagcKQGEHSGwEwZ1sNnd2k71QksczUqt7NPZYcoQj5sF2hP1iP8kvngiHX2w/OPxg/wL7YWzPxDhmJDkkj0ZST7daTTY3kCBIAgQIYt+3QgGovfydm5VVBTBRKACFqqyqkwwit5s37/1u1pcnzz1LWWfX8Rhhuf3fbvFKW8pSV9iJ7+un1Xp7GT5oVE6/yOBc8lByK20del07rrmeGAXDS9TkrKOLjTfpSvN1OlF7kpxWJ5WXle94ZS5O+CMBWvGv0jdT39CT+Yf00tuH7trJWl6BVkcNmxCObpIN3WqraKNqRxXZrQ7Dcgc56LRUUHvVMTrm6aZjNd1kL7eRpcySqHIjuE4ji6/py8mf06+nfkIO2xGyWKrQZvXoJMppD4CGf6PC/wZdbblJp+pOqzpT8d8MbdLS5gr99chf0G9nviRrWQWwSN4zpVKKxSIUAg5cZ3fNMbp15A6d8JwEHjUY05RnJ/WibduxWIzmN+ZodPU1fTH9W3q1OkRr4XUqxz35/16WMrQ0EgtSKLJGnZUn6HzdRfqw/QNqcbeQY9v4rAV8NLY2Rr+e/JyGll/S7MY02Sz8LNrS3tKN57XF6SGnzYXy9rRl93QSQxYNR8njqKeemtPUXd9NLVUtary5X/lYorEo+cN+er7wgr6euksDq09oKbCMflfHm7P9OctHK/d3zy/+xZfqwrLiI1qiUNhLNfYq6vGcpWsg2vP156jaWQ1CS/9w7w/KzK/aD9EyyZSB0JzlVrKVl1N5efZ/DDaLg+ocjXSp6Rq93/o+VdgqyW5JYlUMRMujtBnaoOXAEj2YfUR9S300uPKKotEoleEFXAa6zXTJBdFaMMwOvEQsGO9MXyaZtJ8pKxoKUo2tjo7VnqUrrdfodD0EEUX+mWOQyb0yLROOhsjr99KThT76evouja7hJRhaA9FWZlqFacsVNdGGoxvksrggAbXQrdab9G7TJWqsbCIHCCWfy36IVkmJeOOzZBulCJpvLPnut18slbJEx1Lt7SMf0ve6PqUavJScKZJZsRAtS07BaJCGV4bxRfGU7s58TWvBNQrFwiAzK8g2s5dYLog2ijaFo4H4eGdvzFmyj4Y3yW2toXbPafqo/Q5dbb6Ml2sFvir2Jtnv95nbfl0A0uysb4YezT+mr2a/psXNeQrg689azr/XzMZke51m2S9SotXgjcZC6mPQASnw9tGP6DqktI6qdnJZXXnFf39EqzU5BpI4jCWmyDuGT0cbpNlb9EnXJ1SLT1aXzZm4XbEQLXcogi8EVt+8WhmCCuceDXuHaM4/i68Fp5JsE51Os5ELomUVGJNi9pcYVB6bVGmtoNaqTvq47Q6++q7klWh9QR8NLr6ie7O/o7uzX6Ln+JoC6e/lKyP7OGWnxqImWn5Io5AGYpBsbx29QzchqZ2oOUGV9sqMpZbswLy1loMQrVZTpjLX1vum24uCeFg/zBLdLRDt9499Qh5nDV5KxUm0LMEHI0HoSudpcGGQehcf0eDqoNIRMq0xDrstuSFavRXZHHNWQjHRblAlJNjWinb6uP1jSLT5I1r+yljFi69vvo++mf0t3Z//Ci+9GqhMWCg6jBeNjmtu1kVNtOqHAJINhOfpestHdKP1IzpXf55qMHmSOsmTG6iTdzk40SbrytYW64D5gS6DRHv7yC367Nj3MclUnKqDVMw2Q35ItitQH9yjh/MPaNI3igm3MH7gyRdMavnU7dwSbeqdD7qtkXYwsg6JtpKOVHZCdfBRXlUHrMpZ3Fii3tnH9GjuK3qyeBcTio0YB54gFqJNqE40DUpcj5JOnWJwLnkouZUNlYxGtAHo41boVM05ulh/la4dvUlNFU3QReZPTytEm5xsybXVwXaKikQjkGxDkGZf0bOFp/QQhMsz3ZDt4yqElGdy28VCtNsAOcDuOiYoJ31T9NXUV/R88SmN+4Yh0VaBaO1CtArX+HOorbbsGMNu8NwmDyW3skW0rKdVJkGOBpixnKA7HX+POqs7lbRm3MDDPypEax6i1Ud7YXOBhmHy9dXEF/TGO0KLwSV89dhBtjtPDAnR6ugdfL20uQz8h+lvx34Oa4NRTE761FdFOfAXiZbx3cKtW3aM0U/hUr1A8lByS69XL7PfNesdY5i5jcLescXVCN3jD+hs3Xlqgq1jvhYhWvMRbRjqgsVNNvl6iFnv+9S/+FiZFZWDbHdahGh3Qmbvxyd8k/iieEI/f/2/acG/RlZYQyTIZe/Vme6KotbRJtFm4/kVqoPi//e6fkAXGi9RZ00XJjzYbjKF3JMXHOqWTrR3J76m3oVH9MrbD8lJc1jIl+JfvZAgO+C1RLcxGfbZsc8ynAxjY/LtOjSebIEJFRxGMnVY+KvXf0ZfTv0d7HY9GJek7W7qQPCEXQg693p7DXXCeuT20W/TKdiAelzssJAk79RrMt1mqYnVGPz52jv3iL6Z+R1UCAswL4LlCuw4jZ8TdlgIxB0WjscdFj7a0WFhFA4Lfzv5GzgsDNDCxgyI3KmsPDJtY/bKmWcyjCfB2AJkcGmQHs/ep9/CGcYbDsAhpx4jsv25yh4Cua6pBIiWfyJl+NEvUCUcFa4d/RZdbtKcF2wwxs/HpFgAs93egJe+nrhLvZCe2AOGQC6WsvzpjfmhLoNhvBW6a2Xe1fk9RbTsSacvbOg/tvSGvpj8f/SriZ9A6qiH40TyvF6O10y0ocgqviKa6VLzbUy0XKceeOaxtxnfR1/YE4jNrH4y/OfQz31OMYWBMWmyCRrblNY7PNTp7qIP2r4Db7OzsPfN3DNMv6/Rmn/0AfzIB5Ze0v3pe/RyuZfm/QsYm53tOPlLKRTboG73aXqn/hLdhmdYc2ULXhhbJWEfvOrGfRP0+dQXqL+fpjHpZkO9mVg3GLX1oMd4vBnLKlsVtVf30IdtH9JlCCAV8EDL5W+CvyT4Gbg/8w09mLmrMPdHomSzetBCJtriINuSIdpwbBMPUBk1uVrpRst7dAd2g26YeTm2/SAO+gBncj2/wVl6ejD9gB7BZvDh3K8hqYXwOjAmmEzqzEYZlxU/uqozdLP1A5DYh7ChZbfPpHTJJDTvmwXR/op+MfYztNlHUbw0dlrwU4bdcg/davse3KAvw6332BaS5etCkBgZi8/hmvq7qS9pam0AZOfDGeMfGBN4m/sYnam/TO+3fQuuuMeVW7WxxLlTy3Y+zmTLs9/j3jF4J30OUnwCsp2EmSBbZby9KDLANRca3oeb94d0tfUq1bnqYGS/1TyMDe/nNxfp0QyPOSZ8Fu6CwPmLKn8L2+c2udroQtMtun7kJp2uO6N+Dwf9OthLj7QXrZd+PvpTNf4shMSASzqVzV7qN0vZEiBa1vSU4efJH8VhsmJy7HrL+/T3Oz+lpspGcsPNNNcL/ziZYMbwY369MkjDy08gXYRz3Yy37udk4/XK49Rde4KOe3oUyab+6LiNyqh8+QXcJHspDPdIzWvpraq0A3ixNeLFdhok2+7uoHpX/VsFmdgYiyFMhAwtD9Es3C4DiD2QjoHqISW31fTQydoz1OBqAqntPGH11g0zOMAvFI5N8HL5GQj3NS1vTuHzNo2jCN4JnTVn6Dja01nTqYz+U3HjW/LLdT24oQh8GPiNrr5I28cMmnnwImi3x9mI2BZnqQvxLVgSZyyz9dLKpIH8ZTfuHadfvPkruj93F89cNb6S+Gsgn6+gTFq+tzIlQbQMiSJbfCoFglP4lL1B3+n6h5CGupX3Uy4fLH14WF4L4e3thx2nD/7d2meSfjY/awt+ZBV2twqIsj0oCreI28iEwW1eD25SBFJ4bAdJT+uBhew2O1U4KsiBH892KS+1l0xu/H8Ds81scpVusVrtCGjjUp+5rIo4jIX7yiZH3NcA+rqThK3f2wX9v9PuShu0iF8qLMH5UR+rYcywcKCaCv6yg6t16tdLLtrGGM+tz9JTuEF/NfELerH0lBz2FhCtQz1ruWhDru5RWkQL64NgZBmfnh349LyiDPOPVXepBywfZMs/PCYVDqaBJyvvC+tOLfjkZcLdLpHpjVNkq9oMTzKW8tK5h6I+rsdqsUIpwnapO0spOhYRSM27uZyWqaA6FuWTv1M79fYeZM0SPL9YlNpgl/FhzBi7crRtp2eJsePgNdzH3V4mB2n3Xq7lQDpqfNTneu5UV4yFHy/W50vP6advfkozmChcC6xh4tGF5yS7Xyh7weOwypYM0WqfIlpQlgpM+DTgk+nTblggNFzUXHLTkMBhgS/1CgKligC/WOc3FugB1AV/MfQ/8XVHajKYib8YlxIiWn34YJIDUy8rZop/eOqf07XW21RX0bCjBKdfJWtBQBDIHgL8tTCw+BJmdF/Qr8b+DybAqmFpUFt0KgMdsZIjWp7ZD4VXEWVwDWZM30FA6lt0sfmS0lHt9MmngyVrQUAQODgCHEuCJ1V/Ofo39BjmjePeYRhgwNQNcQ1MoUM7eBffqqEEibYMOtEN6MrW6airXQW5/v3uT6kKWQtshzSx8hbqckAQKGEE2L12an2K/nLozxHX4Dl0sogBDJVBvs0bD3NISo5oGUyexInBzKscdqBnYDv42ck/oaOVWoqYwwRb6hYEBAGi0ZVRBFx/Ak/AX9Lk+iQmo+FuW+RzJCVJtPywK8+l8DIdqWil947+Hl2G+qC7+pj8DgQBQeCQEOAJMHZIeIR4Er8Z/xVN+EaQqmYdVg9u3JEtUnYx7TikduWi2pIlWh7UUMSvsi00V7bSd7u+S+8h3Q2bC4muNhePntyj1BDgcJQcpevX479EMs6/VnbVnNGjGM25to9tCRMt5sNgI1kO/3lrWYTutP8BXDo/hoTbnNdYtdsHSPYFgWJBgAOs359+CJOuewjs/VjF1WCi1aTZYumlcT9KmmgZEj360sXG6wh88h5dbbqMFMwHjwZlDLccFQRKEwGOZzGxNkF/8+YXyDo8SPOBOTh45C+oTq5HoeSJljPKhimEEIp1dBKBwT/t+QyeY0fFAiHXT6Lcr6gRmFqbpv75Z/Tz8Z/R3OZc3NKgOBIvZjJwJU+07ArIE2OcZLoZgcHvtH2bzjacQxSr9kzwkzKCgCCQBgGeAOOgQU+QC+wh4s0+XuolX3gD+llHfC5kZ7fsNNUW3KmSJ1p9xMJRPxLVuehC3btQIVylyy2XlVR7mL70+r1lLQgUKwIcRIcjdH05/ht4gd2j2cA84vfGQLRb4/UWa//1fgnRxpFg9YEVwSwaHI10pekKfXD0NtU761TIOx0sWQsCgsDeEFhEDF7Wyd6b5qSLzygIC66okmVLQ5LV0RKijSPB8WrZ5MsGsj3lOUVXG6/SmYYzKmNuuvB+OpCyFgQEgSQCHIFtFdG4RpHo8v7cA5DtS5rZmALFFl+s2WSvd94Sok3Bhj3GOGNuE6TaHk7v0f4xgjn3UCWCg6cL8ZdShWwKAiWPAM96cNCYkeU31DffR18hi8hyaJkC0SDmQng2pLSkWX4ghGi3/CwwLQbbWidiHnjsVfT+kQ/ofOM78BjrVjFatxSVHUFAEDBEgAO4eyHN9s4+or6lZ/Qc2SSCHCQeagOOS1yKixCt4ahHoEIgxEE4T+frL9IVpGLhoDNGWQcML5eDgkAJIsAOtGxlsAzvL7aZvT/zNVQGr2gmiASXMQ4ZU5oky4+CEK3BD4LNvTjLmNtWQyegQrjVcht5lTqpobLBoLQcEgQEAUaASZYl15GVEXo210e9i/dpGmnVI8QZE0pPXZD6VAjRpqKR2NasazntcqOzgc5Vn6KLTZfoeN0JLR0z0pbIIggIAlsR4NQ0M74Z6l/oo4fzD2h2c4Z8CBpDys12a9lS2xOiTTPi7DPmgmF1k82DVNI3kJb5Eh1xt6g03GJfmwY4OVVyCLBTAqsM+uf7Ecegl/qWn1IYEi7rZUshaMxuAy5EmwYhlmtZhVCGCbIeSLXna9+hy0cvI4V2I6J+OdNcKacEgdJCYNY3R8Mrr+nuzF0a9b2hxeAiNLJ66vLSVhvwkyBEu8vvga0QIrEg1dvrqNPdSVcRSrHb002tiPKVLlvsLtXKaUGgKBDgDM6ckv3F0gD1wSGhb/EpLQeXIc1yZDydaIuiqwfqhBDtLvApba16aCJUY6+GJcIlegcmX+fqTiuvMbultFwJd4FLTpcQAvzbWA+u0/z6DCTZ+/QIKoM5pKhhlQHHMpAliYAQbRKLHbf4gSKQra3cSjWOepDtaZh8XULgmQ7yOD3q+I4XywlBoAgR4N8ET35Nwozr6Wwv9S8/oze+UTj8IG84ZNliTRu+36EUos0QOTb5Ys1+DLmN2hFG8QzcdM83XKAON8jW5ZHMDBniKMUKH4EIJNYQUtJMw8JgYPklPZi+S1ObU7Qa8pKlzCkkazDEQrQGoOx0iN/iYfxzQLL1WN2Ih3ADnmMX6STMvhxQIYglwk7IyfFiQsAf0Ty/Hkzfp6cLT+jlSh/UBZg4hjlkOTLalrrNrNFYC9EaobLjMZZrNTUCP05t7nY66TlN70KNcMR9hGpdtUK2O2InJwodASVoQDXATgivlofpMeLLvvG+ppXgiiJZJtpiThl+kPETot0HehGkKo8gQIYDMTU5iy7HsD3beI66a7qVja1E+9oHqHKJ6REIwcKAI3K9WHpJD+ce0tDKC1ryL8H6RkuwKCS78xAK0e6MTdozHOkrGguoADS1jlq62HCFLjRcVKZflfZKkWzToicnCw0Bdq/lAN7PQLKP5x/S0/lHyt02qlQGpRmRay9jKES7F7QSZTUD7CikWqR3xAQAYYKsk054TtI78B5rc7dRHYKGc2jFUgwJl4BJNgoeAVYXcGzZuY0FqAlGIMk+oJFVBIqBGVc5p6MRnWxGYyxEmxFMxoWYRKMx5GZADFsrSLXeWY/sDDdgZ/sunaw9SWxjy/ESZBEEChWBCMwag7AweILEio9Asr0L92gDtrM2qAtiZWwrW85UXKjdy1m7hWgPDDW/8VmNgKDGZeWQZOuR3PE8XQPhcoJHj0Mz/TrwbaQCQSDHCLC6YCWwQuNr43BI+B31Lz4hX9ALT0mOX8AkWyYUm+GYCNFmCFS6YizZ8uQYu+ryw8mODGfqzkFn+w51VnVSrbNW5SOTLA3pUJRzZkGAJVSlk/V7aXRtFCZcj+kZXGvHfWNkV+oC9oa0iCS7hwETot0DWOmL4u2OzyxWI7AG14mMuqxGYNOvdyDhchAasUZIj6CcNQcCTLIBqAuGll5BZfCY7s5+Sd7gGrLXRkG0FcqUS9QFexsrIdq94ZWmNNMrSwJh/I/gYSTEsm2CRNsFL7IzyqnhaNVRpdsSyTYNjHIqrwgwyXK4wynfFPXCsmAQJlxjcK2NIEMCT3wlHRJEL7uXgRKi3QtaGZRlNQK7NTDhRmB3WGWtoraKDrreeo0uNJ6nGqgRHBYnbA/hD65k3wwqlSKCQA4Q4ImvjdAGvUa4w2eIK9u/3AvnhCnyI9YsB4mxIIC3SLL7Gwgh2v3htutV/EDGQLZMu1ZYHvRUH6MztWfhsnuJmhFiscJRoSwShGx3hVIK5AiBdWRDGFkZgglXLzIkPCRf2KdsZctiWpAYeVb3PxBCtPvHbtcrlcMupARWJXhsVSDYJtjanqXjnuPUUd1J1Y5qckG6FVXCrlBKgUNCQBMIYrTqX6VJ3yRMuB7SwOoAInGN4Y5aQkWOKyvLwRAQoj0YfhlfHY4GlMVhrQqzeJYuN1+B/rZDWSSwTaIEpMkYSimYRQR0O9mhpSF4e/XRvfm7tBhY4qS1oFfoZPFPloMjIER7cAwzqoFtbVl6sFosVGv3IENDE8IsvoP4CMexfYScNidmdG0Z1SWFBIFsIBCKhhG7YIUmfBP0eO4xPV96rmIXcCZbgk04qwpEXZANpCWVTXZQzLAWJtqoSr5cpmIk9HhOKKLtqu6m5spmqkPMBCfMwES6zRBQKbYvBNilNoz5g6XNJdjJjtHzxX6EOnypVAesLuCg3RIgZl/Q7niRSLQ7QnN4J5huOWODHZYHtfZa6qjsgjfZBTpZf4qaKhphlSBpQA4Pfak5DEl2M+yHZUEfPUE82d6FXlgW+GHCFcVLnvWxbKooSzYREKLNJpoZ16WmIPA4x8gO28QKi4uOwF23s7qLTiEwTWtlC3S3dWSziO42Y0il4K4IsCTLoQ5nN+ZoxDtKfQtPsX5N85tzsJDB5SoIkuhkdwVyHwWEaPcBWjYvYXtbnihzWSsRlKYBJmAn6XhNj3J0qEGchAqbSwWnEcuEbKJeenVFELCbMyOs+peRfgYeX4t9NOQdouUA0oInzLeEZA/ryRCiPSxkM64X0i3EiVhZDE4MZeRCMPFGZzO1Q51wuvY0dcEMrLmqSbnviu42Y1Cl4DYE1gI+hDacof75p9DHvqDhtdewkWUvxpioC7ZhdRi7QrSHgeo+6oQvmZooi+HhZ1VCDXS3nUiV0wETsDYmW1gp1MGrzAkJV0Iv7gPgEr2EVQXsiDC6MkrDkGSfL/fD22ualpF+RjIj5O6hEKLNHdYZ3AnTZMrBAe67UClUQLqtdzTQ0cpjdK7+DJ2o66EGEC5bJiiyxZyFmN9kAGsJFmGVK8ctWENWhMn1aXoy84D6oZOd8k9TAM+WpcwOlSzn+JKJr1w8HkK0uUB5T/dgVYJmc8saM1u5BbnJnFSPxI9HKlvpePUpaq/uoJZKtr11KNtbUSnsCeCiL6wmvZDXbmZjnl6vvqbnINgxhDtcwH6IX+RMr3E72aIHwyQdFKI1yUAYNYPNwJSEC3WCDaZgVTY3UuZ0IVVOBx2FlcIRdysk3jqVEJKzOUgYRiMUS+sY27OwqmAJ3l3PFwdoAPaxr5ZekC/kg8UBJFl8JYmNbO6fCSHa3GO+jzvG4OYQwU8oghniKEjXSW5bDd1oukanak9RswvmYJB43Y7KfdQtlxQLAkyy7FI7sTaBTLUvkBXhHo163yC27IZSFbBOVmxk8zPaQrT5wX3Pd+WpMs3RQX344YdjBcHWwiSsjqrtTchRdgIWCh1UjeA1LluFmjRjlYLo4PYMdUFewE4IvqCPRhEYZgDZEPoXH9Pc5goicG0qqxbWx2rOCAXZvYJvtBBtAQ4hEy5nc4hE1tH6MrJaq+kc7G9PIW5Cg6uZmuDw0IRQjDaoEzhgjRV6XrbDFdItwMHepck84RUBya5i0muao2/NP6GXS3BEWBvAuHPae85UK9G3doHx0E8L0R46xId1g+SkWRQ2uE6C0wN+UC7HUToBdcIFpM+phf6Wk0NyOEalw5Uf3GENRt7q9UNiXfWv0MvFF5j0egaVQS95w+sUUbpY7QUr6oK8DU/ixkK0CSgKcYOdeFm+DSN0An8ihqjc4oZKoYHaKpvI42ykJlcrJs2OQKfrpkr8d0O14LTCWgHSriyFiwBbFqwGV2kWplsjsI8dXEYM2dVhWsAkGBIp4StH9PVmGl0hWjONxgHawmoBJt0whZRKIRZZg1tvPVQIbdQDlUKtvZ7qXI0wDWuDqVg99LpVSp2g9LiiVjgA8rm/lNUFQSRPHPGO0AtE3uqdvQdTrglIsj68QGuhLpCUM7kflfR3FKJNj0/BnWWy5RQ6xP+hKrBDP1sB0zAHrBSqoEroch9VLr51iKtQba+B1OuhGkcN9LlWmP7whIlMoJl10NXXC0h2cWMRlgVjSJ74mIZXX2HSawrutGwKiDDdYllgyuETojXlsOy/UfqEF3sGRSDfRmNBqBX8iONsI4e1ghoRdNwD994qex01gGwboGZoqmyEWqESAWz4vxthGnkSzaomz3gSTRwi9j8e2bqSzbb8CG24gkDdIyvD9HL5OQ0sDYBkZ+GEwPaxnDzRrr5qsnVPqSd7CAjRZg9LU9fEVgpKlwviZTJm87AaSLi1kGYbQL51SI1eD3vcNlYtOOtBxG5FsOwEwdYL4qiZ3+HdwKTXwuYC9c/1IRNCHxwRntMmonFxGnAbYmPIYm4EhGjNPT5Zah3TJJuEsTUuqxWwC0mV492yasHJ1gowEasC4dZX1FOtrRpBbdxUgf1qZH2oddYgqhhPoDlUUPJypWIAXUPNoGLxYy1L9hFgXWwAZLoe3FCOB68hyQ7C02sWUuwqgsLwpJdKn4iXpizmRkCI1tzjk/XW8U+TeZbZVlMthCiGCE88gWIDmVYgYE0lrBIqQarVzhZIuo1IswN9Lmax3VAtuDCJ5rS6EH8BpMs2ukzW+M8/eGWrmzKxpvnTZ70LRV+hrovdDG0iXuwKTfmmMenVR4NLL2l6c5qCUBXweEk2hMJ5FIRoC2esst5S/kEr8RYrzaEBMXEh8yrpF39tFniY4bOUo4hV2PAfBGvHpFodIoo1Qb9bi+1qRxUm2apAuHblR2/nSTVIyGWYgGNnCYtIu3setzDUPIFwgCa9EwhtOEz9K/00tT6BxImLeDnymOFLQtlEi0Jnz+Dm6QIh2jwBb6bbJqVcdu+FLpe9zuIBoVk5wH5FVgQlZw8zts90Q7VQZ8OEGoi3Etl7OWyjHaTMk23V9mqoHCpxHKQMgraz5AsJmevQyYGtG1htoQgZErAsGgKaqiCoHBBmEWlrCJNdr73DNLo+rgLFBKNBhaEkTyy8J0aItvDGLKctZqlXufvCGYIJuAyTYzyRBsolWxmS+SkJiyD5MrlWU4OjiRqgaqiH2RiUCpCCK6naVa2sGKy4rhz/mYh5so1VDnxsu8ohpx00yc3YASEA29hleHmNIp/XK5Dsi+VnNOOfJT9bFeCf9sozSYOlGXtCQIh2T3CVZmGNbFmloHQMCgR4/YIgY5CAtYWlUyv0hnYLJFwQqAMqBJaGrVAd2C3sCuqAeqECk2ywcoDqoQFOE26WjqHzZTtet8ONYDjOeG2lt/JyrAIkTeR8Xm+QMHEcUbe88PzyI5+cFkaIvzt0tEsPn0LvsRBtoY9gHtqvdLuYEd9pKVPUwLpEkDFvQyKLgmgt5Zyipxp2vDXKrMwFUvbAxIyD4DTDZZjJl+152T24FGx3k1YF6zTuG0eQ7hGYbb1Sub1W4EqrAcj0KlYdGhiF+1eItnDHzuQt14iWpWBWPST2oOuFBwWVwZOJVQZVmFBrqWyj7upj1O05hgwSx5WEy3rdYl4YjxBUBQubizS8NEzPlp/S4OogVAeLFIYagZ0PZCkeBIRoi2csTdoTpXhItC2hhohLxFZYJvBkWjV0to3wUutyH6eTdScRgeyk8lBTudESVxfHBscp2AhtQEUwCi+v13CjHVQJE5cCyyBZ/lLQrQqKo7/SCyIhWnkK8ooAT7CFoYdkh2E7Jtoana10pfka3W77EGZktTArcxWNbpLdaEOREC36l2AbO4Vkif00DFXB1MYoBWDLHIWXlxVWGmxVIEtxISBEW1zjWZC94Rl3zXY3DJXCBrJFnKfrrXfoTD3S9CDrrx1Sb6EvrI/dhBvtDLy6+uae0IPZb1Tcgo3wBqTYCLrH5MpOH0KyhT7WRu0XojVCRY7lFAHdjpfj6YYjPsRcaKIuz2m6c/RjOunpURNkrM8txCUCgg1BWuU4BSzFjqwMwI12kIaQnZbP8XQhm7xpBFuYfSzEccl1m4Voc4243C8NAghiDumOIzI4rHb6R90/pKtIQFlX4SlIKwSWYv2IVcCmW/1Ilti/0IeJr15aDnqJQ/twkk0mWVmKHwEh2uIf4wLrIYKXIxeatSxCPzrxJ3St+X2qq6wrKKJlVUgYJm3ewBqNro3Sk/leGl97g5CGM2oSjK0K2NmZpVixjS2wx3OfzRWi3SdwctnhIRCOeMkS26QfnfxndL3lNoi2viCIlukzHI0g2pYPZlrLyEj7hl5BTcCTXl5E2/JH/TDbcigplm1jubwspYGAEG1pjHNB9TJJtP80TrQNBUG0bFWwgYhbo6uj9HLhOT1cvEeT62MgX47zwEF3eFJP9LAF9TBmqbFCtFkCUqrJHgKFRLQslSpdLAh2CWZbL2GuNYzsB6MrL2ghuEYbMOeC0ZYmxYpFQfYekgKrSYi2wAasFJpbKETLBMsRtTjFzNz6DCTZN/Rg4RGNrw4gr9cEWW31kGIrQLKWuJJAVAWl8Pwa9VGI1ggVOZZXBJJEa14dLUuyGyBYjhE7uTZBzxafIuLWSzgjIFFiBLoCdqHluLwqbmxe4ZSbmwABIVoTDII0YSsCYaRKt8b8ajLsWsstU1kdsBTL4QzZhXYCgWDGIcUOewdoYn0aVgULsJgIKDUBB9CRya6t41rKe0K0pTz6Ju07Oy3YkNvsh6cwGdb8HtWawI5W18WyCy3HjJ3ZmFEeXgNLz2jE90KLToYwkIjSq0y2hGRN+nDlqVlCtHkCXm5rhADoCRIjppfIhVCJf3ziH8Nh4SrVOKshJebHNVUn2CAI1gezrXHvGI3xf98oJNpR5PRagGutH2YFHNpRI1mjnsmx0kZAiLa0x99UvVekBndVB1LkcF6yz7q/T+80XFDZGPLhgqsmu5SagJMkLqk4sa+WB2hsbQwS7Syth73KMaFc2cZCHyu2saZ6nszUGCFaM41GibeFpdlQdBMBwJvpWM0p+nbbR4h1cJycyLyQaw8qPV7sKtxnZ9ZmYbI1CF3sICTZEVoNrSHaVhiRtliKZRdasY0t8Ud31+4L0e4KkRTIDQJIg85hBKPr1ObupAt1l+jGkevUWdWh4h7kkmg5A+16cAMxYqdoAhYF474xBISZpHlE3lpHtK0Q3GtjCGmYDAaTG4TkLoWLgBBt4Y5dUbWciZQDyoTgfttTc4JuNH1AF5ovUKu7FcFX7IcuM3J8Avbs4qDc7D4765ulIbjPvoEb7eTGJFxovUgBDhdaeHeVcbQtFdawqIZAOnOICAjRHiK4UnXmCGhEGwbRLdEZz3m61fodOtt4hpoQj9aKgOCHvTDBrgfWaWptCo4HIzTiHaLJzUlE2lqh9ViQoNVA7jOoCBCuMZfS9WH3W+rPDQJCtLnBWe6yCwKKaOFlFQjP0cX6K3Sn7VPqqeuh+orDjdzFsWLXQ+u0iNxds75pJEgcVmqCWUx2rYXXEAgmCNMtjrLFOX3zY/mwC3RyugAQEKItgEEqhSZqRBugQHCKriI04u93/ojaPR3kgWlXthe2bmBVAf/3Ih7BFJwNRhGIe3j1Fb2GumA15IMeVnOXZYIV765sj0Dp1SdEW3pjbtoexzDJFIqu0nst79Mnnf+Amtwt5EbSxmwvarILnl2L/gVMdo3TAEy25hErljPQeiHdhpQtr2ZJoKkJxKog22NQavUJ0ZbaiJuyv7A4gJMC5w2zlEUV0X63/RMVh7bCVpG1FodhkuUL+GgBUbZmN+YgyU7A6WCMRpGNdiPsg344gBZAPRBXFWTtxlJRySMgRFvyj0C+AWCZsQwOtyGYS5WRx1pN15uu0532b1Gdq5ZcyIKbrWU9uE5Di0PI2TVErzDZNY0AMKuhVWVtUB5jDawlW7eSegSBLQgI0W6BQ3Zyj4BGtCFkVLCXW6ijogvpa27Q+0feJ7ejkuxwxT3IEmJrAhDsJOxgWXJ94x2GfewMpNplTHQFoCbgDLScf1bSyhwEZ7k2PQJCtOnxkbOHjkCcaBGxy2Wx0dnaS5gMu06XWy6T0+rYl2lXNG4Tuwk97HJgmeYRK/bF4guVVmbWj7xdKsV3DHVraWUOvYtyg5JHQIi25B+BfAOgEW0wvEpuq5UuN32I/1fpfNN5ckCatewjniuHMfRBiu2b76NXyy+Ru2uIVgOr8OrahJqAbQ54coutCXgtE135fgJK4f5CtKUwyqbuo060KyBaG8IifkSXmq/R2YZzUBvYMibaCJIiboJIF2E5ML0+BVXBBI0gVuy0b4qWgogTi/NMsGyqpWWfFZtYUz8WRdY4IdoiG9DC685Wor0KiZaJ9lzjuV0lWt0elqNscSDuBVgSPEdSxGdLT5G7qx+mYhq5WtiFlwkWUqwsgkA+EBCizQfqcs8UBDSiDSHYt9NipVPVZ+lKy3W6duQGuRAu0WbgfpuISwCvLi+ia81icuvVYh8kWNjDwnRrDaS7jvixmoqApVh9okvUBCnAy2YOERCizSHYcitjBJhqI3B1tYIHG+weuth0GZG7PqB6Zx3IFiESIY1q0mtUBZ7hQNteBOFe8M/TPEh2Bvaww/Domoa6QFkRIAA3p5JhghUdrDHmcjS3CAjR5hZvuduOCHCYxCBybi3RCUi116Cr7apphy0tMskisDYolsJhZJyNrNPM5jyNIHxh/+Ijml0fxTU+8CmyzTK5IpkMGHbHu8gJQSAfCAjR5gN1uacBAiBH2LRGEPi7Ck4KDY468rgaqMLmIavFCWuBAEUimxRCVgNfaBOOBn6Ybq2qCTBcqKWR4RCGSg/LRCupvQ1AlkN5QkCINk/Ay22NEWA1AkuooagXgqkTKgD+74I866coSDgKV1llPQAbWGt5JQjWif+sWuBFyNUYVTmabwSEaPM9AnL/txFQQV1gMQCb1ygLulAF8HSWshmIckwEHMQxdUTpYd+uQo4IAmZCQIjWTKMhbYkjwJ/+LJ+yeRb/S3WRZYLVFu1MfEdWgoCJERCiNfHgSNMYASZWju7FdCuqAXkmChMBIdrCHLcSazXLsEKyJTboRdVdIdqiGk7pjCAgCJgRASFaM46KtEkQEASKCgEh2qIaTumMICAImBEBIVozjoq0SRAQBIoKASHaohpO6YwgIAiYEQEhWjOOirRJEBAEigoBIdqiGk7pjCAgCJgRASFaM46KtEkQEASKCgEh2qIaTumMICAImBEBIVozjoq0SRAQBIoKASHaohpO6YwgIAiYEQEhWjOOirRJEBAEigoBIdqiGk7pjCAgCJgRASFaM46KtEkQEASKCgEh2qIaTumMICAImBEBIVozjoq0SRAQBIoKASHaohpO6YwgIAiYEQEhWjOOirRJEBAEigoBIdqiGk7pjCAgCJgRASFaM46KtEkQEASKCgEh2qIaTumMICAImBEBIVozjoq0SRAQBIoKASHaohpO6YwgIAiYEQEhWjOOirRJEBAEigoBIdqiGk7pjCAgCJgRASFaM46KtEkQEASKCgEh2qIaTumMICAImBEBIVozjoq0SRAQBIoKASHaohpO6YwgIAiYEQEhWjOOirRJEBAEigoBIdqiGk7pjCAgCJgRASFaM46KtEkQEASKCgEh2qIaTumMICAImBEBIVozjoq0SRAQBIoKASHaohpO6YwgIAiYEQEhWjOOirRJEBAEigqBt4n2v94iKov3Mb7WVvirH0+FYHsZPmdUTr/G4FzyUHIrbR16XbIWBAQBQcDsCMSIvviXX6pWlnV2Hccu0Xv/+SZZHBat6XHe01b4m8KDWgH83V6GTxiV0y8wOJc8lNxKW4del6wFAUFAEDA5ApFAhL76179TrUwQ7dV/d5WcDQ6t6XHe01b4m8KDib5tL8MnjMrpFxicSx5KbqWtQ69L1oKAICAImBwB/0KAvvnTb1QrE0R7/l+dJ8+JGq3pcd7TVvibwoOJvm0vwyeMyukXGJxLHkpupa1Dr0vWgoAgIAiYHIGVwVV6+l+eqlYmiPb4H3dT64etWtPjvKet8DeFBxN9216GTxiV0y8wOJc8lNxKW4del6wFAUFAEDA5AlOfT9HQ/xpWrUwQbdONRjr5T05qTY/znrbC3xQeTPRtexk+YVROv8DgXPJQcittHXpdshYEBAFBwOQIDPz3AZr9ek61MkG0zjonXf33V7Smx3lPW+FvCg8m+ra9DJ8wKqdfYHAueSi5lbYOvS5ZCwKCgCBgcgS++bf3yb/oV61MEC3vXfzxO1TVUZUgTI3+8DeFBxN9ix9LlOETRuX0CwzOJQ8lt9LWodcla0FAEBAETIzA2ugaPf6PvYkWbiHatm8fpa4/7EoQpkZ/+JvCg8krta1EGd41KqdfYHAueSi5lbYOvS5ZCwKCgCBgYgRG/nKExn85kWjhFqK1uW104z9cJyrXzmv0h78pPJi8clsZ3jUqp19gcC55KLmVtg69LlkLAoKAIGBWBOCZ8PWP71LIF0q0cAvR8lFlffCRZn2g0R/+pvBg8kptK1GGd43K6RcYnEseSm6lrUOvS9aCgCAgCJgUgVRrA72JbxFtYlIM3KfRX2JDv0Zbx7kxUYaPxo9tLRjfMziXPJTcSluHYcVyUBAQBAQBkyAAafabP01Ogumteoto+UTHH7RTx/c6hGh1lGQtCAgCgkAGCIz+dJRG/+/YWyUNiZZLvftvLsICwY0tSJspAmeihvgxbbVlJ1Fky4ZBHclDyS3De22pSHYEAUFAEDAfAtstDVJbuCPRukGyl358ESQLEkzhwcTF8WPaastOosiWDYM6koeSW4b32lKR7AgCgoAgYDIEoDJ49J8ek2/UZ9iwHYmWSzffZG+xU0K0htDJQUFAEBAENARSvcCMMElLtHwB29Ye+6Njb18bF0K11Zadt8vykXiR1JPJQ8kto3Kp18i2ICAICAJmQmC7zaxR23YlWr6o/TtwZPjBsa3Xx7lRW23Z2VpO34sX0Xd5nTyU3Eo5mFpUtgUBQUAQMB0CmZAsNzojouWCzTebtKAzOifG19pqyw4Xf3vRr0s5kzyU3BKiTQFINgUBQcCcCEAnO/A/kkFjdmtkxkTLFbk73dTzo+PG8RC4QApf8u6WxeBc8lByK20dWyqUHUFAEBAEco8AWxe8+rOhHSe+jFq0J6LVK+j8boeys2VS1CgyTpQpfKmXTawNziUPJbeEaBOIyYYgIAiYCQFIsaM/M7aT3a2Z+yJartRZ76Q26G6PcLBwNgHjJYUvtQMpfw3OJQ8lt9LWkVKdbAoCgoAgkBMEQLBTfzdFE7+cTIQ93Ot99020+o04EE3LzWZquNpAVZ0IsbjTksKlepHkoeSWEK2OjqwFAUEgnwiwimDhwQLNfD27JUDMftp0YKLlm+o06YCUW3OyWhFuRWslcdwEW5WVLHZk141HBEttpH5dsoaUylILyrYgIAgIAoeBAKTVSDBCobUw+Zf8tDG1Tkywq4PefUuvRs3MKtEmVAhGd5JjgoAgIAiUKAL/H1+mc0IUYcefAAAAAElFTkSuQmCC;" parent="1" vertex="1">
                    <mxGeometry x="345.5" y="256.79999999999995" width="59" height="61.39" as="geometry"/>
                </mxCell>
                <mxCell id="19" value="" style="group" parent="1" vertex="1" connectable="0">
                    <mxGeometry x="340" y="80" width="69" height="102" as="geometry"/>
                </mxCell>
                <mxCell id="3" value="" style="outlineConnect=0;dashed=0;verticalLabelPosition=bottom;verticalAlign=top;align=center;html=1;shape=mxgraph.aws3.lambda_function;fillColor=#F58534;gradientColor=none;" parent="19" vertex="1">
                    <mxGeometry width="69" height="72" as="geometry"/>
                </mxCell>
                <mxCell id="8" value="Lambda" style="text;html=1;strokeColor=none;fillColor=none;align=center;verticalAlign=middle;whiteSpace=wrap;rounded=0;fontSize=13;" parent="19" vertex="1">
                    <mxGeometry x="4.5" y="88" width="60" height="30" as="geometry"/>
                </mxCell>
                <mxCell id="20" value="" style="group" parent="1" vertex="1" connectable="0">
                    <mxGeometry x="480" y="80" width="80" height="108" as="geometry"/>
                </mxCell>
                <mxCell id="15" value="" style="sketch=0;points=[[0,0,0],[0.25,0,0],[0.5,0,0],[0.75,0,0],[1,0,0],[0,1,0],[0.25,1,0],[0.5,1,0],[0.75,1,0],[1,1,0],[0,0.25,0],[0,0.5,0],[0,0.75,0],[1,0.25,0],[1,0.5,0],[1,0.75,0]];outlineConnect=0;fontColor=#232F3E;gradientColor=#4D72F3;gradientDirection=north;fillColor=#3334B9;strokeColor=#ffffff;dashed=0;verticalLabelPosition=bottom;verticalAlign=top;align=center;html=1;fontSize=12;fontStyle=0;aspect=fixed;shape=mxgraph.aws4.resourceIcon;resIcon=mxgraph.aws4.dynamodb;" parent="20" vertex="1">
                    <mxGeometry width="66.76363636363634" height="66.76363636363634" as="geometry"/>
                </mxCell>
                <mxCell id="16" value="DynamoDB" style="text;html=1;strokeColor=none;fillColor=none;align=center;verticalAlign=middle;whiteSpace=wrap;rounded=0;fontSize=13;" parent="20" vertex="1">
                    <mxGeometry x="5.220769230769232" y="89.99999999999999" width="61.538461538461526" height="26.99999999999999" as="geometry"/>
                </mxCell>
                <mxCell id="21" value="" style="group" parent="1" vertex="1" connectable="0">
                    <mxGeometry x="-10" y="77" width="209" height="120" as="geometry"/>
                </mxCell>
                <mxCell id="6" value="" style="sketch=0;points=[[0,0,0],[0.25,0,0],[0.5,0,0],[0.75,0,0],[1,0,0],[0,1,0],[0.25,1,0],[0.5,1,0],[0.75,1,0],[1,1,0],[0,0.25,0],[0,0.5,0],[0,0.75,0],[1,0.25,0],[1,0.5,0],[1,0.75,0]];outlineConnect=0;fontColor=#232F3E;gradientColor=#FF4F8B;gradientDirection=north;fillColor=#BC1356;strokeColor=#ffffff;dashed=0;verticalLabelPosition=bottom;verticalAlign=top;align=center;html=1;fontSize=12;fontStyle=0;aspect=fixed;shape=mxgraph.aws4.resourceIcon;resIcon=mxgraph.aws4.eventbridge;" parent="21" vertex="1">
                    <mxGeometry x="65.5" width="78" height="78" as="geometry"/>
                </mxCell>
                <mxCell id="9" value="EventBridge" style="text;html=1;strokeColor=none;fillColor=none;align=center;verticalAlign=middle;whiteSpace=wrap;rounded=0;fontSize=13;" parent="21" vertex="1">
                    <mxGeometry y="90" width="209" height="30" as="geometry"/>
                </mxCell>
                <mxCell id="22" value="" style="group" parent="1" vertex="1" connectable="0">
                    <mxGeometry x="190" y="77" width="110" height="120" as="geometry"/>
                </mxCell>
                <mxCell id="5" value="" style="sketch=0;points=[[0,0,0],[0.25,0,0],[0.5,0,0],[0.75,0,0],[1,0,0],[0,1,0],[0.25,1,0],[0.5,1,0],[0.75,1,0],[1,1,0],[0,0.25,0],[0,0.5,0],[0,0.75,0],[1,0.25,0],[1,0.5,0],[1,0.75,0]];outlineConnect=0;fontColor=#232F3E;gradientColor=#945DF2;gradientDirection=north;fillColor=#5A30B5;strokeColor=#ffffff;dashed=0;verticalLabelPosition=bottom;verticalAlign=top;align=center;html=1;fontSize=12;fontStyle=0;aspect=fixed;shape=mxgraph.aws4.resourceIcon;resIcon=mxgraph.aws4.api_gateway;" parent="22" vertex="1">
                    <mxGeometry x="12" width="78" height="78" as="geometry"/>
                </mxCell>
                <mxCell id="10" value="API Gateway" style="text;html=1;strokeColor=none;fillColor=none;align=center;verticalAlign=middle;whiteSpace=wrap;rounded=0;fontSize=13;" parent="22" vertex="1">
                    <mxGeometry y="90" width="110" height="30" as="geometry"/>
                </mxCell>
                <mxCell id="24" value="" style="group" parent="1" vertex="1" connectable="0">
                    <mxGeometry x="326" y="-90" width="98" height="113" as="geometry"/>
                </mxCell>
                <mxCell id="17" value="" style="outlineConnect=0;dashed=0;verticalLabelPosition=bottom;verticalAlign=top;align=center;html=1;shape=mxgraph.aws3.cloudwatch;fillColor=#759C3E;gradientColor=none;" parent="24" vertex="1">
                    <mxGeometry x="10.86320754716981" width="76.27358490566039" height="85.4390243902439" as="geometry"/>
                </mxCell>
                <mxCell id="30" value="" style="edgeStyle=none;html=1;" parent="24" source="18" target="17" edge="1">
                    <mxGeometry relative="1" as="geometry"/>
                </mxCell>
                <mxCell id="18" value="CloudWatch" style="text;html=1;strokeColor=none;fillColor=none;align=center;verticalAlign=middle;whiteSpace=wrap;rounded=0;fontSize=13;" parent="24" vertex="1">
                    <mxGeometry y="85.4390243902439" width="98" height="27.5609756097561" as="geometry"/>
                </mxCell>
                <mxCell id="23" value="" style="edgeStyle=none;html=1;" parent="24" source="18" target="17" edge="1">
                    <mxGeometry relative="1" as="geometry"/>
                </mxCell>
                <mxCell id="27" style="edgeStyle=none;html=1;entryX=0;entryY=0.5;entryDx=0;entryDy=0;entryPerimeter=0;" parent="1" edge="1">
                    <mxGeometry relative="1" as="geometry">
                        <mxPoint x="480" y="107.81818181818187" as="targetPoint"/>
                        <mxPoint x="408.9999999999998" y="107.94054286945288" as="sourcePoint"/>
                    </mxGeometry>
                </mxCell>
                <mxCell id="28" style="edgeStyle=none;html=1;entryX=0;entryY=0.5;entryDx=0;entryDy=0;entryPerimeter=0;" parent="1" source="6" target="5" edge="1">
                    <mxGeometry relative="1" as="geometry"/>
                </mxCell>
                <mxCell id="35" style="edgeStyle=none;html=1;entryX=0.5;entryY=0;entryDx=0;entryDy=0;" parent="1" source="8" target="13" edge="1">
                    <mxGeometry relative="1" as="geometry">
                        <mxPoint x="375" y="240" as="targetPoint"/>
                    </mxGeometry>
                </mxCell>
                <mxCell id="36" style="edgeStyle=none;html=1;exitX=0;exitY=0.75;exitDx=0;exitDy=0;exitPerimeter=0;" parent="1" source="15" edge="1">
                    <mxGeometry relative="1" as="geometry">
                        <mxPoint x="410" y="130" as="targetPoint"/>
                    </mxGeometry>
                </mxCell>
                <mxCell id="37" style="edgeStyle=none;html=1;entryX=0.5;entryY=1;entryDx=0;entryDy=0;" parent="1" source="3" target="18" edge="1">
                    <mxGeometry relative="1" as="geometry"/>
                </mxCell>
                <mxCell id="39" style="edgeStyle=none;html=1;entryX=0;entryY=0.5;entryDx=0;entryDy=0;entryPerimeter=0;" parent="1" source="5" target="3" edge="1">
                    <mxGeometry relative="1" as="geometry"/>
                </mxCell>
                <mxCell id="42" value="" style="shape=image;verticalLabelPosition=bottom;labelBackgroundColor=default;verticalAlign=top;aspect=fixed;imageAspect=0;image=data:image/png,iVBORw0KGgoAAAANSUhEUgAAAuwAAALwCAYAAADMNCAcAAAMP2lDQ1BJQ0MgUHJvZmlsZQAASImVVwdYU8kWnluSkJCEEkBASuhNEKkBpITQQu8INkISIJQYA0HFji4quHaxgA1dFVGwAmJH7CyKvS8WVJR1sWBX3qSArvvK9+b75s5//znznzPnzr1zBwCN4zyJJA/VBCBfXCiNDw1kjkpNY5KeAgKgADqwAVQev0DCjo2NBLAMtH8v764DRN5ecZRr/bP/vxYtgbCADwASC3GGoICfD/F+APAqvkRaCABRzltMKpTIMaxARwoDhHi+HGcpcZUcZyjxboVNYjwH4lYA1Kg8njQLAPolyDOL+FlQg94LsbNYIBIDoMGE2C8/f4IA4nSIbaGNBGK5PivjB52sv2lmDGryeFmDWDkXRVELEhVI8nhT/s90/O+Snycb8GENKzVbGhYvnzPM283cCRFyTIW4R5wRHQOxNsQfRAKFPcQoJVsWlqS0R434BRyYM6AHsbOAFxQBsRHEIeK86EgVn5EpCuFCDFcIOllUyE2EWB/i+cKC4ASVzUbphHiVL7QhU8phq/izPKnCr9zXfVluElul/zpbyFXpY/Ti7MQUiCkQWxaJkqMhpkPsVJCbEKGyGVmczYkesJHK4uXxW0IcLxSHBir1saJMaUi8yr4sv2BgvtjGbBE3WoX3FmYnhinzg7XyeYr44VywS0IxO2lAR1gwKnJgLgJhULBy7tgzoTgpQaXzQVIYGK8ci1MkebEqe9xcmBcq580hdisoSlCNxZML4YJU6uOZksLYRGWceHEOLzxWGQ++BEQCDggCTCCDNQNMADlA1N7T2APvlD0hgAekIAsIgaOKGRiRougRw2sCKAZ/QiQEBYPjAhW9QlAE+a+DrPLqCDIVvUWKEbngCcT5IALkwXuZYpR40FsyeAwZ0T+882Dlw3jzYJX3/3t+gP3OsCETqWJkAx6ZGgOWxGBiEDGMGEK0ww1xP9wHj4TXAFhdcBbuNTCP7/aEJ4QOwkPCNUIn4dZ4UYn0pyijQCfUD1HlIuPHXODWUNMdD8R9oTpUxvVwQ+CIu0E/bNwfenaHLEcVtzwrzJ+0/zaDH56Gyo7sTEbJQ8gBZNufR9Lt6e6DKvJc/5gfZawZg/nmDPb87J/zQ/YFsI342RKbj+3DzmAnsHPYYawRMLFjWBPWhh2R48HV9Vixuga8xSviyYU6on/4G3iy8kwWONc6dzt/UfYVCifLv9GAM0EyRSrKyi5ksuGOIGRyxXynYUwXZxdXAOT7i/Lz9SZOsW8gem3fuTl/AOB7rL+//9B3LvwYAHs84et/8Dtny4JbhzoAZw/yZdIiJYfLL/J9SwO+aQbABFgAWzgfF+ABfEAACAbhIAYkglQwDkafDde5FEwC08BsUArKwRKwEqwFG8BmsB3sAntBIzgMToDT4AK4BK6BO3D1dIEXoBe8A58RBCEhNISBGCCmiBXigLggLMQPCUYikXgkFUlHshAxIkOmIXOQcmQZshbZhNQge5CDyAnkHNKB3EIeIN3Ia+QTiqFUVAc1Rq3R4SgLZaMRaCI6Fs1CJ6LF6Fx0EboarUZ3og3oCfQCeg3tRF+gfRjA1DE9zAxzxFgYB4vB0rBMTIrNwMqwCqwaq8Oa4XO+gnViPdhHnIgzcCbuCFdwGJ6E8/GJ+Ax8Ib4W34434K34FfwB3ot/I9AIRgQHgjeBSxhFyCJMIpQSKghbCQcIp+C71EV4RyQS9Yg2RE/4LqYSc4hTiQuJ64j1xOPEDuIjYh+JRDIgOZB8STEkHqmQVEpaQ9pJOka6TOoifVBTVzNVc1ELUUtTE6uVqFWo7VA7qnZZ7anaZ7Im2YrsTY4hC8hTyIvJW8jN5IvkLvJnihbFhuJLSaTkUGZTVlPqKKcodylv1NXVzdW91OPUReqz1Fer71Y/q/5A/SNVm2pP5VDHUGXURdRt1OPUW9Q3NBrNmhZAS6MV0hbRamgnafdpH+gMuhOdSxfQZ9Ir6Q30y/SXGmQNKw22xjiNYo0KjX0aFzV6NMma1pocTZ7mDM1KzYOaNzT7tBhaI7RitPK1Fmrt0Dqn9UybpG2tHawt0J6rvVn7pPYjBsawYHAYfMYcxhbGKUaXDlHHRoerk6NTrrNLp12nV1db1003WXeybqXuEd1OPUzPWo+rl6e3WG+v3nW9T0OMh7CHCIcsGFI35PKQ9/pD9QP0hfpl+vX61/Q/GTANgg1yDZYaNBrcM8QN7Q3jDCcZrjc8ZdgzVGeoz1D+0LKhe4feNkKN7I3ijaYabTZqM+ozNjEONZYYrzE+adxjomcSYJJjssLkqEm3KcPUz1RkusL0mOlzpi6Tzcxjrma2MnvNjMzCzGRmm8zazT6b25gnmZeY15vfs6BYsCwyLVZYtFj0WppaRllOs6y1vG1FtmJZZVutsjpj9d7axjrFep51o/UzG30brk2xTa3NXVuarb/tRNtq26t2RDuWXa7dOrtL9qi9u322faX9RQfUwcNB5LDOoWMYYZjXMPGw6mE3HKmObMcix1rHB056TpFOJU6NTi+HWw5PG750+Jnh35zdnfOctzjfGaE9InxEyYjmEa9d7F34LpUuV11priGuM12bXF+5ObgJ3da73XRnuEe5z3Nvcf/q4ekh9ajz6Pa09Ez3rPK8wdJhxbIWss56EbwCvWZ6Hfb66O3hXei91/svH0efXJ8dPs9G2owUjtwy8pGvuS/Pd5Nvpx/TL91vo1+nv5k/z7/a/2GARYAgYGvAU7YdO4e9k/0y0DlQGngg8D3HmzOdczwICwoNKgtqD9YOTgpeG3w/xDwkK6Q2pDfUPXRq6PEwQlhE2NKwG1xjLp9bw+0N9wyfHt4aQY1IiFgb8TDSPlIa2RyFRoVHLY+6G20VLY5ujAEx3JjlMfdibWInxh6KI8bFxlXGPYkfET8t/kwCI2F8wo6Ed4mBiYsT7yTZJsmSWpI1ksck1yS/TwlKWZbSOWr4qOmjLqQapopSm9JIaclpW9P6RgePXjm6a4z7mNIx18fajJ089tw4w3F5446M1xjPG78vnZCekr4j/QsvhlfN68vgZlRl9PI5/FX8F4IAwQpBt9BXuEz4NNM3c1nmsyzfrOVZ3dn+2RXZPSKOaK3oVU5Yzoac97kxudty+/NS8urz1fLT8w+KtcW54tYJJhMmT+iQOEhKJZ0TvSeunNgrjZBuLUAKxhY0FerAH/k2ma3sF9mDIr+iyqIPk5In7ZusNVk8uW2K/ZQFU54WhxT/NhWfyp/aMs1s2uxpD6azp2+agczImNEy02Lm3Jlds0JnbZ9NmZ07+/cS55JlJW/npMxpnms8d9bcR7+E/lJbSi+Vlt6Y5zNvw3x8vmh++wLXBWsWfCsTlJ0vdy6vKP+ykL/w/K8jfl39a/+izEXtiz0Wr19CXCJecn2p/9Lty7SWFS97tDxqecMK5oqyFW9Xjl95rsKtYsMqyirZqs7Vkaub1liuWbLmy9rstdcqAyvrq4yqFlS9XydYd3l9wPq6DcYbyjd82ijaeHNT6KaGauvqis3EzUWbn2xJ3nLmN9ZvNVsNt5Zv/bpNvK1ze/z21hrPmpodRjsW16K1strunWN2XtoVtKupzrFuU71efflusFu2+/me9D3X90bsbdnH2le332p/1QHGgbIGpGFKQ29jdmNnU2pTx8Hwgy3NPs0HDjkd2nbY7HDlEd0ji49Sjs492n+s+FjfccnxnhNZJx61jG+5c3LUyautca3tpyJOnT0dcvrkGfaZY2d9zx4+533u4HnW+cYLHhca2tzbDvzu/vuBdo/2houeF5sueV1q7hjZcfSy/+UTV4KunL7KvXrhWvS1jutJ12/eGHOj86bg5rNbebde3S66/fnOrLuEu2X3NO9V3De6X/2H3R/1nR6dRx4EPWh7mPDwziP+oxePCx5/6Zr7hPak4qnp05pnLs8Od4d0X3o++nnXC8mLzz2lf2r9WfXS9uX+vwL+ausd1dv1Svqq//XCNwZvtr11e9vSF9t3/13+u8/vyz4YfNj+kfXxzKeUT08/T/pC+rL6q93X5m8R3+725/f3S3hSnuJXAIMVzcwE4PU2AGipADDg+YwyWnn+UxREeWZVIPCfsPKMqCgeANTB//e4Hvh3cwOA3Vvg8Qvqa4wBIJYGQKIXQF1dB+vAWU1xrpQXIjwHbIz9mpGfAf5NUZ45f4j75xbIVd3Az+2/AFXzfFpmSUm+AAAAimVYSWZNTQAqAAAACAAEARoABQAAAAEAAAA+ARsABQAAAAEAAABGASgAAwAAAAEAAgAAh2kABAAAAAEAAABOAAAAAAAAAJAAAAABAAAAkAAAAAEAA5KGAAcAAAASAAAAeKACAAQAAAABAAAC7KADAAQAAAABAAAC8AAAAABBU0NJSQAAAFNjcmVlbnNob3TT/l+VAAAACXBIWXMAABYlAAAWJQFJUiTwAAAB1mlUWHRYTUw6Y29tLmFkb2JlLnhtcAAAAAAAPHg6eG1wbWV0YSB4bWxuczp4PSJhZG9iZTpuczptZXRhLyIgeDp4bXB0az0iWE1QIENvcmUgNi4wLjAiPgogICA8cmRmOlJERiB4bWxuczpyZGY9Imh0dHA6Ly93d3cudzMub3JnLzE5OTkvMDIvMjItcmRmLXN5bnRheC1ucyMiPgogICAgICA8cmRmOkRlc2NyaXB0aW9uIHJkZjphYm91dD0iIgogICAgICAgICAgICB4bWxuczpleGlmPSJodHRwOi8vbnMuYWRvYmUuY29tL2V4aWYvMS4wLyI+CiAgICAgICAgIDxleGlmOlBpeGVsWURpbWVuc2lvbj43NTI8L2V4aWY6UGl4ZWxZRGltZW5zaW9uPgogICAgICAgICA8ZXhpZjpQaXhlbFhEaW1lbnNpb24+NzQ4PC9leGlmOlBpeGVsWERpbWVuc2lvbj4KICAgICAgICAgPGV4aWY6VXNlckNvbW1lbnQ+U2NyZWVuc2hvdDwvZXhpZjpVc2VyQ29tbWVudD4KICAgICAgPC9yZGY6RGVzY3JpcHRpb24+CiAgIDwvcmRmOlJERj4KPC94OnhtcG1ldGE+ClVZ6AkAAAAcaURPVAAAAAIAAAAAAAABeAAAACgAAAF4AAABeAAAxOWPSvb8AABAAElEQVR4AeydB4BU1dn+3+290HsRFBbphCKKJSpIlBJBY1RisKDYsAFGyfdP8n1BI6IoGiViIQZbFA1Fg2BXREBZmrIgINI7LFvZ+n+fO8wyu8zuTrkzc+/Mc/Qy7d5Tfmf2zHPf8573RMXGxlUKEwmQAAmQAAmQAAmQgOcEokSio2MkOiZGovQ/Z6qoKJfKygqpqFB5VemnxIqK0jI096hooyxnGZVSKRXl5VpGuZbhfDfMHrXtCfHxEq9HVHR0mDXO++ZEUbB7D41XkAAJkAAJkAAJRC4BiPQYPeSkUHcIdIj0AApo5w2CilcIeEeqlHIIdz3CKcUnJEiCHlEq2pkcBCjY+U0gARIgARIgARIgAQ8IwNIbExNbJSQrYElXsVxZUeHB1eadgnrgpiH6pHCvVEt+eXlZ0OthXoscOcXGxUpiQqLRNrPztnt+FOx270HWnwRIgARIgARIIOAEYmJjq9xSYFGHZTvYQr1mIx03EOqSc1K4w8JfXlZW8zRbvE5MSlT3lwRb1DUUlaRgDwV1lkkCJEACJEACJGALAnDLgFh3imJYsq3mguJw0Yk1eBo3EyraYXW3Q0Ldk5KSTroY2aHGoakjBXtouLNUEiABEiABEiABixOABTtWxTp81R1WdbidWFMIR+niVIe7DvzbK6UMoj3IrjredmdsXJwh1umrXj85Cvb6GfEMEiABEiABEiCBCCPgarW2k6uJq+uOFWcDnF8jRH9JVMs6k2cEKNg948SzSIAESIAESIAEIoSAq1i3suitrTusXv/4BBXriRTrtfWfu/cp2N1R4XskQAIkQAIkQAIRScDqYtfTTrFqO2hZ97QHq59HwV6dB1+RAAmQAAmQAAlEKAGHz3qc0Xo7WtZrdpuraC8rKw25Tzt81pOTk2tWk689IEDB7gEknkICJEACJEACJBDeBLDwEYISC0zDQaw7e+uUaNeFqKUq2kMUPQb1SElJqYph76wfHz0jQMHuGSeeRQIkQAI+EUhJTZWGDRtKgwaZejSQzIxMycjIkLT0NElPT5e01DRJS0uVVD0vWX/MYH1K1oVYCHOWmJhoHNjxL04XaMWpmIjTiBVxcfFGCLSYGGxXjl0PsXW5Y0dA/BjjqNDoEOXljljRpaUlUqoRI0r1x7q0pEROnDghxcXFxlFUVCSFOAoLpbCgQPLz8yUvT4/8PDl+/LjkHc+T3NxcOZZ7TI4eParHMTly5IgU6HlMJBBOBCDWEbrRTgtMPeXvXIiKSDcQ7aFIGAsdu8OGonT7l0nBbv8+ZAtIgASCTKBJ06bSsmULadG8hTRv3lyaNmsqzfS9pnrgsyaNG0tjPRo2bKSCOzw3AikuPqHC/bAcOnRIDuI4cEAO6LEfj/sPyL59+2Tvvr2yZ89e47MgdxGLIwGvCFhB0HpVYR9ODuUNCTdF8qHDalxCwV4DCF+SAAlENoE0tXq3b99O2rVtJ23atpG2bdpKmzatpXXr1tKqVSsV6i11N774yIbkZetL1Kq/Z88e2b17t+zatUt27twlO3bukJ07dsrPO36W7dt/Vkv+cS9z5ekkYA4BV7/1srISy8ZZ97e1iNMeG+sYu4Lpzx4bF6szhyn+Vj/ir6dgj/ivAAGQQOQRaKZW8bPOOlPO7HimdOjQQTp27CBnnHGGtNcD1nGm4BOAlX77Tz/JT3ps3bpNtm3bJlu2bpEff9wi+9Vaz0QCgSIQqy5mcCkLJ7/12lg5/dnhNlemrnLBSHD3Q7lM/hGgYPePH68mARKwMIGsLlnSJauLdM7qLFmdO0unTp3kLD0y1YecyT4EjqkP/Y+bN8tmPXI2bZJNOZtkY85GydmYY59GsKaWJHBKwIbOtzvYYJyuMcG4QYnX9TdYi8PkPwEKdv8ZMgcSIIEQE4BlvHu3btK1W1fp1rWrnH322dKlS5eTW4qHuHIsPmAEsPX6xo0b5YcffpAN338v32/4XtZv2GBY6gNWKDMOHwK6ThsLuBEVJpguIqEGeMoFqFIXoquVvTJANdJZi7S0tKoF8QEqJWKypWCPmK5mQ0kgPAj07NVTevfqLT179pAePXpIdz0aZGaGR+PYClMIHD12TNavWyfr9Fi7dp1kr8mWtWvWmpI3MwkfAk7reoVGTikPUeSUUNGM0Yg40RoRJ5BWdkS3SqB13bQupmA3DSUzIgESMJtA9x7dpe8v+kqfPr2ld2/HwQWfZlOOjPyw8DU7O9s4Vq/Olm+/+1ZF/frIaDxb6ZZArC4e14CoEWVdd4JwWtk1CKyU6d9GIJJhXdews0zmEKBgN4cjcyEBEvCTQPMWLWRA//7SX49+/fpJ3759jfjkfmbLy0mgVgKIN//tt9/KqlWrZOXKlbJCj31799Z6Pj8IHwJO63oo45KHmmYgfdmxbwT2kmAyjwAFu3ksmRMJkIAXBLp17yYDBw6Uc/UYMGCARm05y4ureSoJBIbAjz/+KCtWrJCvly+X5XpsWL8hMAUx15ASCKRYDWnDvCg8kDct2AQuVjd5YzKPAAW7eSyZEwmQQB0E+vbrK4MGDZLzzjvPOBg+sQ5Y/MgyBBBuctmyZcbx1VdfybervrVM3VgRHwnoYkjHYlPRRZcnArfo0sfqBe0yY9GtY2M3x+JTc1afYvflVF1synSKQFFRobpelVe9AUYpelPjmvLy8lxfGvt9YB2AM1GwO0nwkQRIwFQCvdXv/IILLpALL7xQzj//fIZSNJUuMwsVAYSY/PLLL+Xzzz+XL774QrLVH57JXgScluWKinIp10hDkZycO7yaufg0PiFeQzlawx3mxIkTgpjz3qQYFdNw6TEzUbCbSZN5kQAJ+EWgQ8eO8stfXiQX//KXcuFFF0mzpk39yo8Xk4AdCOw/cEA+/+wz+eTTT+XTTz+TbVu32qHaEV3HUxFSSqWivCKiWUTHREtMTJyYGSknOSVZ3WHiLME1Pz/fa8EOVx6z/e8p2C3xdWAlSCAyCWAzjEsvvVQuueRiPS4x4p5HJgm2mgROEUBc+I8//liPT+Sjjz6S4uLiUx/ymSUIxMWb7wZiiYb5UglX96ASdQ8yIaWlp1sm9joFuwkdyixIgATsRwA7hw4ZMsQ4BqtYhx8eEwmQgHsCFRUVslRF+5IlS4yDO7O65xTMd6Oio9T6G29YXcuwaRCTxOrmUVEq3MvKSqSywjv3kZr4YmJj1Dc7tebbIXtNwR4y9CyYBEgg2AQuvvhiGTr0Mj2G0ooebPgsL6wIwPq+ePFiPT6UTz75JKzaZpfG0H/99J4y048d+2QkWiicY03BjhuT5OTk0yG4vINzcJiZ6BJjJk3mRQIkYBDAYHbFFVfocbn86vLLpWGDBiRDAiRgMoEjR4/Kfz/4QN5/H8f7UlhYaHIJzM4dATPFqbv87fiemTcxiUmJGt3kVGSTUPOoKdjdRWfxpo6YNcNRiUMvjNYZG+wYC4Z1JQr2uujwMxIgAY8JNG7SRIYPH6bHcBmmYt1s64LHFeGJJBCBBBDFYpGK9oULF+qxSA4dPBiBFILTZOeC07KyUkN0BadUa5fi3PXUjIWnVlpwCupmCXZE0TlxokTKy0+FZnTtVdwIYHYhLs79YlsKdldafE4CJOAVgWbNm8vIkSP0GClDBg/26lqeTAIkEDgCS5Yulfnz5+uxQPbv2xe4giIw5yp/bfVf9zbcX324YL1H8jRUZKDPr6++zs9hoAEX8PDXrz81NbVea7Oz3GA8miHYS0pKVKx7tiDXiDCjARnU6lWteRTs1XDwBQmQQH0EYEm/8spf63GlYNEoEwmQgLUJYNHqe++9p8d/aHk3oati1QqqHsq6YZIuOPUyPnddxdfc2fPEiWI5Uexe5EGoY0Mc151ACwoKahX6CYkJer6KwJOprryd53j1qOISG0lV6n9lKk79SWm6YRIs9lZJ/gr2Mo3TX1RU5FVzYGl33fAIF1Owe4WQJ5NAZBKAT/pVV10lo0aNMvzSI5MCW00C9ifwvvq7v/vuu/LOO+/Q593H7jwV0lHFtH8BUapqUFNQOz+oTYSnZ2Q4T6l6hDAsVNFeM9WWt6mivWrH00op9VewWyikI1jWFOx4r6aYxnuuCW4tmHXAjAOur5kgyOPj4foSZbjIuBP0+N2NcfFrp2CvSZGvSYAEqgjA1eWqq0YbYt3VklN1Ap+QAAnYkgDEHUT7O+/MM1xnbNmIEFW6SrCbFHMczXAnwPG+OxEO63rNLelxLpI7gV+bYHeXtyMX3/41i0t6RrpWoLo7iG81Mucqd4K9vpzRP/BJxzqHoqLq+yhAqLvOdiAv9EVN0Q7Rj71KnImC3UmCjyRAAgaBcwaeI9f85jfym2uukabq/sJEAiQQ3gQO6ALVf7/1lrz173/LN8u/Ce/GmtA6s4Spa1VqusM4P3NnBfdWsNeWN8o4npvrLMrvR7O4hJNgL1ZXmFIV467JKeZd38NUTUFBoRE9xvV9uAc5k7+CHZFponT7WJMmhZzV4iMJkEAwCbRq3Vquvfa3cu1vfys9evQIZtEsiwRIwEIE1q1bJ2+8+aa88cabsnvXLgvVzDpViVN3BliAS0sD7xLjTrCDRG0i3J0Ar03g15a3T6SrXGJEXWLc+917mq+VdjlFnf2xsCPUqmtUGLjJYFGtu4QdjUtLS6t9hHOdEdf8FexYyEzBXg0vX5CAfQiMHj1arrv+OhmhoRiZSIAESMCVwAINEfn6a6/LvHnzXN+O+OeBWnRa03WlLkFdU4TDpQJRSGqLLlMzb7PdYRDRJFIWneIPoL6Nk2JisGg26jSxX1cMd/Qfosm4JldrvL+CHTcDFOyudPmcBCxOoGu3rjLm+jFy/ZjrpYWGZWQiARIggboI7NWwkK/NfU3mvjZXvt/wfV2nRsRnDOt4ejczrOPpTPBOTes8Bbt7TnyXBEjAhcB1110nv7vhd3LpJZe4vMunJEACJOA5gY8+/lj+9eq/5PXXX/f8ojA7kxsnnd6h3DjpdCZ4p6ZLDN5z9UvHa2cqLlZ/99Lq/u6musToxk20sDtp85EELEagU+dOMvb3Y+WG398gzZo2tVjtWB0SIAG7Eth/4IC8+s9XZc4/58jmTZvt2gyf6g13lOjoGPVNLpOKWnat9CljG18UreEHY2JiddFkea1uOZ42LzEpUUMeJnh6esDP88ZKXrMy7vzSUzRcI3hVTwj/WFBtI66a/u7+usRw0Wl14nxFApYgMFx90m+86UYZPmyYJerDSpAACYQvgYWLFskrL78iC9XnPRKSmeI0XHiZeRODGOWJSUmWQeOPYHcbrlFv+HBT4hq6Ev7lEPeuqebmSf4KduRNC7srYT4ngRARwMr6m2++SW6+6SbJysoKUS1YLAmQQKQSyMnJkZdeflleeullyTt+PGwxREVH6Q6juqunbopTht1OmaTKr7+sRCor/AscGBMbo3Hm3UdSCQVqfwQ7wjXWtJyjDXFxscYiXUSbL9NZGiw4rZlSUtQSrzM5zkTB7iTBRxKwKYFu3bvJuFtuUbF+i27GgHBjTCRAAiQQOgInTpSoaH9RZr/4omxYvyF0FQlgyVUxxyHYVbhHdDoZIQYM/A3p6ORopdCO/gl2McI6wpfdm4SdVGFhd00U7K40+JwEbERg6NChMu7WcQzJaKM+Y1VJINIIIDTk7Bdmy+LFi8Oq6c6Fp+XlperHXhFWbfO2MdEawjAmJk4qKiukvEYccW/zcp6frNZl3ePH+TKkj/4KdlTenWtMbY1yuMI4Yv27nkPB7kqDz0nABgTGjh0rt6pQ79evnw1qyyqSAAmQgMiqVavkBRXuc+bMCQsc9GM/1Y1m+q87c43X2eLERGv4sZsh2NEuLPpEnPWamyM52xyrrkCIZR+rPu7uUpHumgrh70wx0dHGBlrO13jMy8tzfWlY6WGtdyb6sDtJ8JEEAkQA1oY77rhDbh8/Xtq2bRugUpgtCZAACQSWwI4dO+T5WbPkueeek0Ldit22ydUNxMQdT23Hw3WHUxPdgxCvPDUtzXY4PKkw1j5UqnivOOlKhWgwaK9zR1NP8vD1HAp2X8nxOhKoh0DLVq3kTgj122/X2K3WWYRTT7X5MQmQAAnUSSAvL1+ef/55+bsK9z27d9d5rlU/jI2LU5EVHdHhHZ0zDZXqDlNmkjuMs7+TU1JqtTY7z+GjdwQo2L3jxbNJoF4CiJ9+9113yXi1qDORAAmQQDgTmKUW92eefdZ28dwDKVbt0t+BvGmJ00WXSRYK72iXPqmrnhTsddHhZyTgBYGevXrKhLvvlhtuuMGLq3gqCZAACdifwKuvviozn3lG1q5Za5vGxKqojNL/yspKDTcH21TchIo6dzdVBw8pU9/sQCTsCopymMwhQMFuDkfmEsEE+vXvJ/dMmCDXXHNNBFNg00mABEhA5K233pKnZ86UVStXWR6H08puZoQUyzf6ZAVPRcoJ3I6vWDCZkIhNhpjMIEDBbgZF5hGRBAacM0DuvfdeuWr06IhsPxtNAiRAArUReGfePHnqqadkxTcrajsl9O8biy4dIfgiycrutK5jY6BSY7FpgLpCF2QaVnZ9ZPKfAAW7/wyZQ4QR6D+gv9x3330U6hHW72wuCZCA9wQg3GfMmCErV6z0/uIgXOG0sgdi4WUQqu9TEYH0Xa9ZoXi1sifSyl4Ti0+vKdh9wsaLIpFA7z695YH776frSyR2PttMAiTgFwG4yjzx5JOSvTrbr3wCcXGsxs9GWL7y8sC5hwSi3r7keeoGRX3XYV0PQkpNTRWUy+QfAQp2//jx6gggkNUlSyZNnMjFpBHQ12wiCZBAYAlgcerj06dLzsacwBbkRe6nXESwq2WJLkCt9OJq+5waFR2loRbhAoR2Bm+hbWxcrCQnp9gHlEVrSsFu0Y5htUJPoI1ucjR50kSGZwx9V7AGJEACYUYA4SCnPT5ddupmTFZIzh0/w9k1xukKU1FRLuUuu24Gg39iUqLu3Hlq185glBluZVCwh1uPsj1+E0hLT5c/PPigTJ48ye+8mAEJkAAJkEDtBKZNe1z+9thjknf8eO0nBemTUAraQDfRCjckKeoaE0PXGJ+7moLdZ3S8MBwJTFSL+oMq1jMzMsKxeWwTCZAACViOwLHcXHlMRft0tbiHMsGPHaJdNDZ7OPmzO/3WERUGO5pWVobG5Qf1SNEdUMGZyXsCFOzeM+MVYUhg7Nix8tBDf5AOHTqEYevYJBIgARKwPoFt27bJo4/+TebMmROyyrr6s4eDaD8l1oPrt15bB+KGKDk5ubaP+X4dBCjY64DDj8KfwNChQ+Xhhx+SgQMHhn9j2UISIAESsAGB5cuXyyOPPCqLFy8OSW1dRa6dRbtV2xGvO8wmJiWFpG/tXCgFu517j3X3mUC37t1kypQpjKXuM0FeSAIkQAKBJYAY7lOnTpUN6zcEtiA3uVtV7Lqpqtu3rF7/+AQV7YkU7W47r5Y3KdhrAcO3w5MAFpT+zx+nGBsfhWcL2SoSIAESCC8C2Hjp//46NegLU11Fbygiq/jai84FprjeyjMEtLR718MU7N7x4tk2JnD7HbfL//t//08aN2pk41aw6iRAAiQQeQQOHT4s//u//yvPP/d8UBvv8GmP1TKjdLFmhSGArRqnHXHWY2JidVFntNZXF5hq6MbKioqg8vK2MPi0J6l7DBei1k+Ogr1+RjzD5gSGDBmiQv1/ZMCAATZvCatPAiRAApFNYMWKFSrc/0+WLFkSNBAQk7BaO4SwNa3WrrMBxo0FxHqIosF42zGoO0Q7Qz7WTY6CvW4+/NTGBLDx0f/+5c8yZswYG7eCVScBEiABEqhJYO7cufL//vTnoG685Opq4rC2l4fcgo0ZAAhd582EnVx3avYpN1eqSaT6awr26jz4KkwIIJ76X/78Z91ZzbENc5g0i80gARIgARI4SaCkpET+pON8MOO3OwQyrO2OWOIV6iZTUR584Y56wDIdbbi/qAOMWtPhr251F5j6vryxcbGSmJBotK2+cyPtcwr2SOvxMG8vwjT+7//+RXr37h3mLWXzSIAESIAEQCA7O1vdHv8U1DCQDheUGC3dIdxhca9Qf3FYuNV9PDBJi4qOVpGuYt1pUUdh5XrDgJuGcErxCQmSoIfzxiic2uZrWyjYfSXH6yxFoGmzZjL1r/8nY3UDJCYSIAESIIHII4ANl6b88X/kwP79wWm8U0CrpTvqpHBHwRDtDgGvyt1fP3K15EfrYlIIdIh1Z6pUoQ6RHtAbBGdhoXrUtifoLDlmyjGjEOmJgj3SvwFh0P7xt4+Xv/7f/0lGRkYYtIZNIAESIAES8JVAbm6u/PF//kdmPT/L1yx8us5wT6lm+XZkA1cViHfHo0PAOwzweH6yKMNIf1Lyq0iFVdlxwJLusOA7K1VlyQ8zi7qzfbU9xqloj9OIMrG6+DdSEwV7pPZ8GLS7zy/66G54j8glF18cBq1hE0iABEiABMwi8PEnn+gu1g/L6u9Wm5WlZ/mowDZcVuBjftK/3LMLaz8LfvLwTYfLjd8W+9qLscUnYAs/dwh3RwjL6jc0tmiEj5WkYPcRHC8LLYE/60KjKVMeDm0lWDoJkAAJkIClCUyd+ojg9yJUCbHR4c5iWMphOYfrjPG/q9CEg4smw+iOf2CVP2mZr3Ca4UPVAmuXGxMbIzHw64+By5DjJqmKtYHYlbO121Jf7SjY6yPEzy1FYPDgwfK3vz0qPXr0sFS9WBkSIAESIAFrEli3bp384Q8PydKlS61ZQdaKBDwgQMHuASSeEnoCWHTy2GN/k7vuuiv0lWENSIAESIAEbEfg2WeflQcf/IMgHCQTCdiNAAW73XosAus7cuRImTbtMenQoUMEtp5NJgESIAESMIvAtm3bZPLkB2X+/PlmZcl8SCAoBCjYg4KZhfhCIDk5WaZPf1zGjRvny+W8hgRIgARIgATcEpg9e7ZMnDhJCgsL3X7ON0nAagQo2K3WI6yPQQBWdYj19u3bkwgJkAAJkAAJmE5g+/bthmintd10tMwwAAQo2AMAlVn6TgBxVp988gkZP36875nwShIgARIgARLwkMCsWbPk/vsfkNLSUg+v4GkkEHwCFOzBZ84SayFw2WWXGWK9U6dOtZzBt0mABEiABEjAfAKbN282RPuHH35ofubMkQRMIEDBbgJEZuE/gUcffVSnJh/wPyPmQAIkQAIkQAI+Epg+/Ql56KGHfLyal5FA4AhQsAeOLXP2gED/Af3lqRkzpF+/fh6czVNIgARIgARIILAEVq1aJffed5+sXLEysAUxdxLwggAFuxeweKq5BO5/4H557G9/MzdT5kYCJEACJEACJhB48A9/kCefeNKEnJgFCfhPgILdf4bMwUsCrVq3lmeemSnDhw3z8kqeTgIkQAIkQALBI7Bw0SK5++4JsnvXruAVypJIwA0BCnY3UPhW4AhcffXVMlPFeuNGjQJXCHMmARIgARIgAZMIHDp8WCaoaH/77bdNypHZkID3BCjYvWfGK3wk8MQT02XChAk+Xs3LSIAESIAESCB0BGbOnCkPPDAxdBVgyRFNgII9ors/OI3v2aun/P3ZZ2XAgAHBKZClkAAJkAAJkEAACKxYsULuvOsuWbtmbQByZ5YkUDsBCvba2fATEwjcfMvN8tzf/y7R0dEm5MYsSIAESIAESCC0BCoqKuSOO++Ul158KbQVYekRRYCCPaK6O7iNff755+SWW24JbqEsjQRIgARIgASCQODFF1+U22+/IwglsQgSEKFg57fAdAK9+/SWWc8/L3369DE9b2ZIAiRAAiRAAlYhsHr1ahl/++2SvTrbKlViPcKUAAV7mHZsqJo19sax8o9Zs+gCE6oOYLkkQAIkQAJBJQAXmdvGj5c5r8wJarksLLIIULBHVn8HtLUzZjwpd+liHCYSIAESIAESiDQCz2pwhfvuuz/Sms32BokABXuQQIdzMR06dpQX/jFLLrzwwnBuJttGAiRAAiRAAnUS+Pzzz+XW28bLtq1b6zyPH5KAtwQo2L0lxvOrERg+fLi8MPsFboRUjQpfkAAJkAAJRCoBbLR067hbZeHChZGKgO0OAAEK9gBAjZQsJz84Wab+9a+R0ly2kwRIgARIgAQ8JjDlj3+UaY9N8/h8nkgCdRGgYK+LDj9zSwAx1V966UUZM2aM28/5JgmQAAmQAAmQgMjcuXPl5ptvESxMZSIBfwhQsPtDLwKvzeqSJS+/9JL069cvAlvPJpMACZAACZCAdwRWrVolN918s+RszPHuQp5NAi4EKNhdYPBp3QTgr/7yKy9LZkZG3SfyUxIgARIgARIggSoCx3Jz5aYbb6JfexURPvGWAAW7t8Qi9Px777tXHp9GX7wI7X42mwRIgARIwAQCkyZPlqdmPGVCTswi0ghQsEdaj/vQ3meemSnjdVMIJhIgARIgARIgAf8IzNLNBe++e4J/mfDqiCNAwR5xXe55gxs2aiT//OccGXrZZZ5fxDNJgARIgARIgATqJLD4ww/l978fK0c0BCQTCXhCgILdE0oReE7vPr3l1X/+U7KysiKw9WwyCZAACZAACQSWQE5Ojtzw+99L9urswBbE3MOCAAV7WHSjuY0YOXKkvPrqq5KcnGRuxsyNBEiABEiABEigikBhYZHccMMNMn/+/Kr3+IQE3BGgYHdHJYLfu+POO+Tpp7ggJoK/Amw6CZAACZBAkAncc++98tzfnwtyqSzOTgQo2O3UWwGu69SpU2Xy5EkBLoXZkwAJkAAJkAAJ1CQwbdrjMmXKlJpv8zUJGAQo2PlFMAi8ovHVuXMpvwwkQAIkQAIkEDoC2Bn1Ro3XzkQCNQlQsNckEmGvMxs0kNdff00GX3pphLWczSUBEiABEiAB6xFY+tFHct1118uxo0etVznWKGQEKNhDhj70BXfq3EneeP116dGjR+grwxqQAAmQAAmQAAkYBNatWyfXXnedbN60mURIwCBAwR6hX4RzzztX3njjDWnZokWEEmCzSYAESIAESMC6BPbs3SvXXnutfL3sa+tWkjULGgEK9qChtk5BI0aMULH+usTHx1unUqwJCZAACZAACZBANQIlJSUq2q+TBQsWVHufLyKPAAV7hPX52LFjZfbsFyKs1WwuCZAACZAACdiXwLhxt8qcOXPs2wDW3G8CFOx+I7RPBvfce49Mf/xx+1SYNSUBEiABEiABEjAITJw0SfdJeZo0IpQABXuEdPyf/vQn+eMfGd81QrqbzSQBEiABEghDAn/961T5y1/+EoYtY5PqI0DBXh+hMPj8iSemy4QJE8KgJWwCCZAACZAACUQ2gZkzZ8oDD0yMbAgR2HoK9jDv9H/8Y5bcdBM3YQjzbmbzSIAESIAEIojAyy+/LLfdNj6CWsymUrCH8Xdg7tx/yTXXXBPGLWTTSIAESIAESCAyCbz11lu6Q/nvIrPxEdhqCvYw7fR5786TEcOHh2nr2CwSIAESIAESIIEFCxfK6FGjCSICCFCwh1knJyYmCsT6kMGDw6xlbA4JkAAJkAAJkEBNAkuWLjVEe3Fxcc2P+DqMCFCwh1FnpqWny3sq1i+88MIwahWbQgIkQAIkQAIkUBeBzz//XK5US3ve8eN1ncbPbEyAgt3Gneda9YaNGsl/3ntXBg4c6Po2n5MACZAACZAACUQAgeXLl8uvrxwlRw4fjoDWRl4TKdjDoM+bNG0q8//znvTr1y8MWsMmkAAJkAAJkAAJ+EJg1apVMvLXV8rBAwd8uZzXWJgABbuFO8eTqjVr3lwWzP+P9OnTx5PTeQ4JkAAJkAAJkEAYE1i9erWMGPlr2b9vXxi3MvKaRsFu4z5v3qKFIdZ79+5t41aw6iRAAiRAAiRAAmYSyM7ONkT7vr17zcyWeYWQAAV7COH7UzQs6wsXzBeKdX8o8loSIAESIAESCE8CEO3DR4ykpT1MupeC3YYdCZ/1RQsX0A3Ghn3HKpMACZAACZBAsAjAPWbY8BH0aQ8W8ACWQ8EeQLiByBrRYCDWucA0EHSZJwmQAAmQAAmEFwEsRIVoZ/QYe/crBbuN+g9x1t9ftJChG23UZ6wqCZAACZAACYSaAEI+XjFsOOO0h7oj/Cifgt0PeMG8FDuYLlKxzk2RgkmdZZEACZAACZBAeBDA5krDVLRzR1R79icFu0367f0P3pchgwfbpLasJgmQAAmQAAmQgNUILFm6VK64/AqrVYv18YAABbsHkEJ9yrx358mI4cNDXQ2WTwIkQAIkQAIkYHMCCxYulNGjRtu8FZFXfQp2i/f53Ln/kmuuucbitWT1SIAESIAESIAE7ELgrbfekjFjfmeX6rKeSoCC3cJfg3/8Y5bcdNNNFq4hq0YCJEACJEACJGBHAi+//LLcdtt4O1Y9IutMwW7Rbn/iiekyYcIEi9aO1SIBEiABEiABErA7gZkzZ8oDD0y0ezMiov4U7Bbs5j/96U/yxz9OsWDNWCUSIAESIAESIIFwIvDXv06Vv/zlL+HUpLBsCwW7xbr1nnvvkemPP26xWrE6JEACJEACJEAC4Upg4qRJ8vRTT4dr88KiXRTsFurGsWPHyuzZL1ioRqwKCZAACZAACZBAJBAYN+5WmTNnTiQ01ZZtpGC3SLeNGDFC5s17xyK1YTVIgARIgARIgAQijcDo0VfJggULIq3ZtmgvBbsFuunc886VpUuWSHx8vAVqwyqQAAmQAAmQAAlEIoGSkhIZPGSIfL3s60hsvqXbTMEe4u7p1LmTLNWdx1q2aBHimrB4EiABEiABEiCBSCewZ+9eGaw7q2/etDnSUViq/RTsIeyOzAYN5OOPlkqPHj1CWAsWTQIkQAIkQAIkQAKnCKxbt04uuXSwHDt69NSbfBZSAhTsIcT/wX8/kMGXXhrCGrBoEiABEiABEiABEjidwNKPPpLLf3X56R/wnZAQoGAPCXaRV155WbcFHhOi0lksCZAACZAACZAACdRNYO7cuXLjjdxxvW5KwfmUgj04nKuVMnXqVJk8eVK19/iCBEiABEiABEiABKxGYNq0x2XKFG7mGOp+oWAPcg/ccecdujnBU0EulcWRAAmQAAmQAAmQgG8E7rn3Xnnu78/5djGvMoUABbspGD3LZOTIkfLOO297djLPIgESIAESIAESIAGLELjqqqtl/vz5FqlN5FWDgj1Ifd67T2/57NPPJDk5KUglshgSIAESIAESIAESMIdAYWGRXPTLiyR7dbY5GTIXrwhQsHuFy7eTGzZqJJ9/9qlkZWX5lgGvIgESIAESIAESIIEQE8jJyZELL/qlHDl8OMQ1ibziKdiD0OcLFy2UoZddFoSSWAQJkAAJkAAJkAAJBI7A4g8/lOHDhgeuAObslgAFu1ss5r35zDMzZfz48eZlyJxIgARIgARIgARIIIQEZs2aJXffPSGENYi8okMu2FNSUiQ6Otpj8uXl5VJYWOjx+aE88d777pXHp00LZRVYNgmQAAmQAAmQAAmYTmDS5Mny1AxGvTMdbC0Zei3YY2JjJSEhoVp2lRUVUlRU5HgvSozPKysqpaSkpNp57l4kJCZKfHy8u4/cvlehZRXk57v9zEpvDh8+XN59d56VqsS6kAAJkAAJkAAJkIBpBEaNGi0LFy40LT9mVDsBrwV7XFycJCadHukkPy9PEhITJC7ulPg+ceKElOhRX0pJTfXYym4HwZ7VJUu+/PJLyczIqK/p/JwESIAESIAESIAEbEngWG6unH/++ZKzMceW9bdTpb0W7NExMQI3lpoJriox+lnNVFxcJKUlpTXfrvY6Sl1iUlW0e5KsLtjh3vPVV19Kv379PGkOzyEBEiABEiABEiAB2xJYtWqVDBp0vkCfMQWOgNeCvTZxDQu7Ibqj1CemRiosKBAI+rpSorrGxHngGmN1wf7KKy/LmDFj6moqPyMBEiABEiABEiCBsCEwd+5cufHGm8KmPVZsiPeCXQV5alraaW3JO35cahPzIpWSn5cvlZWVp11X9Ybq/LS09KqXtT2xsmCf/OBkmfrXv9ZWdb5PAiRAAiRAAiRAAmFJYMof/yjTHmOgjUB1rteCXVSwp9Ui2FFJLEpNTk4+rb6eWNk9WYBqVcHORaandTnfIAESIAESIAESiCACXIQauM6OUpFch9nbfcHJyaf7sBcWFlSdnJCQWOXPDoGNxadI8O9GRJnSUvc+7VG1WO+rMtYnVhTsHTp2lGXLvpLGuqMpEwmQAAmQAAmQAAlEIoFDugPqeecNkm1bt0Zi8wPa5qgGDRt5Ldj9qZERR1192mtLKamIy3764lXn+VYU7B99tFQuvPBCZxX5SAIkQAIkQAIkQAIRSeDzzz+XSy8dHJFtD2SjLSfYERoyPr56nHdXAFYT7DNmPCl33XWXaxX5nARIgARIgARIgAQilsCzzz4r9913f8S2PxANt5xgj46J1rCRtYd4tJJgH3vjWJn9wguB6BfmSQIkQAIkQAIkQAK2JTDu1ltlzitzbFt/q1XccoIdgNLSa48WYxXB3rtPb/lm+XKPN3yyWsezPiRAAiRAAiRAAiQQKALQa+cMHCjZq7MDVURE5RuVnJLqtQ97QgJ2M60ebx0LSdE5rsk44+Q/WFAarUeJnldWy6JT57V1+bFbRbCvWPGN9OnTx1llPpIACZAACZAACZAACbgQWL16tQwYcI7LO3zqKwHvwzpqSalpqRrdMbpamUWFhVJWVlbtPV9f1OXHbgXB/vzzz8ktt9zia/N4HQmQAAmQAAmQAAlEBIEXX3xRbr/9johoayAb6ZNgT0lNPc0VpLi4WEpLSkypa1xcnCQmJbnNK9SC/eZbbpZZzz/vtm58kwRIgARIgARIgARIoDqB8bffLi+9+FL1N/nKKwI+CfbklJSqOOvO0ko01roz3rrzPV8fa9t8CfmFUrD37NVTVq5YcdrNiq/t5HUkQAIkQAIkQAIkEO4EoN36Dxgga9esDfemBqx9UYmJSXX7sKvfOdzQ4YMeFR1liPLkpGRjR1PXWsGHvbioyPUtn59jgyVY8d2lUAr2r776Un2xBrirFt8jARIgARIgARIgARKohcAKNXgOGnR+LZ/y7foIeB0l5sSJYmNjI7ituKby8jIpLCh0fcv353qHkJbmPlJMqAT7E09MlwkTJvjeJl5JAiRAAiRAAiRAAhFMYObMmfLAAxMjmIDvTfdJsCNCTEJC9c2NKnW6Iz8/3/ea1LiyttCOoRDsV199tbz++ms1asiXJEACJEACJEACJEAC3hC47rrr5e233/bmEp6rBHwS7BXlFZKUnFwDYKXkHc+r8Z7vL60i2Fu1bi3ffrtKGjdq5HtjeCUJkAAJkAAJkAAJkIAcOnxY+vbtJ7t37SINLwj4JNhLS0o1tGPaacXk5R0Xqdsj/rRranvDKoL93ffeleHDhtVWTb5PAiRAAiRAAiRAAiTgBYGFixbJqCtHeXEFT41KTUuvrOmPDreTopMLSI3FplhwevIoK9MNktTC7k5QF2os9nIzYrFbxIf9/gful8f+9jd+S0iABEiABEiABEiABEwk8OAf/iBPPvGkiTmGd1ZRKbrTaXwNf3RPFpCmahSXKI3m4ppKS0s0Ukyx61s+PUe+yN9dCpYPe/8B/WXZV1+5qwLfIwESIAESIAESIAES8JPAeYMGabjslX7mEhmX+yzYk5KTJDa2eqQYs8R0TGyMJCenuO0Bs8pwm7nLm19/vUz69evn8g6fkgAJkAAJkAAJkAAJmEVg1apVcu6555mVXVjn47Ngj4uPl8TExNPgmOHHHqshI5NCuNPpo48+KhMnPnBa2/gGCZAACZAACZAACZCAeQSmT39CHnroIfMyDNOcfBbs8Gl3t/C0uLhIsCjVNWEjJFjGPU0IGVnTTcd5baAt7JdddpksWrTQWRwfSYAESIAESIAESIAEAkhg2LDh8uGHHwawBPtn7bNgR9Mh2CHcXVNFebkUFBS4vmUsUC3X94t0UWplZf1hZJJTUiQmJqZaHs4XgRTsWHy7Zk22dOrUyVkcH0mABEiABEiABEiABAJIYPPmzdKrV28pLa1u8A1gkbbL2jfBDpGuwjtR3VZqRpgBgfy8vCphXtMSX1qiC1N1t9S6wj+mpSNkZPUbASfZQAr2Z56ZKePHj3cWxUcSIAESIAESIAESIIEgEJg1a5bcfTd3lK8Ndf2CXXUzFpfGxsZKrFq9EcEFVnKI8uiYaNEoM6flXaahHWFNR4qNi1V/9OqbLOEOqvhk2MiaF9cVIQbnBkqwjxw5Ut55hztv1ewPviYBEiABEiABEiCBYBC46qqrZf78+cEoynZluBXsEOQQxvA9r+nyghY6BTuep6ZpeMeo6uEd8X5+fr5Uah4JujA1XheouqYTxcVSopZ2dwm+6/Bhry0FQrAn666ta9eukfbt29dWLN8nARIgARIgARIgARIIIIHt27dLz569BPv6MFUnEJWRmVkZHe3eX7z6qadeuQr22qLFGOfk56kFPkWFf/X8Cwryjc2XTuV46lld/us4KxCC/bnn/i7jxo07VQk+IwESIAESIAESIAESCDqB2bNnyx133Bn0cq1eYFSDho3qXwVaoxWugh0fpeniUzWz1zgL4rr8NLGOk/KOHz/tXOMNzSItLd39ZyffNVuw0xWmTtz8kARIgARIgARIgASCSoCuMafj9lqwQ6zDBx1uLc6EhadYgOpJqktw1+cOg/zrut6T8l3PgavO+vXrpEOHDq5v8zkJkAAJkAAJkAAJkECICGzbtk26d+9Rq/t0iKoV0mLrEewOX/bysnIp1YWk5eVltUZ3SUk93fXFXcvgu+4q9l3Pqc1S73qOmYJ9xown5a677nLNns9JgARIgARIgARIgARCTODZZ5+V++67P8S1sE7x1QR7ZWWF4VuOKC+lZaW6aNRzbxkjfGOqRoxx4xrj2lzXkI+u78cnxOti09N3TnU9B8/NEuyDBw+WDz54v2b2fE0CJEACJEACJEACJGABApdffoUsXbrUAjUJfRWikpKTKyHQvRHntVW7tjCPzvNdwz0638NjzVjtrp/VfG6WYP/uu2+lR48eNbPnaxIgARIgARIgARIgAQsQWLdunfziF30tUJPQVyFKY6x7bkb3oL6Io47IMDXDQTqixuQbGy7VzCY5JVl3No2t+bbb12YI9j//+c8yZcrDbvPnmyRAAiRAAiRAAiRAAtYgMHXqIwLdFunJdMFuANVoL4iljg2XINzLsZESFqnqgtWaKS5eF6wmerZgFdf6K9j7/KKPrPjmm5rV4GsSIAESIAESIAESIAELEhhwzjmy+rvVFqxZ8KoUGMHuRf1TNSRkTWt8XZeXl5dLYUFBXafU+dniDxfLJRdfXOc5/JAESIAESIAESIAESMAaBD7+5BMZetlQa1QmRLUIuWAPZrvH3z5enpk5M5hFsiwSIAESIAESIAESIAE/Cdw9YYLMen6Wn7nY9/KIEexNmzWTH77fIBkZGfbtLdacBEiABEiABEiABCKQQG5urpzdtZsc2L8/AluvAVrMXnRqVYqzZ78gY8eOtWr1WC8SIAESIAESIAESIIE6CMyZM0fGjbu1jjPC96OIEOxDhw6VhQsXhG8vsmUkQAIkQAIkQAIkEAEEhg8fIYsXL46AllZvYkQI9pUrV0jv3r2rt5yvSIAESIAESIAESIAEbEUgOztb+vcfYKs6m1HZsBfsEydNlEcfecQMVsyDBEiABEiABEiABEggxAQeevhhmf749BDXIrjFh7Vgb9O2reRs/EHi4+ODS5WlkQAJkAAJkAAJkAAJBIRASUmJZHU5W3bu2BGQ/K2YaVgL9ldeeVnGjBljRe6sEwmQAAmQAAmQAAmQgI8E5s6dKzfeeJOPV9vvsrAV7EOGDJH3319kvx5hjUmABEiABEiABEiABOolcMUVw2TJkiX1nhcOJ4StYP/qqy9lwIDIW5QQDl9KtoEESIAESIAESIAE6iOwYsUKGTTo/PpOC4vPw1Kw337H7TLz6afDooPYCBIgARIgARIgARIgAfcEJtxzjzz/3PPuPwyjd8NOsKelp8vmzZukcaNGYdRNbAoJkAAJkAAJkAAJkEBNAocOH5ZOnTpL3vHjNT8Kq9dhJ9inTXtM7rvvvrDqJDaGBEiABEiABEiABEjAPYEZM2bI5MkPuv8wTN4NK8HerXs3yV69Oky6hs0gARIgARIgARIgARLwhEDvPn1kw/oNnpxqy3PCSrC/8eYbctXo0bbsCFaaBEiABEiABEiABEjANwLvzJsn1/72Wt8utsFVYSPYhw4dKgsXLrABclaRBEiABEiABEiABEjAbALDh4+QxYsXm52tJfILG8H+xRefy8CBAy0BlZUgARIgARIgARIgARIILoHly5fLBRdcGNxCg1RaWAj2sWPHyuzZLwQJGYshARIgARIgARIgARKwIoFx426VOXPmWLFqftUpLAT7pk050qFDB79A8GISIAESIAESIAESIAF7E9i2bZt07pxl70a4qb3tBfvESRPl0UcecdM0vkUCJEACJEACJEACJBBpBB56+GGZ/vj0sGq2rQU7Nknatm2rZGZkhFWnsDEkQAIkQAIkQAIkQAK+ETiWm6ueFx3DajMlWwv2qVOnaqD8Sb71Jq8iARIgARIgARIgARIISwLTpj0uU6ZMCZu22Vawt2nbVrZt3RI2HcGGkAAJkAAJkAAJkAAJmEegQ8czZeeOHeZlGMKcbCvYn3lmpowfPz6E6Fg0CZAACZAACZAACZCAVQnMmjVL7r57glWr51W9bCnYs7pkyfp167xqKE8mARIgARIgARIgARKILALde/SQnI05tm+0LQX7Sy+9KDfccIPt4bMBJEACJEACJEACJEACgSPw6quvys033xK4AoKUs+0Ee+8+vWXlihVBwsNiSIAESIAESIAESIAE7Eyg/4ABkr06285NENsJ9rlz/yXXXHONraGz8iRAAiRAAiRAAiRAAsEh8NZbb8mYMb8LTmEBKsVWgr3/gP6y7KuvAoSC2ZIACZAACZAACZAACYQjgfMGDVIPjZW2bZqtBPsbb74hV40ebVvYrDgJkAAJkAAJkAAJkEDwCbwzb55c+9trg1+wSSXaRrAPOGeAfPXllyY1m9mQAAmQAAmQAAmQAAlEEoFB558vK76x5zpI2wh2Wtcj6U+KbSUBEiABEiABEiABcwnY2cpuC8Her38/+XrZMnN7jbmRAAmQAAmQAAmQAAlEFIFzzztPVq1cZbs220KwMzKM7b5XrDAJkAAJkAAJkAAJWI6AXSPGWF6w9+zVU75dZb87Ict9Q1khEiABEiABEiABEiAB6duvn6xds9ZWJCwv2Lmrqa2+T6wsCZAACZAACZAACViagB13P7W0YO/UuZN8v2GDpTudlSMBEiABEiABEiABErAXga7dusnmTZttU2lLC/Znnpkp48ePtw1MVpQESIAESIAESIAESMD6BGbNmiV33z3B+hU9WUPLCvaWrVrJz9t/sg1IVpQESIAESIAESIAESMA+BNq1P0P27N5tiwpbVrBPnTpVJk+eZAuIrCQJkAAJkAAJkAAJkIC9CEyb9rhMmTLFFpW2pGBPTkmWXTt3SVpaqi0gspIkQAIkQAIkQAIkQAL2IpCXly+t27SWwoJCy1fckoJ94qSJ8ugjj1geHitIAiRAAiRAAiRAAiRgXwIPPfywTH98uuUbYEnBvnXrFmnbtq3l4bGCJEACJEACJEACJEAC9iWwY8cO6djxTMs3wHKCfezYsTJ79guWB8cKkgAJkAAJkAAJkAAJ2J/AuHG3ypw5cyzdEMsJ9q+/Xib9dAcqJhIgARIgARIgARIgARIINIFVq1bJueeeF+hi/MrfUoJ96NChsnDhAr8axItJgARIgARIgARIgARIwBsCw4ePkMWLF3tzSVDPtZRgn/fuPBkxfHhQAbAwEiABEiABEiABEiCByCawYOFCGT1qtGUhWEawd+veTbJXr7YsKFaMBEiABEiABEiABEggfAn07tNHNqzfYMkGWkawP/30U3LHHXdYEhIrRQIkQAIkQAIkQAIkEN4EnnvuObnnnnst2UhLCPa09HTZu2ePJCTEWxISK0UCJEACJEACJEACJBDeBE6cKJEWLVtK3vHjlmuoJQT7vffdK49Pm2Y5OKwQCZAACZAACZAACZBA5BCYNHmyPDXjKcs12BKCff36dZKVlWU5OKwQCZAACZAACZAACZBA5BDIycmR7t17WK7BIRfswzUqzLsaHYaJBEiABEiABEiABEiABEJNYJRGi1moUWOslEIu2N99710ZPmyYlZiwLiRAAiRAAiRAAiRAAhFKYOGiRTLqylGWan1IBXunzp3k+w3WDJ9jqV5iZUiABEiABEiABEiABIJGoGu3brJ50+aglVdfQSEV7I888ohMmjSxvjrycxIgARIgARIgARIgARIIGoHHH58uDz/8cNDKq6+gkAr2Xbt3SbOmTeurIz8nARIgARIgARIgARIggaAR2H/ggLRu1Tpo5dVXUMgE+3XXXSf//Oec+urHz0mABEiABEiABEiABEgg6AR+//ux8vrrrwe9XHcFhkyw/3fxf+XSSy5xVye+RwIkQAIkQAIkQAIkQAIhJfDRxx/Lr4b+KqR1cBYeEsHetVtXWZOd7awDH0mABEiABEiABEiABEjAcgR69e6tAVK+D3m9QiLYH330UZk48YGQN54VIAESIAESIAESIAESIIHaCEyf/oQ89NBDtX0ctPdDIth37NwhLZo3D1ojWRAJkAAJkAAJkAAJkAAJeEtg77590rZNW28vM/38oAv20aNHy5tvvmF6Q5ghCZAACZAACZAACZAACZhN4Le/vVbmzZtndrZe5Rd0wT7v3XkyYvhwryrJk0mABEiABEiABEiABEggFAQWLFwoo0eNDkXRVWUGVbC3at1atv+0rapwPiEBEiABEiABEiABEiABqxNof0YH2b1rV8iqGVTBPlF3NX1UdzdlIgESIAESIAESIAESIAG7EHhIdz2drrufhioFVbB/99230qNHj1C1leWSAAmQAAmQAAmQAAmQgNcE1q1bJ7/4RV+vrzPrgqAJ9nMGniNffvGFWfVmPiRAAiRAAiRAAiRAAiQQNALnX3CBfLP8m6CV51pQ0AT7jBlPyl133eVaNp+TAAmQAAmQAAmQAAmQgC0IPPvss3LfffeHpK5BE+y79+yWpk2ahKSRLJQESIAESIAESIAESIAE/CFw4OBBadWylT9Z+HxtUAT7yJEj5Z133va5kryQBEiABEiABEiABEiABEJN4Kqrrpb58+cHvRpBEez/+ter8tvf/jbojWOBJEACJEACJEACJEACJGAWgTfffFN+97sbzMrO43wCLtiTk5Pl8OFDEhsb63GleCIJkAAJkAAJkAAJkAAJWI1AWVmZNGrUWAoLC4NatYAL9htuuEFeeunFoDaKhZEACZAACZAACZAACZBAIAjcfPMt8uqrrwYi61rzDLhg/89//iNXXHF5rRXgByRAAiRAAiRAAiRAAiRgFwLvv/+B/PrXvw5qdQMq2BtrVJi9Gh2GiQRIgARIgARIgARIgATChUALjRZzSKPGBCsFVLCPu3WcPPf3vwerLSyHBEiABEiABEiABEiABAJO4I4775TZL8wOeDnOAgIq2D/47wcy+NJLnWXxkQRIgARIgARIgARIgARsT2DpRx/J5b8Knst3wAR7s+bNZdfOHbbvEDbAegTKKyrFOMorRJ8aqVL0P31epu+Vlp9804eqR+k1sTHRekRJVJQeJ/PQpxKt/+B9fM5kLwL4vpSU6ffF+YXxoPrR0VES43J4cAlPqYdA1d+u9oM3fYG/v/jYGOPvr54i+HGICVTqQOzazxiXkfD3V6rjs7uE70Ip/j71ZOf57s7DexiTMTY7xmJ9hS+HS9I/WePvFuM0xmykGB23hIrBuwAAQABJREFU406+rnG6y5V8SgLeE2jdpq3s37fP+wt9uCJggv3W226Vv+sWrkwkYCYBDOj5xWVSUFSmj6VyorTcyN4QZPo8t7BUjuafqHfQr61OGNgbpiZIWlKcxMedGvAx2MfHRktmarw00M+Z7EWgQL8z+44VSdGJMo8rnhAXI6n6PUhNjNUjrqYu8DgfnniKAPoBf7/42/WmL/C316xBkmQkx5/KjM8sSQDC3OjjolIp0H7G2Ix0QP/+Dh0/4bbO+F4c03G7uKTcEPZqf6k1xRhjcZSk6XehQVp8lSjHBRDjuLFL1r/ZBjpWJ+rfMBLG84ZpCYK/aXyXmEjALAJ33nWXvPCPF8zKrs58AibY3//gfRkyeHCdhfNDEoDgdlpeYGEpKa2QE2X6nj6Wq6UcAh3vl+p5eA5LTP5JsY4fhZKTgr1Mzy3R63ILSlSwl8De7hPc2Oho40cgLSneGNhhYUWCNccQ7CkJ+rlDsOOj+PgYidMfCFhjHefgdbRac/R8/XFI0Od45I+ET93h90UQCxANuw8VyvqfjsjRPPeCwV1B+HFP0R/+M5qnSVbbTEnUvubsijtS9b+HfsDf8eZdufKjHuiTIhVnniYIsO5nNJT22hcpCbHG35in1/I8/wk4x1djvNaxGZZyHBDYJ/SAJi/X12Xax7gRc70xc86k7DcEe7HbyhTqWH40r8TID9+TukZvjMkYT9NT4tSAkqBj76ksYXk3BLt+RxpCsOvfLBJuvCHYIeCN8Vmvj9XDmDXVR5yHz2CkcYzfDgMNxgAmEqiLwJKlS+WKy6+o6xTTPguIYGd0GNP6J+wzOnS8WA7rkaci/JiKbTw/rFYYHBj0IeaPq+UlV1+XqSAv19f48XceEPFIeMBULH5Yapt29QQmLDSwpuNHwXCJceh1YxrW4RLjcJdBXjE60DdqkCwZ6QnGDwisOI0yEiQjJb7KotNYP2ucnkirvCfwA3BOoYqHn/blyeofD8mSFTtlz6ECj0tBf+N7cFGfVnLNxR2lcUai0a8eZ8ATqwigH47r7Ne7n2+TBV9tN/5+nX+7VSfV8SRDhdmQ/q1lQNdm0qFZmvE3Vsfp/MhkAhiLnWM1rOToy+NFJbL3cJEcPFZsGE6KtY/z9Ia4WM91js/lFafEt2GY0fHbXTJcYlTw6+nGOO7uHOd7GKNPucS4qHU9AcM1PsPfLQwoMKQg4XWVS4w+T1fxnqrjdJwK8rSkWGneKFmaZSZKIx2rM43xO9Z4jrGbiQTqIxCsaDEBEew33nSjThH8o7428vMwJgAZjUEbFnDDhUUtahj08cMNqwwG9SI9YBHHUaDvY5rc8drxiPNgbSnUqdU8PQcWnAo//NPNxg33mYy0REnBwK/PYQWEWIdVFke6TtlmqhUoQ63ymMpP1PeS9DCsOWrRSYqPlWS1BKXqDwanas3uHUd+mG1ZuemgLNuwTz77bpfsU0u7twki8VfntpdeHRvK2WppZ/KewNa9ebJ++1FZvPxn+eTbXV5nkK5/Vxf1bSWDerSQAZ2bSIuGyV7nwQvqJpCn4+zxwhJj5qPoRLkxCwLLN8bqPBXouQUn1KjiGJsxXmOWBOL9mFrGMU6XlOh7eh5mQ62eUnQ8TlIDC6zpGJNhWIF7DcZvuL9hFgfPceBzHCl433jEmO1wleOMm9V7Ojj1u/W22+SVl18JeGEBEezvvveuDB82LOCVZwHWJQDr2QmdOoXVfOfBfD0KZJdaN/cfhUXmhBw8XKBHoeHiYri66PmwrhjPT1rQnQtJYTmHBUYfLJcg2p2WeFhkjUMtOLACOS20sPLgh6FJ4xRpokKjiVpymqi1Fkcrtey0aZzq+LHQHxFcx2QeAUzDL1LL+lfr98n3Ww7JMRUY3qZm2m/tWmXIqEHtZNR57b29nOcrgY+y98ibal3ftvOY7FLx7m2CYOp6ZmPDwj6sfxvp2CLN2yx4fj0EftqfJ1v2HJcDucWCv5vdBwtlr47ZB/Umt0CFPMZmGGEwFuv/hiXcaUnH2Ixx2nHUU5AFPsaY7By3MebGqF8NrPCO8dsxdjvH8iY6RjfVMaBVk2RprY9tmjiOtjpuQ8AzkcDCRYtk1JWjAg7CdMGenJwsx44dNf4YAl57FmAJArC2HFdhfkStmVjwmadWmDwd4PMxbYr3dZrUOPSz4/oZ3s9Ta02enh8pCT8QaVjMCgtOcpwxDWssmtLX8InHkakH/DLxfrqeA+sO/C5h7WHyjQBuFP+55Ef5Yu0e2a/iA7M63qZktaah7351ThsZPrCdYd2FRY6pfgK4Yd97pEg+0tmN99QV5piKwXx9z9sUp77FzVQg/UKt678fcpZ0a9/A2ywi/nynESVfLelHdCyGzzjWdGCsLtQx+aD2DRaGHj9pacfnuTpG5+m5JTrbGakpTX3h8fcPCzwCDmBMNg59nqHvpesjZoAwZiNgAQITOH3lI5VZpLUbN6qZmQ3078j7GVxvWJku2K+++mp5/fXXvKkDz7U5gX1qNd9+IE827Toum3fnyo79+bLnQIEc1cEf7izOFUSuC0FhkYnEVN2CrlYeQNB/8IOQqZb3Nk1TpW2zVGmnj2c0T5UurTON6BiRyMqMNm9Ti+GTb6+Xz9fscSxchmnQh4R+OkfdMc5Xf/ZzVDR2a0fXGE8wbtP1A9+oS9IXamH/4rvdRthVT66reQ6sofA37nFmI7n/6u7SV/uAyTsCWN+DG6g9RwolZ2eujte5xiLg3WpZ338g37CeY6x2/IWc/Ne3PxfvKmaDs0+N26fGbFS7kUYuatcyQ9rpWN0Wi9N1Ju6slumGaEd0KabIIXDdddfL22+/HdAGVwl2DIiJSUlSVqo+aGWnRJa3pc+Z84pcf/313l7G821AADHOYUU/pJYYDPpYbHQkt0iOqJvBUT0On7Skw6oOn8cTJ+DP6H6RkQ2aG9QqItpMolrSYYGHlR0+7whL1iQzSRrr0VDdZ7Do0elK01SfOxdUBbWiNikM0/awIv7w8zF5adFGWfnDAZ3K1wVwfgiQ1vqD3KF1hoxUK/uFPVvoGgRHxAmbIAlqNSEOi9Sn+bvNh2T+1z/LDxqh52e9eUK/+JROui101jUENw/Lkv5dmhrWTLiaMZ1OAO6Ixcr/oI7LsJrv0/H6gBpW4BKG8fpwno7dGK/1OdYHwfccVkIm7wjAVSvDmBl1+LvD8t5Ij0xdrIoxG2stmjdKkpb6mK4zdfB5PyX+vSuLZ1ubwGuvvSZjx94Y0EpWCfYkdWWJjXXcERapWb+szPupY9R0/4H90rABpysD2mtByBxjNyzi+OHFSn+EWMSi0Z/VHx1+jht0AdmPaqXBjzBcXMpssNAoCNhMLQI30bHqCpCpC1vbt0qXDi3T5Ey13nTS553UkoNwkc7oB1W+9KbWwL6ZIVIQvqfZGh1m3qfbZP3Ww343BmHgknTh2ZjLOsmIc9tJU50RQWQgptMJYHE5fKE/Xb1H/rVks+zT9SpmjBHt1Xd91C87yrndmqkfezrdxU6iN/zLdYwu0xsiLM5HFBcsuN6yF7Oex+WH7Udkq86A5mqfFOliUabAEYDve4aK9abq+362um511aN7+4bSQq3xyYl6k48oZCcjkWH8ZgoPAkeOHpVmTZsFtDGGYI+O0XjDKSlGQRUVujo838PQZ87v2skb84svvlg+/HBxQCvMzINDABFa8KO7U/1+d6hI332gUH90C+SwDvgIvQjLDCK6wDqD2Ls+W86C0xx7lqJ/Xxj8YX2H5R1Wd1jfDf9JteC00MVPLfWAcGmrj4g4w3jvjq4u1hvI5RsPyLLv98uXq3fLTypa/E2Y0YBoP6d7czm3u7rHaPSYs/Tmiel0Alhg/pWy/1oX+36jB2bdzBgjmqkIuqBPSzmvW3MZqFZ2bmLmYA+BjnEaazZw7NcbpINqVccYDTcY+KofVwGPqF0Yr5kCRwAW9HiNAJak43EDXevi9HnHbClEfGsdq3HA6t5cRTxT+BC47LKh8sknnwSsQVFxcfGVKampPi8SxTRaYUGBMd08bdpjct999wWsssw4cATwY1qilhlsjIGNMI7ogiO4vmzadUxy9Niy87jsVN/0IvVJt0PYrsCRCn3OhnVGhWN7tbaf2SZDep7RULLaZBo/DFj8BCuOc9ETBH8kJswGLfhmh3ycvVtyth2RAypgzEjg2ULXGGSp1ew3F54hA7KaGiE5aSlz0HUubPxeZ+D+/cU2WaMuMXt03HBucOZvH8D9oEuHhkZ4xxHntI1IwYPZT0RngcsRNp/CeI3oWz/sOCo5Oxy+6ftUtB9SwU43F3+/ceZdj+9uSx07ztTZ0c46bmO2tIO62SEcMMQ9NnyKiz0Zvca8YplTEAnMmDFDJk9+MGAlRmU2aFiJqXd/UlFRkeH7vm7dWunSpYs/WfHaEBFApBcM+rDOYKOZn9SdYLtaJWGhQWxe+KQjJq8RC91XP9QQtS3cisXfa5S67qYgeola3bHRR0O15CBkJBY+IYIGdufERiCRulMfvq8vLd4kH2hIR4QPRVg6MxJGSrjFtGicLL++4Aw5XxeiIswbXWMcdCEgd+kYsmrTAXnvi59kiy5sRGQeM6zrKAHrPBBm7wJdQ3DjZZ2lbVPHzLCj9Mj4FxsQYfYzR0Nk/qhj9M86Xu9W5gd1/HZEfdFdZPXzE3owWYcAIh1h7MBYYUSUwZok3XgPbjOd22YY4X0RfQrrMmgAsE6/eVOTjRs3So8ePb25xKtzoxo0bGQ4tJSUlMiJYse2wdHqX5WSklqVUU2f9oRE3dkx3hHWzHldVpcsWb9uXdU1fGJtArDSFJc6tpDO1VCLEOs7NNLLTxojecuePNmhvo879TksZkzWJwBXjQY65dpGLTg91QJ5llpxMO0KIY8NnJwbfVi/Jf7XEIIGs0PPL/hB3l++Qzd+0TUWJrsBwEVpkIrGc9U9Bq4ZrTQ+sxHb2f/q2zYHiHIsPF/+g7rCbNgvy9bulf1q5TUzYXYJG5ANUpek8SO6qLUy3bBM+mlzMrOKpueFIRjjMMIxwvUFLokHdMH/9+qXvlFF+3YdryHWjR1GdZaUyR4EEvTmEyFju+t4DdHeTnfwbamGgEY6ZmfqZnsQ9XBxZHABe/Sns5bde/SQnI05zpemPhqC3Sm6nTknqz97jPq1OxOm1fLzsdmF7uaoi1Odn7leN+GeCfLE9OnOS/hocQKYUt2tlkdslpG95bBs3nFMQzHmS67+4BbqLnew0GCraSZ7EIDVHRYc7KIKCw6iFDRW/8gzNaoJFj11RrixCPG3RgSMHfpdfuX9TbJ01S7Dumu2awBukBC9p+dZjeV3g8+SHvqjG6/8I9UFCaISN0qYnZu7dLMsU7/1Qyoi4a5hZoIwj9ZNbvrpTdKNl3c2vtvYTj6cLZJY+H+irNxYPLoBIl3djTBe56rbImKoY6wu0agw/kZBMrOfmFf9BCDEcQOKna5Tkxz7c2CNRhcdr7ueoQtV2zU03Bwh2sP5hrR+UvY644GJE2Xm0zMDUumopOSUylK1rjtTUnKSLqxyRD44ceKEJCQ4LOmGr3phgVo3kgzB7irWce2i9xfJZUOGOLPhowUJYLoa20k7NshQUaNiHRb1jTr4I3Z6rlpuInmDDAt2mc9VwkJVbL/dWl0GHD6TmZKlIfEQFhIWHOzQF67uMjnqhrH+p8My/4vtslIXPgYiGcJRf2zPUD/UKy/oIOec3dTYfRMLfyMxISrPVh1L1ujN/3u6o+n6bYelvMyx82UgeJyt6zZGXNBe+nZqYqzfCMfF1nB7wYwFwjHuVePKFnV/wZoiuCtiPVG53iCZ5WoUiD5inp4TcI4nGbofxxkaDewsXZPURcfrtrofR0sV8cbGejqrx2R9Ah8uWSLDrhgWkIpWhXVESMeERMR2dsS1LS8v08WkhWq1izPisztLLy4uktKS6mGhEvW63NxjVdc6z+WjtQjs03i8iN6wMuegER95r1ohD2MqVRealurgj9CNZlsirUUgcmoDizssOPCHTFDLb7MmqdJKp1wHZDWRPmc1Un/JFCNecDgS+XTdXvlMj1XqlrFFb0YDlfAji4VkWWc0Ul/25jI8QhdBgq9zke8nzkW+xoLHQJEXaa2uX301Ss8Fuobgkl4tjZj4gSstNDljh9jVeuPznW489d3Gg8aeFwXqFgNrOsZrjtWh6ZdAlWqIdtVfmKmDxT1TDSu4Me3XRTdqU6v72SrimaxPADNdGRmZ6qLmcDE3s8ZR6RkZldHRMdWixJTq5knFupDUmWqKdh0pdNDQgUMt85VauWHDhsl7773rPJ2PFiFgxOZV1xf4O8JFALs+btGdSLeqzyMs68d1YxlEfbFjghiFD2CCWpKxuj4xIcYIa3jyftNwC4HftsdJp/Rh0cIsRJl+p+HzjM1H8OOI6WgsnMP23Xb9kUxV60yaiktEJuioFpz2zdP1SDMW7cGlICGMfCXnfbVdI8T8LNs0YsZ+vUENZML3r6G6xvRXC/s1Gh8cfOF7GkmuMdjKfr+Kyzc/3SqfrN6tOxwX6wL1wI4rDXVBdQcVMIN/0Vqu1sW/4bCrJKzlYIn1F3AtwniNRaXbdMyGVb1YXRWx6N9uCe5jsYiAokIUs3pp+veByCixOoZjLwnMSsXGVA98gfdwwNUJn5wwxmONiKPGJbhzuqYi5YKxG++X6FjtDJCATftK9TUe7TZuw1UGs6Qt1bDSQV0ZOxrjdroRTKCNzpqCTbjOkLr2rV2fX3nlKFm0aJHp1a9adIqccWeAu4JyN5smRakSgv+60wLvWpNHH3lEbrvtVte3+NwCBOD7COt5tm4as1Q3MNmw5ZBsVh9IDGza1ZpgUbdARX2oArYpz1T3Ducuc40yEqSp+mxjUwokRO5orYOdpwkD+n4VGoc0vjx2CITFELGjsSAXkXIQIm2/RmKw4w8mGMB6gzUouKFJ1BjB7fRHoGuHRip4WklXnXpFpJlw2TXypcWb5fVPtshRnT3K174LdMJsRk+dtfjNJWdKrzMbSXudxsaOhpGSflZjALa5//dHW+QrXWiKv6VADytJejOOG6UrBraVWy/PMm6S7M4bawDAcp3uCvvfb3bK9/pYoN9fhMQ0mAYaaoAAJmpklGR1z0vDDs5qNIDgbKZjNdbbZOi400z7EbsGu6am+h6OxJPrQhBL3hlTHqLdNRkunnqTg71D4NO/84DGode//TyNO48dXAv1PTuO2xizjZlSfZKhRpVGDfX7PqCNXNyrhfJLNsZsVw58bh0Czz77rIY4v9/0CmlYxwaVZXoXWqYW8/oiguA3H5sswa8dXyRnWv71MuncubPzJR9DTAADGgaxn9XP8QcsUNIdSTerleaAik64wFg9GYOUWlySdaBPT3Vs+Zypj8YBS7H+WKfoZ4gWASs7Yo4naexxvOdcfJahVhxER/E04bcwX62CWHBbplYsWGZOlOgNrLLEwrlCtXxB/CFSQx6eQ9DrjwGsYc5NSbBI1w4Lv8AoQ6dbm2oYSEST6aQxgeEz2V7dDOAqY1fh7tyO/cX3c+SNj7cYUTPMiv9d3/cIm1j1Un9quMZc0ruV8R2taTWsLw+7fY4b/1I1Cny6Zo9xrN180JQNqjzhAKst/v4vVzek24afbazNgAC0W8LOpJjNw+L/bTrrmfOzY0Hpj7or6UF1YcSeF1b3U8d4DQNKsi6ebKjCEpGpYADAeI2NrTCOw6IOi7FTpKfoubipxdiN9TROQ4uz//B5SkKcYXmH1IAYNw7lAddN14SQxDCwYNyGhT03X8dnHaPxt49ZCezsCrGPnV+PFZwwNpI6kquPuj4A52AtgNWT8TunnDppEIFOrdXi3jrTCChwllreG+lNEJO1CAQqvGM1C7s3TS4oyFfRHq1CvZOsXbPGm0t5boAI4IYLVvVj6uqyUUX6Ct3pcemqnRr9pUB/FGClCVDBJmQLEQk3F7gS4Mc4Xl1cGqmFBUKojfpfI1whdvNsq2GvQmldOKQLc2G92a9Cfa/eAOGHFe5Fe3WXwWNqnS9R6zz6AH2BH1orW8ailDdYI3Z7f/UHxiZAAzo3Maas8QPqck9uQg8HPgv8KB/WyBkvv79R/q2CPZjJECx6g3hZ/9Zy49DOxoY+ECLhnApVREEo/VNnNN7WhaawZAY79veQ/m3klhFnG2MDdpS0S8JYjLEBYjOvqEy+2LBPln+/Tzb8eFh2qjuMlZPD6otoPRrl5OQYggXumPGA+0b7Fupqh7FaZ5ra6QF3JQjzUCTnLPM+HbN/1rDFO3SWdKeO1dt26XPljBkMGFpw8+mYebb+Oi64f3bT6FR9uzSVwWocgGiHccD5+xkKzizzdAKds7rItq1bT//Aj3cMC7vn1zt24cL5CPNYqV/ym2+5WWY9/7znWfDMgBBAlAYM/GvV/QW7DG7VKertGksd0V+wUMnKVhqIxmaNdJpUV8M3b5AoLdTy21JfZ6bprp1qTYcvOqzqOBACK5T+e7DywF8SB35sc9VqA9eZAmWP+Mh7DhfIPvXnhaiHhQzxkY3NpmpYhQLyJfAyUwhyiHZsvtRMmbdHdAK13PRW946+ZzUxYgDbyUr8k37XESFmgW7Y87HeqAYz4ccSfrq9OzeWS1VE9unYSLrrQrFwTpvVv3qtum18/O0uI+Y6LMXBdj0YoDeaIzRKTw8Ng9dZrY92SRg/cIO5RsfrVZsOGWM1Ir8c1jEjX2furJowVieoS10jXUPQVF00ztCF7BDm2GHZcejM5slZUIzb6XqEciMg5zoubPqHmVHncVzHbYzdRkx7HaN36lqX3XrsPVhozKaWw2fUogauGBXnhjFLZ0M7qzsjwvYirCyiyWBW2TnLbNXvUKTUa/ztt8tLL75kanOrosR4kmuM/iAlJzv8gvPzVLCrheC11+bKb37zG08u5zkBIACrAKYCEf5r96FCWfLdLlnxwwHZrVOs8OGzWjKsM+rei8VGWDSDAwN7B3XL6KA/uNiquYNaaDrqkapTqXZKR3RmA6HtMLWNRWM/6+PPetOEHwtMy2J6Fu5KVrW6p+n0dWMd9C/WqBvwlWys09u4aYK13Q4/At/qGo0v1u+XbzRCzBqNrBGKhOglWfrjicWQv+rb2pj2t9NNjyfMHK4wFfKlxlr/QG+MNm47Itt0Ri8UqbOKlXM0Usz53ZrLBd2ahaIKXpWJsRo3/Y6N6vLlk+w98qHuFYDF/8GenfCk4hiv8f3FDBKs5Fi8bvih6/e8nY7RvfS7fnbbBsYagpp+6J7kH8pzYH0/mKuR09TIghlpxLbfoo+HdS0TjFxYy4S+grHLigYvLOJNT0s04rZf0qeldG3XwLh5CueQvaH8vnhb9r///W+5/vox3l5W5/nqEtPQi/vIU37rTsG+a/cuada0aZ2F8MPAETiu09BHVKx/pSHsVmjoL1jV96mlAD7XCP1ltYSBH/54GOyxS6HTQmP4PeqUtsOaHnvSB9heC/cQUcZpwYEP5TG9YYJ70k6dhkXM+40/HzO2EccPs9k7b5rRz0YUB7WetcJ0tlrOzlUB1E/DQGLxF3xSrZ4Wq6X3LXXN2K5uSrhhDUXCjFCG+u4OHdBWfn1Be2mWkWRsfhKKugSqzFwdcxB56sOVO+U9nc2AL3CeWotDkZroDWY7XYfx63PbyW80WozVE9YWGTMTenO5OueAjgsFxqwc/LKDPTvhCSv4nWNxfyt1S+wEdxc1qLTXsSFdF5Cm6HcdbkhYOIo4+Ha4qXdtMwwnWKMEg0quzmpgxgPfYxi+turvKOLe/6gzdnCbwe+p1RJm9fB7mql9gF2tu+nNEzYUQ6SqM7SfTqk1q9U8Muqz/8ABad2qtamN9dmHHYK9V+9esnLFClMrxMw8I4CBBv6jEIKw6n6qUWC+Ucs6tmHHQiWrJLhdILJQkvrdwfWiAVa763QqFjlmtct0/Ag0TbOd+4UnfOGmBBGPyA+wuK/dekQXAB8zpr0hco5rBBoserLaQlWEFIvRH+ALeraQQbqIsotabvAjDcuNFTeogfULi/fe/vwneUH914/rWoICFZWhTIN0lmKIzlL0UteYLBu5anjCbLu6bqzZdlg+0RukJRrNpL5gBZ7k6es5SToLl6qzQNdphJ5bfpVlWIOtKBwxs3ZE11f8uCdXvlUXmGxdoLtG98OoGfHEVw5mXmfMfqpQh2tLQxXrLVWswzf9bB2vMfMZ7lGQEP8e/YQNBWFk2a+bVh3U9UpwocHGg1bbr8RYS6DjdUe9cf2FGlh6q397H41WhRspuJEyhY5A/wEDJHt1tmkV8MslZsI9E2T644+bVhlm5DmBPTqAwFKzUheWrtDdHI0IMGq9sdr0HcQfojm0UcHXo2NDFX8q1FWsZ6r7BfzRU9TanqQHFptC3IdTwsIyiBlsHY7oM5gNOaiWyRwV7VhnsE4FPPoNN1lWmnJFP2AqHLMezXUtwQUqPhFnHBY2uMlYLWHaGjMb/9Y44C8s+MG4SQq1tbK1WrjOUKH+mws7yGUaOjOc0nIdc/6tMxk/qCvMdo0+he95qBL8eTHGXHvpWXLLsC4qUBxrXEJVn9rKxaLHL3UW9Ft11fpBb3YgArH2xUp/96i78XevIReNqEd6s3k2dttU9xfskIzZT0R7SdZZuHAbq137DTdRMIZhljRf1ybB2r5ZLe3f6g3WJhXxGK+tNEPqHK/RNxDp3VWw99PxGqK9q7orMYWOwMRJk+Tpp542rQLGxkme5oYtDBDWEQkW9nnvzpPhumkSU/AIQJwgJi0EH6LArNWtwDfoD4DVFjYiZFcDFXxNdPBvpYuSOrbMMMQ6NoDo0Dyy4lS7fjuw2AyLI39UoZOz3eEis1d9KA+pkD+ii1atZr3BGoNeupCyl/4I9DyzseHG5C5usmsbg/0cawf2qAD6j7pnzP1wsyVEkLFYWm9Kr/llB7lCQw/iRgcbKtk54bsLl47P1uyVtz7bqgv0Cgx3ASu0aaS6w1w/pJOx8K6pikurJMRWRzQpWGs/Vn/19Tpe79EZN0QmsUqCSNeAb4IN1LCXRTuM0Wqt7WpY1NPVJS7RWOhvlfoGux67dXz+WSOtrdMFwjnaj3vVZebg0ULdedYR+91qN11tdRbkLL3ROufsZtJXQ8220MXBdoqgFOz+DWR5C3XzpFG6iZJZyS+XmAMHD6h/m31W5psFLZT5HNAoAj/owphlurDuI12sdFRFHnZ6s9omSIjJ21MHiz4q9gZ2aWaE90IMXuwMmaCLl8PZQlPX9wMWd8QLR2z3Il3UhAWqq/WHYLVa3rL1wPtWiguMH3NYbnDj1VP7sp+GfrxAF/g119dWSVgjsEHjVy9Vn+oPlv0cUhcNJxNjmlpvWs/vrW5F6lo0oHNTI/ya83M7Pu7StTHf6Hf06/V75cvsvYa/r1XEykU6i3H5ee2lm4rMM1ukWwYv/KKXqlBfpmEb12vIxv0q/rDzZijdiGrCcbrA9VV3CkTd6X5GQ92fIV03M8JumtFGlJdI2rm3Jh/cdCG+e1FxuRzQRaqr9aZr9Y/q1qR/CwfVfcZqIZPh0oTf2i46Q9JDreyD+7QyFgfXbBdfB57AsdxcadK4iWkFRSUlJ3s8oQlf5Ph4R6zbLN0o6WvdMIkpOAQwTYddOHGHv/yH/bJOB4wfNKQafKStkoyNMdS9paP+YHbUAb9z+0zprO4vndRawzt8970Ei+U2XYewSX0lN6ro3KpuTtvV371Ip2StFDUiUfsVEVDO1h9zLEZFRAJstGSF7bF/0L+Jz/QG9huNWrJChVEoXTRcexk3pe3VWpmlkUyGDWwn/VUQISRpzU1iXK+x4nNEhYF1fYPukrxo+Q5Zq2PP9j3HLTX2wDjQv3szuah7C+nXqXHIMeJGBi6L3+vf9HJ1Wdyg7kP79YYH0UeskmA8SVMXitaYAYWPun5Pu+iBzdMwi8Z0OgH8HWzT8flH7duNOsuNRanb9G8hV9ckIRKYVcYe1ByhklvrbPZFcGnUsQfjNTayYgougYHnnivfrvrWlEKjEpOSvBDsiPDh6PBbbr5Zpk17zJRKMJP6CRzVaf91Px2Vr1WQLF2xU2N9FxqWWI87r/4i/D4jXVerN9J43leqpevSPi0NkY5FL/AzjWQLTV1gYWmDIDI2/dEbsg+/262hOXfLAWzEpGLeKgniE1bjxroldpcODeUCDaV3hcYbb6ARUUKdvoFP9Zc/yQ+6JuCnXccs9aNpxExWV4MxQzvJYA3ziC3Z7Rau1AhDqDN7GHvgcgSBUqFRTaw09rRRN4AOahy4Wl1jhqhFMdQJEbpe/2ybLPpmh+xWgXdULbMQ8VYSdA3UdaiN3lBepDNAV/Rvq+O17nuhs2lYtMvx2v03CP3nvIFFKOVVamV/X2f2tqlwP6AzfYg8Y5WE8Ro3ZWerpf0XOjOK8bqLhk9mCi6BSZMny1MznjKlUJ9dYl55+SUZOXKkKZVgJrUTwMC/T38scSe/TC2I63Q6bos+t5KlBr7qTfVuHhaarmqB7aaPmFJF3F67bnNfe48E5hO4ySDyDxY3wd/1e5092aTWud36IwDrjVVSkv6gN1bReb4K9mt+2dEIJ4bFaKFYL4ybHcRS/nj1bnn5v5uMuPfH1EXMagki6JzuzeVcPS5UC3A7tXTZKWEW6AudwfhKxx/MYhy20I2kk2O63jg20BCaN1/eWa48/wyJVbESqmgxiNq1UReWf6w33t+odT1f3WKsNFuGaF3wc+6ETXd0vMbC0iw9MF6H254Bzu+H2Y/OHVR36fiMvoZ/O9aTIaTyIV1gbJWEvwEYWdq1TJNBOvb06dRIOuuMNxanMgWHwH/mz5err7ralMKMnU7ruiuM0tUo8GOtqHCGCsTSU5Eff9wsjRuHfurRFAoWzQQ36/k6zQYfZwz8H+mdPDbjsUrC90K9pKSjWrbg33xJr1ZysVprmPwjAJ/Jz9VPGLH1v9V+32GhPne27Bx1i7l+yFmGyxP82fFdCHZC2Mwi9fl//+uf5Zl31sshCwpJMIGVPVPFZDe1dI1TQdlXF/Bih9ngE/O+h3BTtHVPnsz+IMcwGGDWx0phY11bBIvi3Vd1NxafJqtlMdghSMEKG2R+qJvXLdJZ0M3qMrFTI4xYJeFPFJZzBAG4QGchBurf8AB1JbL7Ymgr8F2hlvYl2btlrUaSwUwfZlPwfbBKStEF753aN5RzdI3Crwe2NYwGnEUJTu8cPHRIWrZoaUphhoW9qLBQF06cvmod7i/xJ11gUFpZme7GVnxCzu56tsaWXG1KBZiJewL4W9+nK9ERv/tTXbT0nQ4EO/Q5QoFZJTXTTUvg89hdhUgvXdyCWN1tdAMHJv8IYMoVkQmwgceBk+Hf/MvR/KtbaN9nqR97A3WDggU5FOIT0ZIQ4x6Lr9/6aIuxSZX5LfU/R9zMJOg+BO11bcfI89sb0RsQyxpx7a2ccONoxFxXg8F8dTmCHzYsxVZZaFqTHQT7NZeeKcMHtTcWuTcJcghSfBdhbcVM6Ne64y5me0K1oVRNNlhYaog2Na50V5c2hGk9Sy2tuNkO9o1NzbqFw2uE7UT/Oy3tOXqzht9rqyTMdGfq3wN+r4eoa0wP/Q6cYZE1SFZhFMh69O7TRzas3+B3EVFp6emVxUXFbn2vsMg0MSlRLUTVf1jG/v738uSTT/hdODNwT8A51b9GfyjhIwfL+vf6Y2mVhGlTLELEdOol+sff24j3mmlsw26VOrIe4U9gt97MrNINaL5cu1c+VdGOuMlWTo3UZ3jASdcYRNpB+EGITCsmjEGIbY/Y4YhwskJF6C4NR2rlhBuji/u1lgt7t9SFp02MTX6CUV/cYGO2Z4XuXPpf3Uxqg0aDgXXdCglWdXDJ0Btr7FaKiEXYvbirusAwEID5PZSjLo3r1Z3xYx2PVunaGoTvtNKO4y10QXF/HYPO09mV87s21/1Q4kPmOmY+fevmeMedd8rsF2b7XUGPNk7CHzyEe2ysI47wc8/9XX57zTV+F84M3BPASvTjulXy/GXb5SP1g9ypd+qI+WqVhJ1Ke+q0fl9dyHJOl6ZG7GP84XOKzSo9FBn1QKSG91ftlJWIwqH+o1aKbe2uB3CT2xw/mGrdvEoXR2JPAljZrfh3g41jYDV8RzdI+nzNHsM3N1/HJCsniNNuOi710RCal/dvLb115i8YCTM9mBH7XOPTL/r6ZyPUX64GCbBCcm5cd77uWDxA43J31kWHbXR2J1N9mK0Q4ckKjMysA4IHHNKZFew6vkpv4NbqzdtutbxbJWE2FGuQzlODwZU6BmE9TWZKQsSGWQ5Wv8ydO1duvPEmv4vzSLBXlaIDYpyK9vXr10nHjh2r3uYTcwlgam2LipH3dBr6M11Qh13VrDANjc2QsLjrTN3B8WKNeNFHfxyx+yVC1TGRQLAJrNVZp3+pK8yaHw/KXrX+WsmS5Y4FDB+xOjXdVaejR+kOqPj7Qag1q7kkwPMWoUURLvNdFexYP4O9AawwBrnj6nzv/7N3JvBV1de+/1dmAgSSQEggA4SEeQyTEOZRBRTnVrTqrV77Otz2Tu/23vf6Pq/v3dv77tR3a321WqtVawUEi4iCyDwos4whhCkjgYSQkDAkor7vb4eDkOHknOScs/cJe7XHQ845e1p77/9e/9/6rd9SwB5HMJoGVWvRjH5mMkhiME1++gp0XY3QdmadM1vJ9GzaW4jcpafeK5hb923dUoLRJHEhVKxpyPupgZfTqVi+HZlzf6WC1GM0xjsA0r5BGRfGqfLKakddFwLcRB1Tdlydx/Vs1/3jWnA8kJ2dbQYNGtzslfsXsLO5nnFxJi83p9kbdlfQsAdWk05bgd7x8VyKlnhwqijYCfUrXUBlRoMOjgFVHwu6nghfXQohdqkxNOxB95vbwQM7qet44U+HrQfipcvOa/Ne3zlQsWkPpE8ltVYjp5fguKI/0WFW7cw3a8nuHYGWl0+fAKeMQfX59ObPIhijEpgEfe/ewWYO9Jhgmqgw4vnvhPrw1rrj5iiqTmehaTlpYpOusZpCwwmg60P7dDNqqiMFHdeC5wE9qyUWcZYMlcYoIe27jpw152iy5BSLRmdfPSJmc48sJHCPUH8IwATXgueBhMQkU3TmTLM24HfALinHd95Z2qyNugvX7wFxcC+QUltGi/WlaPhKDuyKA3i5StlHotGb2LOzmckNPpaHQErPLo4LNOr3qvtpS/PANfjClVA2pAv+m/cyTTaFfl/wmRMmtb74uj1paUkQThkRZx6VNCYIqFOUOjQGieLx9oaTZhUa4lKF0WQoXKwVQUd3gpHn7h1k5lJfI0AhWBkMcfxVlLsZZP0dxusiaDFO6VKsTGgUaPpU+PyTeaUwdscxUXQtdB6QgpWaLO2j0djqHbkmO7fcEo3QWGW3tVY3VIL0GaN7mYempljgm5O6V9vtn2Bs/0GkHVcg8dgc8ztg/8d//Efzt3/7N83ZprtsAx6Qfu9+0mjrSaNtAN3Sje0EtEZp/KGk0NIpVppG0dKgxG5W62MXWW/gRLofB9UD4lefKLpoqXEsI7DMsxDgoG4yoCtXoalS0KO4n+6ekGSGQ5EZ0LurI1LSHg3xD7bnmM1w1xWACkkOF1NaP5Jujg8yEVIw0pdANVjdHUVdVNMcUYZUQ6GJjVMmjQMRBEgnGzoRdF0FuGpVH6yJS7hcG6HeT2Wq1HRM99Rqnum7ycRk8Xy/zPhlt4mep3FocEqUVQg/CU77+P7d7d6tFr39f/mXfzX/8A//0Kxj9Dtg/+ijj8y0aVObtVF34Vs9oBtbD0V1bJR+72EG/2OkV51gQgOlMKDU2SSC9YEEFurW6JrrAbs8oA6DUuRQI59NTGyLHdSoxB+fKGOlifB0ENDZ6b2tpjV2TYI9Y9AWfKpOuwdBBbPhsIejRYCqT0nvZSmiKAhRBiOQprFa6PphlGAWbzhBDUWJOc816IQaijYgp2puprH67juTrAZ2khB1zT4PaLw6eLqUjOBZs47AXdSY6uprjpjc9UCeN4Fx6D5oMfPGJ1qTujaACa4F3gMbNmw0s2fPbtaK/Q7YS0tLTefO7gDQLK/XWtjTNe09UK2XVmaiCHPFXHXALFy7GaMbOq6LWTQ9xcziIaib2a6gopbb3D9vUw8UwhNeCbK5le6bmXCsL1LQFY7WFtSzQ/s25qFpfc2z8wZRvG0fCipZwqvVX5o/rj9uXll11KLiOV11p6FzbrVjp5huzMBYM39cgulPkXwgTR2Jc0HXd8FPXgx3XZQsZUKdgK53JrvQg9qi+TTHeZzC2w5tW1sTwUAev7su/zyga6Oa+2sbAfvvVh8zx7leyqGaaZJst+lZLiWhJ+7qbxbRCC+SLrhuUXJwzkpFRaWJiopq1sr9CtiHDhtq9u7Z06wNugvX9YBkoE7AdVtLoZdUGS6D3thNhVG6TK9xpMom0NJ4AunVwUld6+68+4nrgRB7QAomr32UDcJ+xpyjuVS4Bpaee2zCsDgzZ1yiGUZRYKCDS19PjbjYB0GMhQB+xGToS4fQ8Xzd/5t/JwpfbHSEJT375JxUMyLA8o7i+G8mE6EMz6dMGouYQNptHopDKvrqup5EhdGY7YIrdp+Zr7d/DI329fsLzacE7rugUTkhI+PZu5nUe8y+PgaJRuZacDwwKj3dHDxwsMkr9ytgf+qpp8xLL/2myRtzF6zfA5KA2sDA/ykPgJ3czE64kfXQawMCuGhWmvkmSI101juRanXN9YDdHsgCofqPpQfNtgNF3CtfWNJ6du9Tc7YvKcIk5FEfntzX3MODUzzsUJpwPlFh3gYsUMOf3MKLodx8wLcl/6moTl0d//KhYWYCwWsg7UzpZfP7tcfNBjj+Z0HaBbDYbZr8abyePDzePH13f9OXrKi01kN9LdntBydv/yI1DuptIK3+1z/McgSX3eOvfkihSrnqPjIzGQG+XzzbcN+NefbZPzevvvpqk13hV8D+/PO/NM8991yTN+YueKsHlBITHUbdTN+GC3mEgpRCkC4nFHnFkVZNJoiYNz7JzIW/3p4HoCv7dOv5c/8KrQd0X5TCBz2ArvHvVmWavVklZKLCRx2mIW+pZXwXqAzSyr4bHmkPVE4UbIXCpApztuyq2UjwuRx1KimdVIQpxehmf91BN+aU+Ejz9LwBVpMYdfVsbtGlpC3V0O7kmYvm92uyraJnFZqqT4bdFgmgktQr0kwGXb93YpJVZ6Qx2zXneKAacEEF8+vQ6l+CqpDkUkscUn/TtUs7oy6oi2alIoeaAJXKfd4H48p58cUXzQ9+8MMmr9qvgH3r1i1m3LhxTd6Yu+CtHhBvtPLKNQupeem9IyaXYP2aA5puCJUZlhZjJoLWTByM7nqqWz1+65lz/7LDA1Wff2mOnyk3uwnUl288YTJPOaMwO1C+mAXfegYNyUb0jTZ9SEsHGx0VhbYQtHj/yfNm075CswYZRycoWATKn73JXNw/ta+ZSJfPVBBnSTw2xzRhzC2GOsSE8e212WY3HHanWC+ONWMkVBgojBPRXO/czGN1ynG1xP3YAUD3Ib1WPuNdfQ6cYuqC+vS8gWYBBahqsOVm1AN/Znbs2GEyMiY1ecV+BeyXLlWatm1Dg/w0+YjCaEELrYGPq9bfy5hxn+Ph6QjuOkUos0DVH53ZzyTxIIh39XvD6Kpqubt6uQrtdZSUtqG/voUAMxe5tJZkiXGdTRoc5AegxkwcEhvUAm9l9z6/9pXZT8CwjI7KB46XmJzCCjJ+9qPFgTqnasE+CQWeiXQ8nUABagwoYnNMTZK2wj3eyvW3He31k3CSnWKi/3xrTpoZjSpOAkhpc7MJTjmulrgfecWXTBY02FXbcniddswhSvpz3qQ+ZiagwUDGoThXDS7g56a6utpERDRdtMXngH34iOFm965dAT+A23mF4rN9QgCi4rktpMnKSPfbbe1optCJdPxCbtzv3DPAmmW7g7/dZ8XdvjygCe6KT3PMeoL1LFBOp6STA3V21PSnK9SNJ+8aYOaCtivAVAfCYJiUTkouVlmFk7+HT5sDcPCF6gHsF64I2OF2ZhwbgMZ9Bgj7gvFJpheKV80xNcJZsvmkWY04wGmC9fNl9neuFHddqjij6Tz93fsGmyEULrdr3Sro2Znm+PF2X1bAQwWZ9Tc/OmZ076lmzQnNlER5HcvkdjxZmmlQq9KgxLoWeA+MHjPG7P9sf5NW7HPA/uSTT5qXX36pSRtxF6rfAydBCJcxw1bjjePorl9xgJRjd9D0lMRIeOsJZuHEZNOuzR1GnU5dcz1gtwfEX5cs2mpUTErIRjmh2C+QPpHSh9LSHg3xsTS8SaSWJBhWjKzcjmPFZjvFppv2FpgSeOxfQfloSaZANobxLIPg4+m5aRbNqDnHJ/7xiyuPmHe3nDYXuRadoE6kbpXS0R5HoeCjyIOmQP1xlWGac5aDv6yoVaLDLqbp2xsfHzcXmPhVVNoP1rWi7kMSzkMoPv0WjcdGQ4t1LfAeeOaZZ81rr73WpBX7HLD/4hf/Yb7//e83aSPuQrd6QI9FUV+OEKT/9oMsOLnF1k3rhOIlyYJNpGW6uJAZcCHdwf/Wc+f+ZY8HqkCEi2g48iK1HgrYq0CpnHC/BNobQrn6JESa4f1irEYmQ6E6dCAoC9R9KCrMlSpaplM4+T7t0ndlFkPtKGPyY3/3xUD7UgFIu3ZtzHiC2ecWDDQDEroCQDQNfRYd5gJB+vPLDxGwn7I6wNpNX5S/1NV15MAeSO/2NLOh/8Q3M4sQ6HPgrq9hD3wAj/1P23MssC6fDJfdJsCgE8XL/ehb8Nz8QRQw97TAOhevC+yZ+dWvfmV+/OO/bNJKfQ7Y16372EyePLlJG3EXutUDemhWU0C3j46mv1p20HzGu4IPqRDYbWMY/B+akWKG0tpahW8uum73GXG3Lw+oV4GCzFdXZZmNUGIULDnhfgn02dHDUQF6Enz2B6ammDsJNkXl6BggaowCTzWe2gdnXXUzh6EWCSl2gjJVMHwpyshIMhVPIXU4lGJeFdO1JpD319StMp+C01dpKvXhp3mGq8/o/3Zbd3jGc1AWUhZhBPQfqeG4Fh4e2MM9KErsZuiwKkB1gqmJUlLPTub7Dww1M0b1smohAgUWOOH4nLAPmzdvNjNmzGzSrvgcsJ8rPme6dXUb5zTJy7UWUmHXBaTThKz/ZsURS86x1k9C/qcChW/wcJsyIt48O3+g6RsvHd92Yc2F1PNU/MCrcE/LkV8Td1CBSUsM9EJ+wfixQaGaEXT0lOpAJ979RWw0j83Mu2A+o0ByJXSEPTapc4h+oBqPq1c/N1VcU8G0KALLCbSXn0Cm604a4MQSmOnB6X+o+fVe6tovp+mPgoRP6Pewjd4PBeiIB9PacO47cN4/B6CQ3+yIcfvT8G0eyhdj4XkPIoOo69FfOwkCehT9/2XI72757Iy/iwft91LCWUSx6WSyohIHCNTELmg77K74hgdOIeuYlVeO4tVJsxFamlMsnqLlZ+8dZKYTsHcDcW/K/eKUY3HiflwoK6MbcY8m7ZpPAXtynz4m+1hWkzbgLlTXAzWtrS+ZnZlnzR+RB8vmprXbhES1plhpztje5kcPDjW9uGn1WTibAvNyChVLyqtMNuhs0YXLVqDVEtFEJ58nNd1KgIudGNPJevcXsdF5/BglpQ0oc+w9cs42dY5oAqJoAufikkvmAhzwYJoC3Sj02McM6G4ep2V4DZ2jefUkGncK6Qz7OmOOshSlcGeDzcPuDGWje0xHU8lEoZht2zFZjufaG0WmQin+mUjVNkXecS+TRcnxbbguxxfMc+/PulMAVv7y0eFmKkCLMgeiNbgWHh4QaFdELc4r72ea97aedsxOxzLOPTqrn5k6spdVQ+NKhAb+1KSm9TenT53ye8U+Bezz5883y5cv83vl7gL1e0DNSvafLrVQrtWf5JpcB/DX2lKgpYfrbOQcv7tgkOkZ5pJOBaT980hhn6JrY05RpTlHgCV0UdkNJ3BP678yWuanPaF0DEK9QjSr4bzakHb1x0QhW0pTH3GuTzG5Pce5DaUJWe9IcyNJLqbA79zDpOEoTc6CaZosK2gfAIf9XhoqpdMLoS+p6qaiXfLhKe6DQ4w7K8hSSEP888/JONG4LZiWTECZTi1MMZODTLqoKnC/EuLOoN3IViRTFzAzvZd5GPWryCY0pfrkKGpeiANsB10/7ADtbMXlyvb0T+xm/uKBISYDDrtr4eUBT+b3heWHzVL6SnzJvWjHhLa216Ij25s5dDydRIZP47VoZK4F1gP33/+AWblypd8rrQnYuftbtWrF4E3hUT3j99/95O/M//rZz/xeubtA/R7QzHojUo6Sc9x58Kw5G+IApL69UrfF2O6dzAweak/S7aw7N20429YjZ80m/LsL/x4lUPiaclrPBR7OBxoG+55E0DYWXfFJQ+PMNF5tUR7yxzTBeoni7CWbTlrF2ZcI+kJp3UC6dW9MoInY2P4xZum6E2bd7vyQ7II6Do8dWuO7qfiuC/dpU0wdlTXmbL4+5oRKQ7ymJqafySUrsflAkTlDc7hiuqmG0tpDydE5vAupzGfvHtAknveWw6jpoKizk9dRBzTs0oSuK8c0mIDqWeR3x5GJcS38PKBi+v9YetC89XE2TROdIe/YhYzoWKh4KmSWvGNz5VDD76wEf4//+09/av755//s94asgL1VayFIN2vUEtR44hpm8i+//LJ54P77/V65u0D9HrgRsMMh3QGXNNSIYX17FdW1vRnA4K/U6gKKmMK1eEnI+smii2Y7ft0BInaGJhXng0xfqM+f7mdfe6AnQecgpMJmjoo388YlGn9apuuBJjm9l1ZmgkKdtCgcn/NZKC2Zlu9DUmPMhEE9QLqjzTLQ/rVQI6QDXxHkyUMnAnS1DFe3zvvgYfeGVtSZz/whPlTCHdeY8yfUTT7eU2DdE8Hu+SDeuiRi1bTo/sl9TD50mG1Mog8eKzFZQc5O1L42WqO8IzRaLddVnxNHxket1/2x91EmWkkn2Gwm/05Q9JACTkx0hBlCIa0kK8e4Enz+nE7H/FZF4C9qbAOMkFRoqLNP9TmiJmCPvR6wx7sBe31OauZnixcvNosWPe73WhoI2G9dz5bNm8zgwYNv/dD9q8kecGLALiRvjIWC1syqu3QMv462ZP3Nruxi8zH8XNEWDmaXNPkcuQsGzgOaDCbGR5q7xiaYR2kV70+wpHtFmuHieb7LQ80OG0H3yKl0/xvH+3CoPatonLOWIrHDqDwUUrSp6y7YNg5aiXilg6HIJFJo6I96UwGItno+vA2Kt5Z9D7oxm4gR+os05RTS6vdw3s/A1d1JsL5xT77VJTTo+1DPBqaTPfwzWq/3QWva366nbzFZXMyriPMt3Wy7TWoe8ah4DesXbR6f0c+M4t218POARBF+jxb7n+jHomtLQbvd5gbswT8DBw8eNKNGpfu9IStgV6FK27ZtUQm5XtRkwTceDOcrc76khILE1n6v3F2gfg+4AXv9fmnOpyokVTMKdSF8a91xS/2imCDBNfs9EAkHshfBxT1QEhZNT7FkC33dq+MEmkdyy1CHOWU1+PF1uUD+bhIKHAuRWJTCSDLBciZdLiXFump7jvmM5kPigQebe9o7tpMZBsovqbW7qDNp7UcdwIb9hWbN7gJzgID5OEonwTRxq+9g31LRPL9nQhLKLN2tglnJch4vvGhWkJ34AL/ZYemoxMwH7Zf84UD2T/vqqzktYG9LfcMggnRRjuZxX+l4XAs/D7gBe/ids0Ds8bVr10yHDjezWnxbaw2H3ctvBwwcYA4eOODlF+5X/nrgAl3NpHqxFT7kbmgbxTSEsdvCHWFXAc9FitmWExCIPnEFGsAXoBeu2e+BLmhDiwM+j0Kmb8/s55f0nJQ5Nl7nDtuRMRGYMS8RUCEAAEAASURBVHd8gnkannBvqClRndvTVvxzcxpJtjdRW9mMck0lWYDqINN0xMPuwrbnT0g0T1BjosLJxiT8dE9IylTc/7fg3VeA3l1C3jSYpomEmq+MhKLx+Kw0KyMg3r18VlJ+xbyx5hhI/wl2QZOcYO5J3XX3Y8Ilbu4U6EWqBwjngF1dXNVGXjxjHUsKuv2uhZ8H3IA9/M5ZoPZ46LBh5mjmUb9W12jAvnDhQrNkyWK/Vur+2LsHSi5WkVbPowgLxQFoG6UO4FiHe8B+Hp/moAoj1HPJ+uOmutoZjai8Xwm3x7fNCdhXogyzeOMpkws6W8T5DaWpsE/Ug4Wgst9fONh0Y+IhlRY9ZIUY6x7ewj2cRRFisO9h7Ye6oI5FnnAm0qtSb2gMVZV2+AFUYTbAW9+4p5D9/iLo3WHFue/Pvo2H73/32ESTRGZAqkDKfqkeQZPp331wlKwEak1kJkJpMShfJVAAveDOJPPNaX39ohU5DWF3A/ZQXjnB25YbsAfPt05f88MPP2Leffddv3az0YDdVYjxy58+/VgB+/s7cy107gip9WA/7H3ZqXAP2PNQodhPMdt6igEllSn5Rtec4YGmBOyiOOkc/pFGNb9FIaaSrNRlNPVDaZJzFFp8P1KAkjqNAOX2mAph95woMZ9SK7EBxZjThRXIhWqS6PlFcN6Te3WhgDfKzEnvbaZb2tt3WA2Vbt6aVHWu8foUKcLVu/LMQcYYTSqCbZpU9CAonja6l4X8pqfEmOgut3befIVz+eoanU8amYVY3lFZik5I1z5MHYWUVTT58rUngNMCdlFihqNYpAncXK6F/siNuhZ+HnAD9vA7Z4Ha46YoxTQasL/22qvmscceC9Q+uuvBA6UEH+ugxGxB5mwPygkuJab5l0U2CKykHLdBUdiGb4OtL938Pb591tCUgP0KdA7RKN6CdvJbCk6FyIb6nKpxkQLkuRRNPjLl1mJZTSY08d5/stTaxwNoc6uTZ7D3UfKrkSD9j0xLQX2lr1FTk47tblU8EZJdceWaWUOw/gcK2qRCdZExJ5gm6pAC4j4o6jwG7WkCgaSC9dqKQMsprnt3a445XVBuzjLJDqUpYyLKzoP47tkFA00khfU3T8K87YvTAnYp3ySSLRie1t18kwmIePmuhZ8H3IA9/M5ZoPb4D3/4g3nyyaf8Wt2tATtFOK3ukB7717Jp27dvM2PGjPFrpe6PvXvALTr17p+mfHuK9P9OFGI27S00GymwcxH2pngxOMso8E0CAVSxZO3At6EtnodvLYnOZTQU+eNH2Q39LKifJ1AoO5KivqkoncwaGX9L0yIh6dUE7SeZKC7bctrsZLKYQzfdKyDvwbQ7kPMTkj0LicLZTCSsQlhoJzfbGWpiDudeMBu4F1Z/mgOSrQZJwc04KYBMQn1FhbH30+hpBHKDbVp/ow7tZAMUonWoOO3NPGeOU0xsh6kY9rE5aVbX3ViuTV9ME43l23JMDgXHoZ5o1Ld/ugZ6UgA9lMJT1YWk43fXws8DknV8ZXWWWc4Ych6RBDUWs9tclZjQnIFdu3aZCRMm+rWxWwL2jhERVgOlL79E+/gS6AcPpeKSYtM10k23+eXVRn7sBuyNOKgJX59Fau04AZPoMMuRXxNy4ZozPBDXA71oAgpROCTxVxt1rW8vc5A4O4jm9Uc78jin9qiK9E/qZqYzyRhP0D6a/ReH/GZT0H6OQsqdFMZuozB2E1zxUGj+C80WupqGxKM6d6qI8mbbCwVmKao6B6iPOUWAqWA92FSdDtCHpiCbmMHkRvKXiRQZ11fUuY9MhOQd18P/34ff7LBJXId3T0wyQ/FfGhkBX2wNMp5roD4dyj5vZQd8WSaYv3ED9mB6N3TrVsD+woojZgnPLNH+qigSt9vcgD00Z6CsvNx0j/Gv4dmNgL1tu7Y0l6jpbvkVXMzKykoT27Onyc/LDc3e30ZbKWcWvR1+qR7yW0Cb1NzHbotGK3sgzW2mDFfjpATTDa5nONlF+M3nKN5dsfWUef3DLFMFpUJcXtfs94CFVA9Cy3xYfB2kuqG9U7C+HnrTjkM1SkoN/S6Yn4+EbvAAMpQjuC+kwlEf3/kSD9gCqB2fwGVXY6LTyFCKax9smcfOcOtjunU0C0Gzp4/sZXrCHW8N+l5EMyfty7vsSw77Il3nYO9LR2g50SDVapA0lUxEbxoTScWmPjtFp9MspCXfoTZhM2OfHTZEcoiD6TcxvKcZj9SjL7aZTqcb9xeZXbyHoh6gsX0SvaczY/RAJh2qr7iTIl/XwssDqtORitPzyw+bJdwP1dXXgl4U7ouHVFw/hTqUDLqcavLtaxbKl3W7v7nVA70TEs3ZoqJbP/TyV03ADhWmc+cuN36mYF1Be8akDLNh/fobn7v/CIwHxM3dd/K8+YRunB/RPS+Ph5jdFgGfM47UunSenyDF2j2yZvJm9375un0h6uI9q2Pcr/902Cpou+ai7L66L6i/SwINHktTrsmWnJ6oJbci1fVtfCtyp4s5l2oDnwPf2Q5Tl85n7h1k+qNx3Y0Aub5mRZoSKiDeDWr8OnzxQyDIZ5mAB5uCIvRaRZNTKDjMADEeRwGiGlLtyCoBCDhjNkELu1BxNejIus5LD5quibsuuckZIOzKANSHruu3ZYAVhVCdXn7viKXopM9CbfGMc316dzUPMdm5m4yPL6aswCfQeDaDtNshL1rfPsrH/fD733xrhNWhur7fuJ851wNVn39pBDT98p0DlrJZsLNgvnoiBvBuPpm7ydzLotyFG3jn63E64XfTpk83W7ds9XlXrIBdTZE6dKwRca+qqjLVvGRPPvmkefnll3xemftD3zxwhVm16BtSmFjGzPpkwUXfFgzir9rysJfO82woAN+lfXcsiF04mUcZ42MeqEs3nyRtfdEUOGAiFE4+DNa+DqQ76OzxiTTR6WEVx0nmryH7kqfWNeT+1qD281vk/9RJtDzE3f9EN+hAAeUUAmG1sk+Gyy4aT0NBqI7lNNfaNhU9w9HeStHz1aqv64AaOtbmfq729AqUByGjOAtELKJ9G7MW2sZnosJw/V8NUXp9Ag92UWEm0o11IA94b6aC2NKKavMShcTvbTtNoe4183mQNexr708n0H8V7j59V38UY1KszER92ZOblztCVkAFxh+wzzsAWpxiSVybz4CwT6G5lwKrtrVoW07ZT3c/6nrgXNlVk1dSSUb4mPnQJtpf3b0yJjaqo3lsdqqZCnin3hOdGAtdC44HnnnmWfPaa6/5vHIrYG/fob1p06YmhVlZUXEjhfqzn/3M/OQnf+fzytwf+uYB8dbOXrhsdh0tNq8hc3Y0J/iSa43tmaWgQFAyh4D9Rw8ONb24UfVZuNlnZC62gM7u5KG6D/9a6iIuNcbW05hOt8tHZqaaYShZJFEo5y040r1xmWD3PahNz79z0Ig+FmqTnGMUE9bpPLC+Q1AXD8WjMaska1ZEHcVqdOPf4AGs/Q4FJas192ws+zcfTnZnFGRWbs0xJ8hIXAO9CzYVRuODsg6PzUk1D6JUEgtFp2sDVJib/ScawMuMeyu255hSxsFQy3V69uW/LBxinuD8RnC+G8v6SDb2OJOgtz/OtnTtPeuw+z2OcfpBaFuToC+ItiXVINfCwwNZ3KeHoP69v/W0pW7mhL0WKNErppN5lszidGpSdD+7k8DgnZmf//yfzU9/+lOfN2AF7J5iUy1VcfFrtPcPf3jTPPzwwz6vzP2hbx4Qd00o+16QsBfePWwkCfdlCArDvO2dbtQ77rjD3Al14fG5aRYNII6gRentcDI1tFHKfSfB+i7qBE7wkC2EoiD/hiKACidfhWpfRS35DiigqCVRneunlnj2RV2AxXNeS1HiYigmCoRDbV1AKlNAioVaPpjRx/QgRdyYiZKlQHQTCLsKyHLQZT97Pvi1KQqaO4KAJaPQogfrKXjr5Zeqaq71IJdwiLceq4AR7vo91L2o86poOo2ZOrAuZUKmLMpJlGJK4N3bYQp07yX13ye2c6PnWNehENHfQOVZyUTDKeNJNNTFyQRWusfuJIMVblRGO867U7a5HYrVJqSdd1Knc5gYwG7To75t25qx5LsE7NPIMLaFvugNYLF7n8N9+0uWLEE2fZHPh2EF7KLDiBYju3LlMuhMTaWyK+nosx+b9MMDpFh/ufyQ2YNawhUeCE4IKCUTNpcW8qMpuBtGqj1cb9YDIBdSpNhL4J5FBkP0gGpQR8k9inbR0kyHpE6Wn1/7yrqOgo2u+uI/K2sDvWTqqHjzPdDMPiCACui8TQHzmFztPFZstnx2xmpIpIltqK17VAeTDr1jEpz7GTy0ovwowNY19xFyint4GO+3VFC+CgmPPNQ+0kR+AFSnEf17mFmc3wx013010WI+hjakyc0eaIF5TDLsMKnaTCGLMpaxLg29/cZMzbKef/eQeWfTKWu8DjWVp779U2fZARRFTwBoWTA+CXWeiPp+5n7mIA9orGZUMO+jgPUuFKtTeeUW9c/uXVS2LJIJYBpgxZ/PG2AyhtyqPmX3/rXE7fsr7VjDYW/TxnTo8DVnubpaPPZqU1BYgOyMq+8arAvlGJJrf1h/Ag3ncya/6KKlbBKsbfm6XhUIpqM4MA21GAUrUp4IR5N0Zinc5yK0bc+B4OnfJajISIbPjiAw2D4UlaSw5LIpAQW8BB3DCcGEeODd4UNKOeTbs9MsakljE8CjcIXf35lvdsMHP4Q8YXWI+c06T70pSpxJMaKCoPR+MX7RDKRUJEnKldtyLA15UbK+hJPfkkwTsVag+dKBVxOiZGhOvXygDXl8oGyEusTuyCw2H5NJyWJybYcNApwYQbA+j+MYndb4c07jhsbrDwi08un7UEY2z25rwwQ4iiBrPBOmZ+jemuZ2PLX7lDS6fdXoqIfDH2gK93s02KW9fjnI/Rsa3Sl+oNodZRZHcC88kJFsRjIRdC24HiguKTHxcfE+b8QK2PXrjhEdOWFfFxd07tzZ5Jw+5fOK3B/67wGhiWuRNtuOvOM+6BsV3Lh2m5rcJIKE3jUu0TxEqlvKE40FWXbvc0PbV5gkVP0yclmldKVUsH6GAF7UhZZkouhXoDawiwDoGBSDi6iDVEM7sNu6dWlvBsBbl9rAvRSdxvigPCSamNRWDhCsnyHwDbbaSn0+6kfQ8yiKJ2PRX1cw2p57wFfTw7iKTIdQ2N+vyTLlXHdOuK993X9fficZx650MZWM45Nz+5sOBI21Neq9rUeUQBXpHqDeZMm642YPWTA7TI2HUjjXUreZxjXamCkzsAat/Q3Ije5nvM53QFG7Mh2aPI0iyHoOGsNwgixx8jWpcs2ZHlB9SzHjwlsfHTNvrjnmmJ0U/eVOaiEm8JoEWNEPmp1rwfdAVHTMLVR0b1u8EbDrR23atqW9dA1fc8jgwWbz5k3elnW/a6YHhPoeoiOh0v8qPAlF05XGdrkNN22Hdm3MAmbYT1GQFYWagq/tuxtbtx3fi/6iAEGonmS09NDV3y3HCBA5LnW3fIuCOGn7V4HW2BHo1vZpPOn5SWiETxwaa/FrG9Lmvnm57RQM/4q6DhViX2ISYge1ZxhBzw8ovE5Hg7gjwbo/wY/S3brmNkL3+GBXnjnCxOMEKe+WZMpADAadngmdRLKIrah98Sc+lI+uMIlWfcnzyw6ajTbpsXeETtIzOsL8YOFgOPiJjZ4ijSF7oTztJFhfC8p+1KbMQO0dVdAuGsN9TKDGMMlMI0vqzySz9vrcv4PrgWMUm+4GmNjA5E/N1pxi7du1Mg+QMZvDPZ1CsO7WQ4TmzIxKTzcHDxz0aWO3BOxaQje/Avf58+aZt9/+o08rcX/UNA/ooXUWCsMm+JxvrD4GpeGSIxon6Ggk6XQ/N29/EKg+PKBdc6YHFNAWEKwfBVn/IwG7tP0VrH9l86REQa6QahX2CalWYZ+yNQ3Z5+yzsgRbCHR/szLTnCq8aL4gQAqlaZ/bgU6mQ5P40YNDjAL3ppoeymr+tIbAbhuIrEWNsfmcNPVYPMvJP0qbK2U+hyLTkSkxZgjdYHlkNMnyyKD857JDZt2efEsGM9STTB2LMgXPURB9D3U7UljxVjSriX4+Y/RhzutiMgO7yQyo14Mdk8raDpcU30jUmDIoPlUjLfUNCNfMaO1jayl/e4Aj6fmvQk3qCDVsxxm3nWAa97oCzj0xJ80qIO9K3Y6KyF0LvgcWLrzfvP/++z5tqE7A7lnqu//lu+aX//mfnj/d9yB4wNKcpkhQaNyvUR+QdvKVK9WOKFJL5UE8ggfALAL3qTwEXHOmB/QQ+ATET8i0uuYeyymzPYDQpL81afrhqdHm+xSbjkyNsWTz6ms85PGqmomdoDfBFlQT1JvgDIGRkNhQmvjAMQQ+Qin/DKWkxjTFve2blFDUBfW3q45CjzlpFSk6gabkbZ8b+65161bUOrWxejV85x7kLvFVh2Y81M+g5vQKlIANXLfFKOpIkz2UpolGBMcjHv5M5GyFKkYTtDRkuhyFsuecrTAvvpdpNgK0SCzACQ3arD4aBFnTR8WTGR1g6Wc3JlXZ0HG6nwfHAxoTLnK9fMgk/g3oMOeRgVUW0QkWzb3cC1Dl27P6mbmjezMxr5FsdcK+tfR9+OFf/IX59f/7tU+H2WDA/vOf/9z89V//lU8rcX/UPA/sI23+Dq3E95MmU/o81EhTfXsfhZRdLOni+yclmwUTknyWbKtvXe5nwfGACk2lXPEeTTc+BqU8SRFzMWi73daWwLcndBgh69+mAYfkHBszFWt+ysRjGwG7uknaQQ8TN7s/ykgq4LsPxLUPTWmaY5qQv4su+ocUVmZD8dEkJJwtmjEhNbGbpU+/EN13XyhO3o63mHO+4pNcs4kMRNapUluKOKW5P4UgN4Mi+zsBKBLhtTdmknfUeK3M6AmKpC9S4G63WVx2gqx07rn7p/Q1Q7mO+/bsVG93Xrv39XbdvuSGlXUTBWwNCPvlqyjDOaQgfRhZs1FcO7MB6EYDsLgWOg/827/9O/2OfuLTBhsM2N988w3zyCOP+LQS90fN80AuxafitG3eV2DWoZAhnrXdJjRUKfBHZ/YzD0NrUOdTt0Wx3Wfl1u2rrbV051+DTrUSebAqEF0noH2dabYhpaEJZGZmojSkbnmNme6BlZ/mmu1oEmeeKDWVl0MfBCklPBFFm4yh6trZw/Tkmm+OKUNwKKeUfgvnzQfbc8w+S+axOWu0d9lUJl53E6iP48EuKkxzedIqvtsGPWAb53wrUph2TGg0uRyYEmUFugsotFcr9sZM2SCN19uhn61jMpYPtccpJpWvkZyfafQQmDWiV9iqfDnFn4HcD0m+LqNWbf8xAXNljhirPce3gH4E8wHnVGjqj+KTZ3n3vekeWLx4sVm06HGfVtBgwL5x4wYzceJEn1bi/qh5HlDgJfWSdSCLyzafMqUOSpWNQY96PEWDE0AdhyZHmdYE8QrkXbPfA3oA7IBHuxmk7zOCQdFj7OSui2IgWokK+e6bnGx1XxR3vQvFfY1ZNnSw16BHfAK1R/SIKhtUbmJAkPXgmswkYyDBqXjAzTWhyKeQAFyy4aTFz5fkph1Slc05DtGbIjq2NSNB4R6Z1tcMYhzojgJQcyVfRRmSjOcnh8+Z90CsT1O3EGpT6r8H1+sQ6hWegr/ri7yjlKfO0KFVmdFlqAFlni6F2lBNZjTEHK56nBUJLSY2pkZKVYW0sah+STjANfs8oCyoah92iLtORuk01D+pRykDZ7d14r6OvK74dB9CE90AWzqRaXQtdB7Ytm2bmTp1mk8bbDBgz84+ZpKTk31aifujwHhgLSjTG+uPm9NQG4ocgtpE8mCOhd7wOK3l54zuZVFj3FbFgTnfTV2LitxUv7iUyd1bdNU8V1xJi3f7qTBKy3cmYEhNiDTqlDfZx9oHC4mGEvGLdw6aHeivXyMgsqOQLw4tcbWqn0ZaWOh6oIqu1BPgTYoU1+zON2fgP1c4gELhz7UnPf04Jl4ZNJJ6fHo/kxSgInRRuooIfHcRyPz+wyyUgUJfgKdJprj5yh78+KGhZjLHqOvYF8tinH6D86o+GjqvdkwyG9rPichU3kM2RCCL1RSKY/LtqBpao/t5UzygsU3XuJVJQsFrG3SYMtThnGLx3Mt9enc192ckmflkmFwLvQdOnz5tUlPTfNpwgwH7pUuVtKltPsLk0164P7I8ILRpB0jpJgL3raCmTrB2KHt0YtY9GarAxCFxZmS/KJPgA8XBCfveUvchHwRaiPQ6JME+Jgi8TIZGnVztNmlxjyUTcyeB+lQChrRekY3ukjrPnucBtg/ayO8o0DxAQx1lCUINPkkxJIGH13fvG4zKRrwlZdqazwJh0v3fyX2twuCNnDM7kOTmHEcPJi9T6Qo6EX3mcUhdBgqxVUZIvtkLReD//ekw5/48nF5N1pqzt/4vq4xhEvUKT9N4aBLXrQpPvanFeLZwlkyoMlxbEQ2QPN8FBwVikt5MYeI8Q6IBHFMXkNRATUA9x+++e/eAejJcJPMiBa8VUBY/Y4wrBFxxwsRO1/wdZJfGDeppZiHjOAJamC90MO9H7H7bFA9UV1ebiIjGa2e07noD9u49epjCgvymbNtdphkeKCNdXsxD4B1Q06UoZejGliqB3aZgpi+D/1C6Ps5Hzm1E32iLv+rKhoX2zCjAEZ1CWtAb9heavQQLh3gIOMEUrHdhYicZx9ljEizeui+UEiknHCssNztp+vQu1302k9ZQmwDV9u3bWE10fogm91QoMYE0TUpEjVGjoDfXZJt9BKiqNXBCStzbcXrQ5xR40YvmpJo7aVXeg+ZXvgSz3tZb+7sDyNtJ3nEvk5orKsRT+ijEpuzKfVP7WgF7WnykTzQuyfKqAHULRbPqWikuu+7PUE846nOVxuzW9NSQXOXdUGNUQN0TJRCN2d7Umupbl/uZ/x7QWC0qzGkyLzvJIEn5Sn0HnGIqthYQJ9rUYwgDaJIqWVPX7PFAfK/epvjcuUY3Xm/APnzEcLN7165GF3Z/EFgPKEV8lYfAx3DZV+/KtzRandJNT4WEaoQzZWScpf4xGLWIQCFtgfViy12bkGh1iFRzpI9355mzqA5cgAvpBEsgIBCiN//OJJNBl7wIAmBfqFMq4NsGDWYbBXxbSRcX2EAFUxDTi/0Xj/kxJhxjQJEDaaL3XGFicvJMhXkHGtOnIO3q4qpW9042TcLiUE0ZRpOkB2nKMzxIE/VjUEtEGVJgUwDf3w4EMoqJyEQKNTPIIkykaLMH3O/GTEGZgvb9FEl/sDPX6s57IrfcaIJmt4nWY2UO6FqtfggzyZBItUkc5eZIcdp9XOGwfU3Ey6C95YGmf0zmRZSpE/RlcIKakMd/iYx3IxjnJkEBm4ZCUgeaJrUJUEbRsw333XcPjB4zxuz/bH+jC9QbsM+dO9esXPleowu7PwiOBw5QxGSpxkCNEYr6Oa3OnVDQJM3iwaTORjPwTweFFGqjNKuLtAfnOvCsVQHA5aovzAmK8nYdKzY7CPh2ELRrgme3qWhPaN4YqDDjocIo2JGCiK+mbr8rkKXcSLdfSfuVgkSH2hSYDqWgcvTAWHMXGsSDkxpXCmnKPgqN3QB9QhOuXZxDHasdXH1f9l0BX8cOrY1VdA6yPg1aRbAaqOUwefkQapeafh3k+q60QZu6U8c2Jg0pxAkcqyQ9fZF39Pgxl8BsDwWo2zmv6oWg/XdKYXErrm2N23PHJZgpoqkRvAtp1zXvIu2eMxi4dzWAs7KGTEL3kwldjeb6YcY1q8GWDZmj2kcmmp86mg5HunEu6Lom4apx0OTONfs8MH/+ArN69epGd6DegP3JJ580L7/8UqMLuz8IjgfEeysur7LQuDUg7Rcs1ZjQy9zVPjoFZ6I99KNAaza8NzXESQXBcRGb2p4K7N+Sv8smWFdnxQ1kX3JBIYWsO4FSIe3yThSaLqDAbR6Bjoo1o/jbVzvHtf3Kh8fMWnTkz5dehhIRetRZ0n6T4fpOAmEdP0BdWX3jE/p6jJ7fCWWXFrO47OpKKy671ZU29AwQzy41+K5ALxrU+ZsUm89M723iozsELWV+loJpNf/ael2D346iPF0Dah4jDX41zVJg66spU3KBe3Qzk7EV23JMHvfnOc6zE0wTL6n5xJEdTUOy8m4C91Gp1CGgDNKeY3YtsB64UFlliuiF8SE662oCV4hcbTmfWWO1A+5zZcoTkG6cCLiygPE6HiqYVGHccD2w14G/a3vmmWfNa6+91uhi9Qbsf/tf/9b84//+340u7P4geB5QwcpHBGcb4UceAr3Jgwv3OfxIO/idtY+yO0HZKNJpmqWrQUdCjwjTkxSyO0uv7anm/S1kXQojOdBgdsHv3cNrH4FNhQ0IZO0jEb9ZwUAy/OYBXAOzSLkrtSoajK9yf1e5nvPPXTIvrjxiFdCq06UdTcOkJ34vzWZmwb3v37uLJYVX+3gD8bce2sqK7EXD+/WPss0hELjzoO52HHNjxxPNPd6Hc/v47DSraFHnNViZNNXuSHFFjYhWIJOoOp5Qm8Yu8XrTmbA9t2CgGcI1rU6h/qDQn8HFV9fqPUysD1CnoMyoE/oiyJeeCdi0UfHo6MeagWSR1FujY9vW7rgdgItNfHUBbceZhGdRZKrmSKpV0b3thGe2xuo2XM8JqD1JFOBOZURpFOby1gNw8gOwin/4b//N/Mv/+ZdG11RvwP7v//5v5oc//GGjC7s/CJ4HVLgkFQINAMu3nLZ4rxcrrhontDdXOlVpVt38A/p2g7Pc00wn3RroYrTgeTc81lwJv3v/qQtWsC7VIOn3qpW1uLN2mxQGJIc3g0D9wakpJpmuir1AKPVg4P+Nmq7v4otXTDaB2msfZFlKG3qw6fNQW0dkC59CIWT+xGTTHVQ5mA8xBe26p1dDARG3VYGdExR+bva5zp/V+ZDgdQ7ouhQkrPN6848C+G9lHiy6EADFq6syzRkb0Gkds45xqPTY7+5vZQ9juBb84fVaogHQnFaitf0nGuRUQPeSPrsTTMfXhvtVHawHQlm7CzrEsL5RVpMcd9xu/hk6Da1LKm/bD0JXPFJDdxNn3SmUN/VS6EJh6ci07mYRzRAHJ3ezxrlgTcKb79Hbaw2//OUvzV/91V83etD1BuxvvPG6efTRRxtd2P1BcD0ghRgVGqoIVUV5QuSKoQ1oELAjsKl9tF1oLNOzeyczWsUrzNr7QI+R5KMGARdtr+0t3/5WMK7znk/QooY7QmkOoi6SRUtrO6gCtffaCmw4v+LBiho1BRrJ7NEJlqpGB5BqX03B+eHcCxba/P7WHLMf1NkOa8s+q8Pps/MHWbQe1WT4UizbnH1Vd9qjeTWI8gcEdxf42zFILBxX0UPunpBoZo7pbQag0RzszoeeGo2NTEpfWplpcrjuqynmtGOMS4EKMw9NaqHQg6GQ+EP3u3b93v2U4tmtjNcHjpdYqkcCWZxwfnXv3sH5jeXeTe9PdhT+8gCQ9gTG8DjQdnfM9v+uVga0AJndQwAr+znfmYzT2dzbzkHWDfLcrY2KqlU8rut6BsIRcVwDrjnHA2+//bZ5/PEnGt2hegP21WtWmxnTpze6sPuD4HpAYGMVtIE8Zu97CGgk96gBwa7GMrWPVuliIa29UJLoy8NtNjzg2SBySiUHO+ipvS8t5e8qmgZdBFlfT/Cilu1HSbOfgQepYiYnpFb1UG9NQDeGdOoDyOANAq1L5IGvSZoCAl9NlK+1nxWYDRSb7iPAyQF1tsO60BisJ5PMZ0HY5yFZGkwk2XN8Oo86n2qk9OLKo6aQ+/uyQ5BYyVtK7u25+QPNw5xfZdNCgcIp86Ag9yW0+LOhFJSDVFu8X4/TQvQeC6d31KAeVpfeWRTWR+ILf0yTDCkfCWh5Gym/D3fmWcdyhc+cYqpFagva3odiw9FQI9TFOoOO1u6Y7f8ZygRVXwdtdQ9j2H4oi1I40gTUjslmfXuv8TqSYF2Nwb45LcWMZdzWNe2e6/q8Zd9n69avN3PnzG10B+oN2Pfs2W2GDRvW6MLuD4LvASGuegDkwmEXyr6bQeEQQZxVyOKAVtjygB7w3Qh8xIsU91PpNkmJdUV5wR+EKvjedO4WJA8nHqSQ10wCloNkU9Rwo4QCpkoHBHMWOnfHHUb1C0OgSIyFLjER+cbYbh1NZ86zH7G6dRKURViCxOEq5PBOc8wlNnVqTZDsHZOOR+GwSwkllKZJ+Puf5prPyKIcIYvihId8Pybeg0FeNXmZgsRhKE3+eHvTSXOA3gK5aPPboYwVSbYlmbFLzbMentzXRFOc6a9pMiqgRc2ydsJn303dyXGoX3bVaDS0/904tt7QGvtzzgcxZqcSwEtzPwKKWAdQWdfqekATbYkAqFD6VFGlycy5YPVXyOPfAlacQoHRnqsmQ52nx6DcJYBFwXoS4JpqjPypzajrBfeTQHvgwIEDJj19dKOrrTdgz8k5beLj4xtd2P1B6DwgJYIiBgmhrn9cd8JKG3/ObN5JA4R4ch1A6O5Ds3n22N6obXQ2MTwUQoFahu5MBHZLFmWbSK0E1Zcz0J2EyK3ZXWDKqF+o5MHgFBNS0wZkfQi812/CgRxBejWOYF0IbFNMxZdCU6VLXlZ+xerW2pT1NHeZIRROjxzY3cwd1duMQdoxlFYA7elofplZ82meeW/LKUdkUESDmT+pjxmApr7u31DaESaoq/fmI3kJt59g146mce0IcrpRQD9rdC/z7N0DrMLMpvpA8n6itr2JIpCKEEu5pxW0O80EuHTlmOdwzHeh/iW6hMZtpcz8nYg77dgCuT+aUF/iOaxmSHsRgpDG+nHABo1fTqA83XysAlh0TjUhe1xKTxQbSxXIV0GAm9fl/jv4HigsLDRJScmNbqjegL2iooLOf/4jC41uzf1Bkz2gNJsQWCmG7IMrtxcUSi29LyIZ5ZR0q0WXIIDrR0v6FNQ2kpGPSgG16Q8PVooE4jiHIr3eZCeHcEGl+z8HiRNSc5xi0uOkVkUFOEFznRzQGhUiShXICSaddaFxo0Fo9BK63gsaSQTBjc65v6ZAppzi2ZdQh3mXgF3HatcDLwPaw5T0eDOWYqyBpI1DaZV09ZQO/SoC9sXQJ8qZtNlVpKiJdufObc38CUkWFUZN0SJpZx9KU1OwHeiwb4EOtpFJqx1a5rrWhUxOg97359CCEkAkO6Jb3RQT0q7sqDq57ua4pL8vKU91c7Uje9DQMWgirmNOonA8hYxTKoi76lP6MX5r3G5zmyOyKoqWAICKxdULQ9mSk7zrWay6oirGLyfQFT3ntwuoejdoMOnUlo0ChBgOyKKeKS6y7vGQ896vXq1i/G0cIKkTsEd06mTKLpQ674jcPbI84Al2tqHl/N72HJNDsHe25JI1YDhp0FDhWm8G/0F9oiyqwQAeANGR7axGS+LP3Y6ouxAaBeqejraVV64ZcSC3H6FAjQnYEWgwTjqHCsY1wepMcXFf2rUvnJxsxhGsqwukpBCbagpSzzBR+d37mWYlahp22vxJyWZ+RrJJ5fiCXVzZ0HFKMUZUkNP5F00h6J0d1h3udhI+uA89/YfJkNlhxfDWs6HCfLQz3yxnAqOxzi6bBD3q6XkDLT32GOh+QiybYrrfVZeSTVv6JZxjSbOeo0hR/Qa+IMtkZdiasuIgLaN7fhBKOcNSo80EeO2axHaigVZ7KDJW4M73LZ1O4RmnleHRWF3KRLroAv0T4KkLJDsBsHLeBunRxk65ahOkaiSd9RQmXXNQ8BKtTTVl/qgdNbYd9/vgeKBrtyhzqbLS68rrBOwJiYnm5InjXhdyv7TPA+K0axApIEjXjF9NWNSgoRylCSdRKBToRcBtFrddKFWfeJAbBn/xJPsRGAi1up0GET2Y9QAQsnycoERIzQkCNBUUF3Iu1fVSaiF6WDjFOnL+oiI7mMm0r1Zb8zQyJz2jyJSAxjUnU3KM4OUQ3M/3CdYlV2mnPU2x6RN39bfQZHF37TBN2qwUO3SobRSw2WEjQOJm0VRnNJmGkQRsdlgNGFFtZV1e/NNhc9lG+shw/DE/ow9NhqLNIMatpmSS5EPdzhqz1ao+i/N8gK6XqkM6xT0gzrPTNPg1MdGYLVWReLJoGrutbCkIrfjP3UBvlVlr6gTGjuvK322q/kCdpZX5VB1RDllPNatTNrSEcbqCrLadk8mGjieGbIhqcqTapsmWzl0c47XG6pY+yWrIJ+H0ed+UfiYvN9frLtcJ2IcNH2b27N7tdSH3S/s9oOKXapCbzaRZ1yD7mMsDIP9cBfSYa1bBk/17WLMH32CwELdd6gsDKWxSoyW1Q+5Gyl3FipLRU/CulsnNCQKdcrw374fQcj2sxXtU8KFiJdUh7KfA8BAP7qOny6xA/QsarDgpUFd2pB0IerwmWgTp90KTuJOAvS1ITWvOZ3NNSNUGGszsoohaWQU7TNQH8e+/d/8Qi/pgxz54tllGAKAahrfWZps/0XOhigLkUPG3dd/pXE8HjVs0O9V6yAtRttOWoob1H0sOWIX1dlGldN2Ppah6MgjlNF7N5f56gBZR3pRRk4zpEagyolRccpCCjOe8KyBvJd12AvcByV3NgMRuSHxGWvx2dcDVmC3UXZm2cFcc0blR0b+C8KrqmqLS84An1uSK86TMV4FNmS/P+WjoXZlq3b9deJb25fwMZaJ5pwQBCNhb8qSqIX+E8+fpo0ebA/sPeD2EOgH7lKlTzMdr13pdyP3Sfg8wxlj0CaWRla6zOmHCk8xCD1btkB1jDPya3WtgV1tkcaGjCQjikQKUHKSK2/qBvosz2wkebUuyywTqlQTqR+E8Cl07BaqeD+/xPOdMD2p1xtOk6yudTAdZLMhabxC18VIXAK1Jju1kcVl1HgPxEHh3ew70gFMm/zqdy45Dl3qCigufmpNqHpvRz45duLFNBedC9ZaTcZBqTD5oXqhUc6SKonM9A872g1BhukF/sruRzqodeealD46aM2SfyrhX7DA1GBK1YB4Nhr6FHF5Ti6s9++6hWWg8UDB4JKfM4rUfICBUJ2snmsAWTdK7UMvQ2Xq1sYCXXowH4kT3Bc2VpGtPkN1wNtWSaCKlGop8np35XHcF18fpC0ymNaEShclppmBdHWyFpI+hcH4YmTGp/eh82D3pdpqvwmF/Zs6aZTZt3OR1V+sE7Pfee695552lXhdyv3SWB/Qw2H/qPMhtqfksq4TWyBdMCS3PVSij4iYnKclIt13oZg+UCOK6R8CRjIQ/3MX0QHFEyE0nOqiKMxlB8N6OwUgIYCCCxGCeMflXBaQKuoTS6AFQcfmauUBnWvEf1QFPrdeVWj2HaoRTmmp4fCL/avDXhEqdPlOgAPRn4B+NgsowMiJC0JqLMGpbQrKUGXpz7XHz6uosi8JlV8F0L9QT+sDzvB/O9jyUMZxg2+h8uhWK2ydkH46SgdF1pXs7KHZ9Ip1EUHonlKeJdCuehB53c2oTArWfm8gavsPkJQsfnOa+scOkFtOJycsDKOY8C5ddmcBA3AOeY8mDBpeJwsheJB+l4S3g5TxjhTIKTqPJePZZ710BXHowob8RsBMs9oqOMOoWLKpce5B3+Ur0MlEenZI19Yw9Gp9VRHqZMVpZT/19AfBE9FI1qlPAXlRy2ZylzsCu7M7N/q7v3x5UvROTqLgYMtfI0k4YGmuJOyTyTG3u5LK+bbqfBd8DDz74kFmxYoXXDdUJ2J944gnzyiu/9bqQ+6XzPKDgXK2xswvK6Yx5AV77GUdq/1rBN/9RECjqhQZ6IetRoAI9GXxSUZQR4p58XRKyCwF8U/mjoTpLUvC5CBVJ/MZCpBlPEpgfI9A4U1xpzjH4X676+uFgIepitgYrEGvCQVvFpZwPUZYySP8P4X0AwayQNT14A4WsK+NQgZ/eWJNlXv0gy9aJy2DQqHEEqlPo0KsUshNMQVsO6N7rq4+ZdXvyraLEYBUhe6hqozn2J+akWb0TNFlzQoC1n0B9I0H7Dl67mcDYYdY9QcC5UAH7gkEmikC1E/dCoEyTe1Hl8s9dMqeLLpqN1CHtzCw2FQSPUpFxqoneqKZLCsyl+hXB+CxVEqHuvQnexZkW6q6APjJCoEsrRwAuCtIvUj+kbHQhoInQ9Fxe5xivzwvcItupAF7nRepEegVtstzMkyvAKxrAS7UF04bHm2F9o1Dt6miN15JutJ6xzdyGu3joPfBnf/Yd8/rrr3vdcJ2A/Xvf/575v7/4hdeF3C+d6QHJiBWTbs2Bb7eHavZM0q55/LsY3rQKGp0kJXazB/Vw7EhwKLqM0nu9QQniGZBEk+kC6tuZgV8pWT0gPA8JTwv5UAUY8m01XHMPQnOJh6rS25cJQCsY7EVxUXdDBe0FBOm5BOulPAhUDOxUU/ZChcFqhpTMA3YwaLpkwBI5B/HUHADCBtR0bco3S1EAWbrO3sL2CUxM7pqQZEmeiZvrBFP24UJFtaXb/dGufEtNpJIgIxgmGb8enOMMJi2PzUg1SQRcQuYCfc6bsu+nGLMO0tF5DfSgtdBj7LRZZF8eQcda9I/e+CvQVsH5vXCpypLp3X+iFNpcuUXJUBG6AsigZlkCcDAKHtsyLitjqnGkO0pgsVDN4vCVOmoKdRco0xFQpgakYczh355Mjj7TREhjkb8mBR4h554xWf8WeGL9zWRI73qp+6juI9UQiY6kcegMQXsRTen0XNR3ymo4jZp4sz80wdZzsju+VT2YGhMOAFkfRT8MFQMLWAnVs/Dm/XL/HTgP/OjHPzYv/OoFryusE7D/5O9/Yn72P/+n14XcL53pAYG2CsqFEkiNRGi7Cpw+gyeZCU9Sg5dTTYORXkqjavBW+lna0BEM+r1jI0yyaDMggHoYJBDQ94RCE0mw6Rn4g31cQofLL33OYH/FnCMQV0pb6dMCXmcZ/MW1vSwK0vWHhoIvnYtgIaSBON4ODPK9oUSkowwyl4Y5CkpUvFRDgfH/AdrYPinlfIBA7KMd9gdic1BEeQxkWQ87NYpxgun+VZC2dl+B2USGbB+IayGIezAsGo72SDT1Jw6NM7Po6tkdNSCnIHMlBFH53F/vMLFbQpM4O230oB5m2pgEdPrRs2ZCG2jzBJ0KKi+gJLP1MJkFaDKHjpeaM/hAtAwnB5Ka4am9ksZrBe8KGlWYrjG8vQJ1gJYeoO7xjNkaW7pCM9L47eFYS3ggMaYm4PTXt6r9uMpLIMk5mhfJhxqnz/F3MWO0RTPiXTVDUnZRj4Nr1wjqv6wZm/X+pcboYFLP/D2oBn4vrrr08kdTV6SXrsc0FNdUb2JNtLl5nTDZbmD33Y998MBP/8f/MD//p597/WWdgP2f/umfzN/8zV97Xcj90tkeUCpPAaMefOLmHYNDfZRAKZf0q4LMSwTzTk67erxrpV8ZkNQEIoYAo7PSrwzwnqYuN9AbPtdvZUIa9BCoL/hodQeKGKxPqJUmNRqoaxtj+A1uYw16A4ouf/EgkNSXqEcqFi3lAaAHrFU8yru42KFS9qi9z/78rUFfgXpfAnVJbaq5VRp1BKLBRJHa1oO2Pt/5s42GfrsPRZgNyBbuhOawF96uHSb+p+ooRHX483sHmWgVO3P9OMV03+qe3ccE+z143IdAXa+R2QnUxE/H34ZCQp33BZPQ1efhrwY5um+cYgq6RF94fc0xqFNHrYA1UMfv7zGmgWKOoKBv1kg0raFPBdNEl7OaqHH+T6L6dYqibDXnEW3DyRnShnziGb9V4N2VplxWhhTEXeO3xnKZABeNO9IK99c0Pqt2SM2pKq7UBONV3CvKWlif8a7x+hL1RFJequZVz5Dv72ZD+nvx1PX8UwY0hfE6BWQ9BfBKQIMobK61HA/867/+m/n7v/97rwdUJ2B//vlfmueee87rQu6X4eEBKxzlP0IflGb+FMRuM1zJIugaJaDC4WJfB5DXUYSboARROmLhTAqNl0knPBFEXoFJbdNDoWtEOyv4KSMNrcG+tinoPicKEdSEq8pUMOk5y0TnKoP9DWOxmiWv/7fuam781Gn/sBAvUqr3oH6RQaGS2s9LGaQ+fwV63zeCGi9GHSYbDfZcghI7TChga66Db0Fz+MuHhtquiFKfDxRUKBvxwoojZhM69ZctZJCZZADMQz8bQUHx95iwjOK9nlslAFtq/ip+szLTvIAeuzr+qsmQHRZHYJQEkvkgE7wF3DPBNp17Ue8EBkhdSgW4UpI5Bq9fCHI4mjUS3zQc34IFX//8pq/9OsQbQ++Nf9w6Nmtl4Rak3+wA1Qak9Yky0+nIPBslJ016BDo59Z69ed/df/vngRdffNH84Ac/9LpQnYD91Vd/ZxYtWuR1IffL8PJADZ2j2hQQpOcRfGbzIDieX0axU6Up4jPrgQiyF44mxFhB+9cIexur2Km+Y1Hatl2b1hbCrmC8PtROqPsleOmiD1kIO2ifMhJOVm6o71g9n8kv8pFqA9R6PIkAPUloDUGIUtPimapQKZgmP2tytApO8isgplJguEhAYoepQK4HBVoLM5LNk7PTHKuoINrV6l15ZqsCNupRSpk4BsLEJx4GBWo8ijB3QYNScaBTTZ1B36TW4RzUENWD2GEaWyR9+W3oU9+E669un8HmCmvcUQZQqjG5ZESFtB9nzD5FMbsmcjX0juDUNtjhY3ebX3tAtSVqgNQbEKpvXCfG7c70w6hR5RG4YlGPoBy51vI88Oabb5qnnnra64HVCdgXL1ls7l+40OtC7pfh7QF1mTyAXvunUBOO8K4HgCgyKqxUcFUfVSS8j/j22nuh5RaXlGBdKg5KSY+E8zgePq6oL5LRDKWpM68KdJcTgL2w7KC5xL/tMiGmA1FVmJ3eG8Q0waIA2bUv3rYrHx2jBuUT7tEVW05ZkqD1TTC9raP2d0LXJZ16L3rrU0DsxIFV50qn2kd7C8yqnfkmEyrVaXxhpz2DUszTdMVVl89Q1c14jlfURgXuu5i4qbO19OmLAVoEIlzTeK1xO5xhZM+B3qbvraxJYE0jNwkvpELD0nhtdStFQlNqO26n0pZ/cSx/913zyMOPeD3QOgH7yvdXmrlz5nhdyP0yvD1Qel3R5CxV8oWgnZIhVFMfvatARyn45gYH4e2h8N17BWXSkI6lkDL1Ot+xLwG6qEKxIDcW/x9UPZQmpFCUrNUUmy6liFD1AHZZPzTmJ4yIMxnXdceDjZY29TjFZZeqhbjsf1x/gol1KfSsqiZnepRC79K5vUmisPib01OgQ/WEHmZ/kyRv/tmZVWzp0m+n7kG0EDvtvil9zX1MdJSRiOM+CqUp21cBoKJCSnVKzoPXnkdX6zyCeEs3nPcKrhXXws8DAld6kumUJGZ/aolU+B+Hrn1PaItqgCQFHclouhSY8Du3/u7x6jVrzPx5870uVidgX7fuYzN58mSvC7lfthwPqCgnk3TrEVB36bdLBvI8DwWruxsPCtFlwqGYsuWcEf+PxKK9gKZ3oFW4UvhdSeH3pbW6UJohSV1pTtXVVuqHNI93EHxtgY+9cU+BpXHs/1EGZonhcLbvgQ4j7vYQtOY1wXGySc9fTYT20sVYvP+rFD7fRNf1add1hELxEikuHUR24QGOX02xnG5Z6ilBBnDVttNmG0G7nZZBRmIKHOKxdP5Vszc7zaI2QhPKovGSBAVO8JJSlYriVVxpFdSDvLugu51nqe62FZxrvJGqi7I07Xh1ZMxOYRxSo7oxlvJL5A2lrrprcD9pyR7YvHmzmTFjptdDrBOwb9++zYwZM8brQu6XLccDVtMfONpC88rgFZ8lWM+nKDUblQIFC2d5MISqTXrL8WrojkTIS1ck+aSpnUYjjX6g6Wo61fO6jn0kBaVS1rEzpXoIhaL3d+ZZHR0PQ2+ws4PgnSDLj8/tbwbykIwn66CHqJNN0nQHT5daSPseuhjrHtUE2p+gvU3rb1gBwmi469LZH0pw0JtUu9PtbNkViwryJl1xP/wk19bdHcBEZxiTnHnIgY63udGWMlSXCM7V/0HFqWdRkcmFJqMiVWVKc+G5X4FSZVehrq0nysEbF7DSHnEEoedJ8NP79kSpi4yNMp89eEVDh5F6jqSNnQ4kONjNYbtru3btMhMmTPS6/3UC9r1795ihQ4d6Xcj9suV6QIH7GYJ2abhn5paZfApTCwngpQ+tznySzLrKuzTGJY/oWug8oEFcL8lZRnSo6RArSUK1CpfOsYJQBeyS/FKQ7hTbgYTja2uzTebJUtp+X7KFbiW/6YE5bWQvOlcOtGTS5Dtnh+vGKn4+X1Ejz7qfDJjuT9UE+BOxexC94X27WdeIpCzVvMbpJh7/BeprXnov07y7+aQ10VNBph2mCbEyFE/OTjWzR/e2Yxfq3abqjiqhy6jD8hHG6xOM2zmFFVaRsmgylRTQ6/sqAnx173QtNB4QEKCslsZqS36Y9y6AJ1HUkCSg/JIM9UVjdQrXlDp9d6RzrGu3twcOHjxoRo1K9+qEOgH7kSOHTWpqqteF3C9brgeEuFehByxlGdFlxD9WYwrRGk7SQjvzdJkpAM2R7ni4KqeE69mT2ouakYjv2JeCwTRoL6m8i5cuGoy0tGuK4tQ50Dmh6IZ9heb/Lj1gToL+2dXyW90YVXw7k2DrWYoH1YlRDV6cbjUKOzX3oybLUtvxd6JspeI5VPUnUHCgAN6p3P2bz4eCc6HJL606apZtPmUVx18liLfD2nLvqSDwRw8ONQ/AZ3eKCTP5guYRVxmz1X1ZwIp8VsDE+CRIuzKlJ7jvzqAOVkrGwrXQeEDgQAcAAY3VvQnQBaIITU8hUI9kHOpAgK5u3XrpXgyH+zE0nrt9t5KdnW0GDRrs1QF1AvYTJ46bxMTg68163Sv3S8d4QIF7BShNIRzJvBKCdh4AhRQ5qWFQOehX2XUUR7+rvs55d8zOh/GOaMBXkNCJIEuBlgoEuzLQS2IuDkQ9Qd1fJdHIg8AO5QpfXCskWE2m1u8pML9GT1tdYe2yTvgvHn/NSI83i6b3c5uO2HUi/Nyu6D9vrj9u3tueawqor1FHYbtME+LnFg42Cyf3NV0IxkKtFuPPcYtKVYCggBovqWGeMluiNqohlZoMafIn+VoF9wJeXJEBf7z79W81Gf7GHYbAm67cGqu5LqyOrozTQtNV/C8KTDyvXtdf0lF3zfVAbQ/k5uaalJR+tT++5e86AXtuXq6J6xncjm637IH7h6M9ILkwdf+UaoUenkJINeifK7tsIThKw+acvWQKeSDoYVpBIO9a8zwgWnWHDm2t4DyJ7nb9QNEHUTiq4Fx8R6EyQkkV0LflXb+3k6Pe0NGKvqHOjWr+s2zDSVNMwGCXSdt4UL9oM2V4nJk3NtFqFmXXvrjb9d0Dyvip/mHt3gJzOPu8KSS7Z5e1BxV9YGqKmQ2PXd1hndxpUlSZmjGbQlQLfa+hFwltP4Ea2Anuy4Lrgbz47tdcukyTLit1TW6NiotAlETQc6m86CXpXNWJqHO0wBfx0jVm613jtWuuB2p74ExRkUlM8A6W1wnYzxSdMTHR0bXX5f7teuCGBzzIqZq7CMUpKa+iMygv9ILLoNAIvbl4HcXRv0WtEe/9cx4c/qbzb2y0hf3DoimQCm1HECAudWdaUAtJV9dRIemdQYRVMNq9K3KMFEf2ptlPNLJ8Xfidk+gu3k6LJOi2w1/fRofTLdBilJWxy3ox2ckYGW8mDok1EwfF3miNbtf+uNv1zQOixWw7ctaSd9zGNZQNQGCXaYI8iWsog0nfhIE9HN10qraPFLxLRUaiAirmVTdnNeMqo6NzmTKl3JvKhtUg8IzZjNuXGbeVNb3dzaodItC2+OhkWTROR1pjNRlPxunO6KRHUfgf3RVEnfG6B++SZHRyj4Pb/Zw68fhLzp8HLI/zumt1AvaSkmITGWmvbJXXPXa/dIQHxJ1U8K0aMFi1/NtYBXHYC+e2AAAEjUlEQVRSLcgBBdNLygVKx4rzrk6F0nd3ee81p88qgiQAUNpUzXwS9VIbatB0oTOiwFhFkaAxHg6yWnqHEzpzinT8ik9yrAZdRyk4VQBgl6WgST9/UrIZR6ClbIUevq453wOiahxBtnAvOuwrkbfcT/Mgu0xoqdRiRqESs2B8ohnWp5tdu9Kk7Vpj9vWxWmO39TfjdhHZUtUoecZtdcPO53UWsYGLNk6ym3SQQViotTKZ1MBEKxiH4iI6Yl+6RvenhiiBjqQKzjWZ82Q6BaBbVBkXSQ/C2Wi5qywvLzcxMd29HmCdgF0LdewY2sYQXvfQ/TJsPCD93ysgMpZEJHQIvZcTwF+8BG+Sf1+0PgOJ57MKgjepF4hHKQT+Cu9X0RBW176WgsJ3BDkXd1rdRjuh6iJ+oxph1CDqoDQRNUi6EBohNSpGihH3kZf4saK7hLNJFvRNmv7sPHLOFFCwXGUDWqeJkYp1h6VEm8fnpJoR/WJMDMWDCr5cc74HFFSq0+dx1E9eX5Ntth08Y6G+dnCuVRjYCyrMkJQo8xjNp8Ygk9kSTF2Iyy6pJgm03RqjyZDyfgmARUi7NVZrvLbGbNU06d+ohvF+mTFchcA6H3ack+b6vxXjgCgrGqs947TGZ884rXeNy8psdmAM1280VisTqnGki4AVCrndotHmngl3+cuXrzQKltcJ2CsrK0nTh7YTonuqWr4H1K1PDwPJjwl5L1JaFtRdqVl18JOCQQUPDDVqEgpfg/4IuxeSX4Pi648bf+vD61bzzxrEyPNZIN5r0OxbUW195kG6b/7eg6rwTBe8YskFRoG8SHJRGrvdr6dLY3nvIZqL/u7WkWZHLbcA6SjI6KsEWWr6U059gx3663ogdyR9PRpUVOow6iboWvh5QFQOqcWs21NApqYazjWFNSG2b3Bzd+3S3vRDPvUp5B3Hk61p6SYA5uyFy9BoGKsZo/UuSo3GbP2tzGk5EyqdD9UbfEXg7hmZazKwX/9tjd/WGO5lrG7k+5vH3Pp8b4HaGn+tcZpfWB9Q46NRmzl6zchsDdFWkC3+udRcujEexwhB7/b1+GyN0yocZfyO4by75nogmB6oqqo2nTp18rqJOgH7lSuXmXG66WKvXnO/9NsD1xjIVbAqbWUhNFKV0esKvEopFUgnWAh7tVUgRSMn0B39Vt+Je6nf6oFg8edB7PW5TMVV4sdXq8MfvwsUOi9kth1d6MQxb3ddekvbE/JtcRmt9xppLo/OrtAYIS4dQHQtWS+W08NAGrue31hyXqzX83e48NF17P6aNLSP5JSZEh7q6sBoBwKnYtzWbe6wJk2Dk6PcYlN/T6JDfq/7/zANuETXuHbtC1uuJdEcRI2QhKp6HogK0dJN42vNOM04zD2s8frG3/y7ivOizJnECfSubIi+l3lkgTX2y6yx/vo6GtKEVwFs5XXqpLKtN5t0zdtqTOalAmCN0bVN97s1PltjLuPw9UyalFvUf0DL6H9qUiSU/Bt3gLCz3vaM1Xp55BbVNVrjtkd60cmKQLV94P4dnh64du0a8UJHrzv//wEAAP//5L4mugAAQABJREFU7J0HoFNF1sfPq/SOIkVEUIoKCEgTu6KsgijoYkEXVBAUURRwEb913RULoCiioqiwioW1LYIuiF0sgIBSFFGRRXqRXl7/5tzHfeTl5eWl3CQ3yW92Y5J7Z87M/G7I+9+TM2dS0tMzCsSjZGUdktTUVI8jvIRAdAjk5xdIVm6+7DmQI9t2H5Sd+7Jl78Ec8z7bOpaVkyeHsvNk++4s2WuOacnOyZf9pv5BU08fasOJkpaeKhUqZEhF86hUMUPS01Iss5XKZ0gV895+VDXnq5r3VStmSo3KmXJUtQpSuUK6lEtPk5TCJk4MBxsQgAAEXE3gYFaurN9xQHYf/m7+Y2+WbNi+X3LyCr+T95rvaeuh39Wmrq+y13zn79pzSHLM93qe+VvgWezv5EqHv5PTDn8nF6tjtIv13WzqVKmYLpkZadbpWlXKSYPalUTb6Neyvq5TvYJnU15DIKYE8vPzpVy58n7HkOIt2LOzs4zQQGn4pcbJiBAoMN/r+eY/2eaLWsW5ivGcPPMw7/WYnssz77P0+OEvcz2Wa17rQ8+pDSdKSmqKJdLT0lIl3Yj31MP/JlS4Z5j36ea4PluPw6/LZaRKefMHQs+lmfYUCEAAAslCIM84S/YfyrW+s3XO+h1+wAhz24mSa4S7fm/rd3reYRHvzSYnt/B7X9sUeDlfCr+TzXdruvkONt+xvnSKfk3r97We1+9m+2u4nPlerlQ+vahNpXLpUj6zUMx7j4H3EIgFgQIjXjIzy/ntuoRgz8kp9Fz6bcVJCEAAAhCAAAQgAAEIQMARAhkZmX7tINj94uEkBCAAAQhAAAIQgAAEIksgaMFOSExkLwjWIQABCEAAAhCAAAQgYBMIKSSGRac2Pp4hAAEIQAACEIAABCAQWQIhLTo9ePCAWbSRHtmRYR0CEIAABCAAAQhAAAIQMIkzck1muop+SZSIYd+3b59JLeM/8N2vRU5CAAIQgAAEIAABCEAAAgERyMrKlsqVK/utW0Kw7969WypWJD+pX2qchAAEIAABCEAAAhCAgAMEDhw4KNWqVfNrqYRg3759W5mN/FrkJAQgAAEIQAACEIAABCAQEAF1lteufZTfuiUE+6bNm6R2rVp+G3ESAhCAAAQgAAEIQAACEAifwPYdO6TuMXX9Gioh2Nf9vs40OsZvI05CAAIQgAAEIAABCEAAAuET2LR5szQ8tqFfQyUE+6+//iING/pv5NciJyEAAQhAAAIQgAAEIACBgAisW7dOmjQ5wW/dEoL9hx9Wyoknnui3ESchAAEIQAACEIAABCAAgfAJ/Pzzz3LSSSf7NVRCsC9ZslhatmzptxEnIQABCEAAAhCAAAQgAIHwCSxfvlzatm3n11AJwf7VV19K+/bt/TbiJAQgAAEIQAACEIAABCAQPoFFixbJ6ad38WuohGD/6KMP5ayzzvLbiJMQgAAEIAABCEAAAhCAQPgEPv/8czn//Av8Gioh2GfNniXdLrrIbyNOQgACEIAABCAAAQhAAALhE5gzd6706N7Dr6ESgn3Gv2dIr8sv99uIkxCAAAQgAAEIQAACEIBA+ATefucd6fPnPn4NlRDsU6e+KH379vXbiJMQgAAEIAABCEAAAhCAQPgEpk+fLv373+DXUAnB/uSTE2XQoEF+G3ESAhCAAAQgAAEIQAACEAifwOTJk+W224b6NVRCsD/44IMyYsRwv404CQEIQAACEIAABCAAAQiET2DcuPFyzz33+DVUQrCPumeU/OP++/024iQEIAABCEAAAhCAAAQgED6Bv913nzz04EN+DZUQ7LcOuVUenzDBbyNOQgACEIAABCAAAQhAAALhE7hj2DB5atJTfg2VEOzXX3+9vPDC834bcRICEIAABCAAAQhAAAIQCJ/AjTfeJC+99JJfQyUEe8+ePeXNN9/w24iTEIAABCAAAQhAAAIQgED4BK644kqZOXOmX0MlBPvZ55wtH86b57cRJyEAAQhAAAIQgAAEIACB8Alc0LWrfPbpZ34NlRDsrVq3ksXffuu3ESchAAEIQAACEIAABCAAgfAJtDvtNFn2/TK/hkoI9mMbNpQ1v/7itxEnIQABCEAAAhCAAAQgAIHwCTRucoL8vm6dX0MlBHulypVl184//DbiJAQgAAEIQAACEIAABCAQPoHqNWrK/n37/BoqIdi19t69e6V8+XJ+G3ISAhCAAAQgAAEIQAACEAidwKFDWVKlSpUyDfgU7P/731qpV69emY2pAAEIQAACEIAABCAAAQiERmDjxo1y3HGNymzsU7AvXvyttGrVqszGVIAABCAAAQhAAAIQgAAEQiOwbNkyadfutDIb+xTsc+bOkfPPO6/MxlSAAAQgAAEIQAACEIAABEIj8NHHH0u3i7qV2dinYH/55ZfkqquuKrMxFSAAAQhAAAIQgAAEIACB0Ai8/vrrct1115fZ2Kdgf/TR8TJ06NAyG1MBAhCAAAQg4CoCBQWSl5Ul+dlZUpCTIwV5eSJ5+eY5Vwpyc81QCwqHm5IqkpoqKfpIS5eUzAxJzcy0Htb7NHNeUlw1NQYDAQgkHoGJEyfKXXcNL3NiPgX7yLtHypgHHiizMRUgAAEIQAACbiKQb0T6wXX/k4Mb1kvOju2Ss3uX5B84KLl7dknurj8KBbwZcGq58pJavoKkVqgo6VWqSrm6daXcMXWlfN16klG9uqRVrGSJeTfNjbFAAAKJR2D0vffK2EfGljkxn4K9X79+MmXKc2U2pgIEIAABCEAg1gRy9+01gnyP5O3fJzm7dsmB39bIwd/XSfa2rZZgzzuwX3KNcM/9Y/sRwa5ivXxFI8zNo2o1KW8yo5WvV988Gkjm0XWkXO2jJN0I94yqVSUlPcN44dNiPU36hwAEEpDAgAEDZdq0aWXOzKdg79atm8ya9W6ZjakAAQhAAAIQiDWBfT+tkj0rlsmBX1bLwbVrJHevEe9GpBdkZ0u+hsGYsJj8XBMeY7zvYkJmtGgojBgRnpJqHunpxuNe7rDXvZyUO9p42o9vLFVOOkWqnNJKMowHXoU9BQIQgIDTBHr0uFTmzJlTplmfgr31qa3l20WLymxMBQhAwHkCBUZQHDx40NrATPOz7t692/lO4tBiSkqKVKhQQSqb3Zhr1KhhbTSh79PwfLr2auYasZxjRHK2Ec76qFSpklR0QviafyMam569fZscWv+77P1xpexZuUIOrVsrWZs2FMaq55vY9RBLerXqJkSmvlQ84USp3KyFVDj2OCnfoKHlbU8zc6BAAAIQcIrAae3by/fffV+mOZ+C/aijj5aNJv6PAgEIRJ9Afn6+bNmyRX799VeZN2+erFq1KvqDcGGP6cYLWqdOHbPBxHHWPhGNGze23pcvX96Fo2VISkBvPHeZEBW96dRHgwYNpH79+mHD0QWkeVnZsvvbBbLtv7NN+Mv/JHvrFsnPyS7mRQ+1Iw1/0TCYVA2XqVxFqrXrINVO6ySVT2wqFcwcKBCAAAScIlCvfgPZtnVrmeZ8CnZttd/EAmaaFfMUCEAgugTyjOdw3bp1snz5cnnttdfk22+/je4AXNqbetKrVasmtWvXloYNG0qjRo3k+OOPlxNOOEFOPPFEy/uuop4SOwL665B61feYeHL9dWjNmjXy008/WX9L9Lq1bt1aWrZsGfoAjf188+8ja/NG2fuD8aov/VZ2L1po4tN3WiEwoRsupaUVLpMmFRo1lkonNDXCvaNUObmlZNaqaS1KLaUVhyEAAQgERKDwl8fKAdUtVbD//PNq6w9iQFaoBAEIOEZABbt611WoP/vsszJ//nzHbMe7IQ2L0UeqiT8+2vwSeNJJJ8mFF14oV1xxhfVeQ2QosSOgn91Dhw7J2rVr5csvv5RPP/1UPvroI+uG6jyzGd8FF1wgZ511VsgD1DCYPJOucfeSb2XTjFflwK8/S97e3VJgfpWyY9NDNu6noca7a0aZmudcINVPP1OqtDhJypuMMhQIQAAC4RDQ78oTzS93gZRSBfunn34iXbp0CcQGdSAAAQcJ2IJ9kVlHMnnyZAR7KWw1Hvqoo46Sk08+WTp16iSdO3eW008/XTIyMgRPeynQInRYveobNmywhPqKFSssr7p61/Xx22+/WSFMXbt2FX2cffbZwY/C8qznmpj17bJ32Xeye+liKxxGY9gLTBhMJMW6PVgNk7E87U1bSPXOZ1iiPbNmLSPkCcmyGfEMAQgER0AdG+ecc25AjUoV7NOnvyx9+vQJyAiVIAAB5wgg2INjWd2k3jvmmGOs76ubbrpJ9L0uTKVEloCutdAQGF1UeuDAAVm8eLF89dVX8v7778vKlSstT7t+lrV06NDBEuuhCnb1oGvWl/3ml9/N77xpRPtSk77R5FTXrC9RLhlGpNe6oJtU79hFqjRrLhlmAXQkirJVfjbncPvQX6b0RlZ/naJAAALuIDBjxgzp2/e6gAZTqmB/6KGHZPjwuwIyQiUIQMA5Agj24FiWK1fOyjzS3qy013ALDb1QbzslsgR27twp27Ztk2XLllnrLX7++WcrlOt///uf/PHHH1Ysu4pOLeEK9jwTZqNifff3S2XnZx/Jwd9+lfysQ4WhMJGdZgnrGhqjnvaqbdrJURddLBUbHS+pZoGqidUqUTecA7pYV1kq5/37TYrKwyxDtanZeTSETG9uKRCAgDsIjB//qIwaNSqgwZQq2AffMlgmPvFEQEaoBAEIOEcAwR4aSxUiuhh14MCBcu2111qhMaR8DI2lr1a2x1dj1FVAqpj85ZdfrBj1L774QraaLAelpSANR7Crd113K93x+aeya8HXsm/l95JjQmFiVowwTzFhV5WanST1rr5OqrZsbdI9VrNyuTs5Jl14rj+Xa1jRjh07rBugcOxr+FjPnj2t8KRw7NAWAhBwjsDQ22+XZ55+JiCDpQr27t27yzvvvB2QESpBAALOEUCwh8ZSF5xqXLsK9uuuu85K+aj52inOENBsBvv27bPi0xcuXCg//PCD/Pjjj7Jp0yZLrKuQ1zq+SsiC3XiVcw8ekCyTcWbzO/+WnV9/Kbm7dlredV/9RO2YCSvRvOw1z+1qMse0l6rNTxKn87PrWoDXX39dli5dKr///rsVehTO/PRmdsSIEdbC33Ds0BYCEHCOwOWX95LZs2cHZLBUwd6yVUtZYmISKRCAQHQJINjD433NNdfIn//8ZyuFYCOT+pESOgGNn1YhrmEZ6kFXca4CUjMXrV692lpQGkioRjiC/ZDJr27Frr/5qknhuCD0yTjcMr1GTanU/BSp0el0Oer8riaWvaajPdiLznVdgHrZS7sZCrRTTX86duxYufzyywNtQj0IQCDCBNq2ayfLly0PqJdSBXuVqlXljx3bAzJCJQhAwDkCCPbwWGoc+7nnniv6K+Fpp50WnrEkbq1CPCsryxLpKtBVQKrXV/Ora4y6hsXoYtNASqiCXcNhNN+6xq7/8ckHst/saOqWkppZTtKr15AaZ5wtDa79i5RzOM0jgt0tV5pxQCByBGrWqi17zb4VgZRSBbs23rhpoxxlNrugQAAC0SOAYA+PdfPmzeXUU0+VG2+8kZ//g0SpHnX9/G036RP1oR51jVP/5ptvrMWluj+AhsUEW0IW7CZdpMau//HVF7Jv+XdyaP26YLuOXH0TFpOSli41OneR+tffKBWPO17SdB8AhxafItgjd+mwDAE3ENhmvmPr1a0X8FD8CvavvvpSNPMCBQIQiB4BBHt4rHVxXZMmTWTkyJH8/B8kSg27OHjwoLVplwpGfWisunrUVahreIyK+mBLyILdpG3c+OYM2Tb3Pcneskly9+wOtuvI1jfivOqp7aROrz9L5WYtpHzdupJidkd1oiDYnaCIDQi4l4D+Gz/99MD3O/Ir2F95ZboVC+re6TIyCCQeAQR7eNdU09fVq1dP7r//ftF4dkrpBGyPumYh2bx5s7W4UbOTrFq1ylpcqt51DYHRXOuhCHW751AFe765gVg/bYpsefdtyTMhOPlml1O3Fc0WU+uCi6RqqzZSpXkLx7LFINjddqUZDwScJfDvf//bZDTrG7BRv4L9H//4h8kP+deAjVERAhAInwCCPTyGukFMrVq1ZNy4cdKvX7/wjCV4a92hVD3q6kXXxY36+Prrr4vi0/WzqEI9kIWl/lCFI9j/9/TjsumtGYW7mYaZi9zfGEM9V77h8VL1tI5So2NnqdGhk6RmZoZqqlg7BHsxHLyBQMIReOihh+Vvf/tbwPPyK9j1j92UKc8FbIyKEIBA+AQQ7OEztAV7//79wzeWQBZUeKtI32MWOaknfe3atVYGEo1N14e+1+PqUdfPoVMlFMGu3vXcfXvl9ylPWx52p8bitJ3yxzaSqu06mJ1PO0tNkzEGwe40YexBIDEJDBgwUKZNmxbw5PwK9jPOPEM++fjjgI1REQIQCJ8Agj18hgj24gxVqNtiXbO7aF5v3ZTHfmzZssWKTw/Xk1681yPvQhHsuXv3SJYJ1dn48ouybU5geYqP9Bi9Vwj26LGmJwgkEoFzza7c87+YH/CU/Ar2OmbnwPW/u2hVfsDToiIE4pcAgj38a4dgP8JQPeqanlE96BqT/tNPP1mvdafS9evXWzHqmp5R60WqhCLYs8xupoc2bpDNb7wmOz7+IFJDC9sugj1shBiAQFISaHBsQ9li1g4FWswOy5nGqVJQav1t5kuzerVqpZ7nBAQg4CwBBHv4PJNZsOv3uT40rEWzumj4i258tGDBAtEdSvWhwl1FvJNhL/6uWiiC/dDmTXJw3f9ky3/elD8++8if+ZieQ7DHFD+dQyAuCezavdukTT8qqLGn1KhZy1Lr+sVtpezyilsktWNQPKkMgbAJINjDRli06DQZY9j186PpGTUeXbO9rFy50lpUqtleNK+65ldXEa/1/Dlrwr8KRyyEItizd/4hWSZUZ9PrL8v2ef89YsxlrxDsLrsgDAcCcUAg2JSOOqUiwW7P75DJGKCeGbtMmzbVpJ251n7LMwQgEGECKqQ0xnj58uUyY8YMWbx4cYR7jL15zVSybdu2gHfOLGvEyeRhV9Gtnxn1mGt8+q5du0TTNGrmlyVLlsjSpUutz5Ke9/xuL4uhk+dDEex5Jkwne9dO2WDSOm59b6aTw3HUVvmGZtHpaZ1MhhiTJaYjWWIchYsxCCQogVdeecVkMQsuKUJKjRo1C7x3Ztu/f5/k5xVujvFXk9bxnya9IwUCEIgOARVgKrp0IaCK9g0bNkSn4xj2ojco7777rhWq4cQwkkmwq1jfu3evlUddPeorVqyQ7777zopP15sg/SypR13TM4aTSz2c6xKKYC8w88o7eEDWTX5SNr/zRjjdR7RtheObSLWOXaR6+45SvV17Sc3IcKQ/0jo6ghEjEHAlgf8z6RwfNmkdgynWotP09HSpYDYbsUteXq4c2H/Aenv55ZfLv/9tcuBSIACBqBBQwW7vOKk7TKrXNNGLiszHHnvM2mHTibkmumBXb7n+KqGfDw1x0Zs6DYH5+eefi8JgVKirRz1aYS/+rlsogl3taWrH359/RjabOPZ8M+eC3CO//vrrL5rnKjVtITXPu1CqnWo2TmpxMhsnRRM+fUEgTgn8+c995J133glq9EVZYlSwq3DXoh6bA4dFQvMWzWX5smVBGaUyBCAQHgHbG6qZO2LlFQ1vBsG11rCf0aNHyxdffBFcw1JqJ7pgV8+57kyq3DTsZZn5jtb86Sri9WFnfXGDWNdLFKpgLzA3HBtef0W2mrSOOSYBQt6+PaVc8dgdrtK6rdS5/M9GrJ8k5evWk5S0NEcGg4fdEYwYgYArCbRs1UpW/bgqqLEVCXYNiylXrpzl2SswP516loPmZ0lbzHse5zUEIAABJwioOBk5cqR8+umnTphLuEWnKsA104sKdQ2V0hAiFeirV6+2wojUu65x624rFY0jqHr16nLmmWdKt27dpF27dtKyZcuAh1lgbli3zv2v7PjsYznw8yrJ3hp4CrSAOwm1Ymqq8aZnSHUTu17vmuul4vGNJaNKVbMyLCVUi8Xa6a6z+quTZvXRxcLhpt084YQTZOzYsaK/mlMgAIHYEdB/yxUqHIlqCXQkRwS7nxZLliwO6kvWjylOQQACEChBAMFeAkmxAyrYND5dOX399dfW7qSaR11DXvTL362/xNStW1eaNWsmF154ofTo0UP0vf76EWjROPZd3y6UnYsWyO4FX8rBNb8E2jTi9VSsp1WsJDXOOFuO/cuNUq5efUkxIt6p8sknn8jf//536xcUvWEL95c2BLtTVwY7EAiPgK5Na9u2XdBGUqpUqVqQZzzqGjNrgh19Gpg+/WXp06ePz3MchAAEIBAuAQR7IUENYVHxbe9Gaqdi1A2OVKCrJ/23336zvOkao+62kmEWXKpH/Riz6V6jRo3kxBNPtAR7ixYt5KSTTpJKlSpJ+fLlAx62/tp70Gzet3fVD7LNZIrZ+/0SURFf2t+qgA07UDGtchUp3/B4qdH5DDnm0sskM8icymUN4cMPP5R77rnHWkCsn4lww5sQ7GUR5zwEokNAs7/17Xtd0J0VS+uYbRb16GIm7/K3+/4m/3fvvd6HeQ8BCEDAEQLJLthtMaZeVI1BV4/6/Pnz5ZtvvrEW4mr4iwp0FW5uLCkmDEQfKsgbN25svEdtpWvXrtK6dWvrfTAi3Xt+eVmH5NCG9bL+pRdl5/zPpCDbLD5V0R7jknl0HanazmSG0XSOnTpLRlVnNxj84IMPrDCx77//3pGZItgdwYgRCIRNIJQMMdppMcGuB7LMl2N2lvG2e5Qr//xnefWV6R5HeAkBCEDAOQLJLNg1y4suINWHCnX1oKs3XTO/6HuNWde0jOpMCTcswrkrdsSShrgcddRRliddPepNmjSR448/Xo477jjruHrc08JYiFlgspZlm/j8re/Plp1fz5dD636T3D27jwwg2q9M2EtqZjmp2OREObr7ZVK11alSvl4965iTQ0GwO0kTWxBwD4FevXrLrFmzgh5QSsVKlQt0saln8d48qVnzZrLCxNxQIAABCESCQDIIdvWi2yEvGntuP9asWSM//vij/PTTT9azelQ19MWtJdUIVk1CkJmZaSUqUHHetGlTOeecc6R9+/aWUK9Ro4ajw881e4PsWvyt7Dbx7LsXfiVZG9eLlRyhlDBORzv3MpZiwn4yataWqq3bSf1rrpNKJzb1quHMWwS7MxyxAgG3ETixaTNZaxwzwRZr0WlKaopUrlzZtC1c3a5/VPaZjTg8y9ZtW6WG8ZRQIAABCDhNIBkEux2bvnXrVmvRqHrSVayrJ10fu3fvLtqlVDdCcmupWrWqHH300aJx6aecckqRR72e8TKrp13/lng7gcKdi+ZfzzIZcvat+lG2zX1P9v24UnJ37xRN+xjtkl6tutTocrZU79jZ5F5v63jsuj0fBLtNgmcIJA6BnSa08eijjg5pQkVZYixvicdioH379hV6MA6b/eijD+Wss84KqRMaQQACEPBHINEEuzo9NHxFs3vYedFVhOtGRxrusnLlSvnhhx+sZ03HqCEvbi3qUde/D5qisUqVKlK/fn0rLl296Z06dZJjjz3Wyv4SjfEfMjc22+bNkd2LF8mBNT9bedk19WNUionRT9eFpsceJ0df2kuqn9ZRMmvWlNRyxX+hDncs+rnRmzsV7LroVDNKOFGIYXeCIjYgEB6Bzz//XM4//4KQjBQJdm1dxXhO7KJ/ZHI9vBcTJjwmQ4YMsU/zDAEIQMAxAokm2DXcRWPONU+6/VCPusaj2wJdPeoq1DVDl9Z3a9EFo5qOUcNeNI968+bNLcGuXnaNX1chH86i0mDmnWc29Du4/nfZ/d1i2fHRB3LIZJDJ1c2UjMiNdNFQGN0kqWqb06RGh05SsfEJJm4909FUjjoH/TzoZ0QF+8MPP2yl83Ribgh2JyhiAwLhEZg0aZIMG3ZnSEa8BHsVY6QwLEb/2GjWGLv069dPpkx5zn7LMwQgAAHHCMSrYFdvqC3O1cmhv0xqSkb1pOvDFuv6rJ51FWJaz+1FRbhmfFFBrikaNfPLySefbGV/0dcq4DWFY7SLxq3n52TLgV9+lh2ffyr7V62UA2vXGE/7Psk/FAGuxqsu+gtDrdpSrk5dqdbxdKl6ajupeFwjy7seifnrrzL6WVHBrn/cf/nFmdzzCPZIXC1sQiA4AgMGDJRp06YF1+hw7VIF+6FDhyRHc7MfLq1PbS3fmk07KBCAAAScJhCvgl3FunrKdQdS3X1UvegqsOyHZ0iM9Z1q6rsx04vn9dT0jHbYi4a8aIpGFekq3DUkpkKFClaIjNaLfjELd/MLLIGeZdZV7fluifxhUj0eXLdWsjdvdHw45g9k4W6mnbuYfOtnmswwJ0iFBsdKmvnVQTdOikTRX110kywV7C+++KL1mXKiHwS7ExSxAYHwCJxmQgm//y60VK1HBLv57jWbKBWNRP/Q5HnFBu43K/U1lpECAQhAwEkC8SDYVXDr96J60VVUqbdcUzLqQwW7LibVxaO6yZG9kNRJRpG0pSJcF4vWqVPH8p5rakYVeC1btrQ2P9LwF/W4u6UU5OcZT3uuHDTe9T3Ll5l49l+s19lbt0jOju0mT7vZaCiUXO3mJkR3K00124anm7zqmWbe6llXr7qmb8w0vzike/ydjAQP/Vxp/n0V7G+//bb1eQq3H02rqSk3NcSmZ8+e4ZqjPQQgEAIBDXerVEkTvIRWigR7OeMx8BTje/eauECvjU/nz/9COnbsGFpPtIIABCBQCoF4EOwqyjVXuoYrqAdd0y9qqIvmStcFpXlGIOpiQfW667M+4qWoINe86aeffrqVXEAFuy4m1Wwv+ndBBZ8uPnVV0YW9+ouFCd088L+1sv/Xn2XXgq/NbqhLJf+ACZExGywFXcwcUzJMuspj6poY9RONUG8r1dqdJhnVa1gLTlMMBxX0kSz6eXrvvfcswf7pp59aN4Ph9Ke/hOh11LUH//znP6V79+7hmKMtBCAQIoEFCxbIGWecGWJrE7Cenp5RkGq+hDy9J/qH54CJw/QuTz45UQYNGuR9mPcQgAAEwiLgRsGuO4vannJ91gWjKtptj7qGwHhuahQWgBg11sWi1apVsxaTnnfeeXLSSSdZi0s1dl03PIqXkrNzp2Rt3yYHfvtVDhnxnmNSPubozrDmkWM2WdIYd00NWaIYMasLR1MNB80Ak27mnGlyrGeaXxrKHVNfKjQ8zsSrH1e4uDQtvUTzSBxYa3Lwv/zyy5Zg1wwxGnIVTtEbrdq1a1u/ltx9993WDrTh2KMtBCAQGoHJkyfLbbcNDa2xaZVSuUrVgmKLhzQHu365mWfv0r9/f3nuuWe9D/MeAhCAQFgE3CjYf/31V5k/f37RQ0NeVMTbRb8jfX1P2ufj4bmmSUuo8em9evWSwYMHi+ZYV49sbOLTwyRm/c1Sr3uuydm+VQ5t3Gi87iZUxgj4Q2ajpXwTzlSiGDGbbuacUaOmlDex6bqYtKL5dSGzZi1JK2fi1NWbbnhEs+ivNhMmTJB58+bJRjOHcBcp668jeo01Dac63M48M3QPXzQ50BcEEo3AwIE3y9SpU0OeVkqNmrU8lLmK9f3F8q97Wm7ZqqUsWbzY8xCvIQABCIRNwI2CfenSpfLmm29a8cQa/qKODM2elUhFBbuGv/Tu3btIsMf7/DSTTJ4R57n79hov+06zwdJuyTUhSz7ztWsSmMxyhR52E5ueYX5tyDC7tKaWryD6y3M0xbouRlZxvmzZMhk3bpx88skn1mcu3NAq3ZW2WbNm0qFDB7npppussKd4v8aMHwLxSKCtSYu7fFno+yoUCXb9ktMFVWVlMNBUZVWqhB40H4+QGTMEIBBZAm4U7F988YXoT5jffvutqLddQwUTrSSiYI/Xa6TCXMOtFi5cKGPHjpUvv/zSkanoL+i6I62uT7juuutYh+YIVYxAIDgCe/fuE/2+DaekVKxUyTgeciU/L7CNJ3Tl+rnnnhNOn7SFAAQgUIwAgr0Yjqi9QbBHDXWZHWkWohUrVojuhPjSSy9Zi5rLbBRABV003KVLFznnnHPksssuk1atWgXQiioQgICTBD755FO58MILwzJZlCUmUCtjxoyRkSNHBFqdehCAAATKJIBgLxNRRCog2COCNSSjmmlo7ty5Vuz6hx9+KGvWrAnJjncjzRBz8cUXy0UXXWScbedai4q96/AeAhCILIGxY8fJ6NGjw+okaMGuOVzffPONsDqlMQQgAAFPAgh2TxrRe41gjx7rsnrS/OsagvWf//zHCsHaaTLfOFE0x36fPn3k0ksvtbIBNWzY0Amz2IAABIIgcMUVV8rMmTODaFGyatCC/RizJfXv6/5X0hJHIAABCIRIAMEeIrgwmyHYwwToUHP1rmt+f80Oo3/U9b1usuJEqVixogwcOFCuvPJKazMszblPgQAEokvgWJMidrPZYyGcErRg185++GGltWtaOB3TFgIQgIBNAMFuk4juM4I9urx99aapQX/88UdZbDKwaez6Z599Zi1wLisBhC9bvo7pDrZ33XWX9O3b19rJtkqVKr6qcQwCEIgQgZ9//tnscXFy2NZDEuxTp75o/eMPu3cMQAACEDAEEOyx+Rgg2GPD3e5VRbnujDt79myZM2eOlfN/1apV9umwnzVDjF7jUaNGWRlidINEjWmnQAAC0SMwffp06d//hrA7DEmwDxg4QJ5+6qmwO8cABCAAASWAYI/N5wDBHhvudq+a11/TKWsozLRp00Tj1jXfv1NFN8KqV6+eJdivvfZa0V1P43JTLKeAYAcCMSBwy623ypTnpoTdc0iC/ZSWp8jSJUvC7hwDEIAABJQAgv3I50A3uilfvrzUqlVLdMGgFo1p1p1W1RvrZEGwO0kzeFsrV66UJeZvqW7QpSmT9fo6me9fF5jqpkm3GsGgCSMoEIBA9Am0adtWVixfEXbHIQl27XXjpo1yVO3aYQ8AAxCAAAQQ7IWfAfV+qlhXIX3SSSdZMcd6RhckqrDbv3+/ox8WBLujOIM2NmPGDHn++edFY1z1GjtdTj31VGuH06uuuspK6ei0fexBAAL+CWwzm6HVq1vPf6UAz4Ys2N8wqR0v4449QMxUgwAE/BFIZsGuolkzd2joQv369a3nuiYb11FHHWV5XHWXVV2QOH/+fNmzZ48/jEGfQ7AHjcyRBirOly9fLv/973+t+PVdu3Y5fm11oLpRS7du3SyxruKdAgEIRJfAf0zWpytNSkcnSsiC/Y5hd8g4s30yBQIQgEC4BJJBsKv3XGOI09LSrGf7dePGjaVFixbSpk0bUVGlr4899lgL6dq1a62NdDRcYt68ebJ79+5wURdrj2AvhiOibzQbjC4y1Z3Fv/jiC/n3v/9thYJ99913jvernzV9aNy6PvQzRf51xzFjEAJlEhgxcqQ8PuHxMusFUiFkwX5a+9Pk66++CqQP6kAAAhDwSyAZBLvGo6vnXD3pno86depYoS/qUa9twgxVRGsqPi0Idr8fm7g5aWeDWb9+vXz//ffWryUff/yxbNiwQbabn8ydLhpWpfnXBw8ebOVgr1GjhpDO0WnK2INA2QQ6n366fLvo27IrBlAjZMGutrdt3ybVq1ULoBuqQAACECidQKIJdk2nl5mZWfTQVHoqmpo2bWo9TjzxRGsvC32v4lwFlq+CYPdFJX6OqVddF5FqJhgV5irW586dK99++60VEuPU5kjeRHTB8jHHHCO33Xab3Hzzzd6neQ8BCESBwC7zi+hRtY9yrKewBPvb77wtPbp3d2wwGIIABJKTQKIJdvWkawiChrbosz7Uq64e9OrVq4um29OHej1V3GuYjK+CYPdFJX6OafjLH3/8IboO4fPPP7fWIvzwww+yefNmK4WjU5sjeRPREJj27dvLFVdcIT169PA+zXsIQCAKBGaZ/RV6Xd7LsZ7KFOzq+ck3XoIcs02yegs8y+133C7jx43zPMRrCEAAAkETiDfBrvHBmn5RxbZ+R2q4i4Yg6ENfq0DX2PTjjz++6FlFvHraSxPnvqAh2H1RcfcxFen60IWkO3bsEL2Gy5Ytk48++sja0VQ97ZHyrNvrJM455xy5/PLLpXPnztLWpJSjQAAC0ScwfMQIeeLxJxzr2K9gT0lNMT/XFm5jnJubIwcPHCzWcZu2bWThggXFjvEGAhCAQLAE4k2wq+hW77jGm2tml+OOO65InKtQ13OeIl6FvIr1YDeuQbAH+0mKfX3d+EjF+sKFC63QFxXrv/zyiyXe9ZyK9Uh51vUmUkOxNI2jhsM0aNDA+lUn9lQYAQSSj0CHjh3NnkVLHZt4ScGeIpKakmp9oegfnHTjQdKiXzQFZoW7d1m/Yb3UMSnJKBCAAARCJeBmwa4hDNu2bbM86bq1uz5UkGt4iy4U1VhhFe2e4S8qnJwoCHYnKEbGhm5ypHnxDx48KIcOHbIy+KhQVw+6fl40+4umbtRwGN30KhpF10noZ/Hqq6+2Fpzq+gj9FYgCAQhEl8AW82++Qf0GjnaaUqNmreJxLofN79u3t8i77q/H55+fYmJ0LvdXhXMQgAAE/BJws2DftGmTFcaiQsiOR1fPpYa4qEDyXmCqHk4NTXCiINidoBgZG+rE0nzq+vlQQf7TTz9ZAl0zv2zZssVaaKpiPisry/EdakubkS5mPvPMM+VPf/qTFbvu5GextD45DgEIlCSgaVuvvbZvyRNhHClVsOtPdvrzbVnlL9dfJxMmTCirGuchAIEACehaEfXcac5tFWy6aC3Ri+70OHXqVFmxIvztm5WVZskYZ9bX9O/fP2R0Gsbw2WefWb8uqihXm+pRt9MvVjMZsjTUJZIFwV6crnqw9RcPjQ2PdtF/lyq+7YcKdvWk679P/beqKRtVwO/cuTMimyD5m6+GaGnIVadOnaRPnz7W7qYtW7YMar2EP/ucgwAEgiMwyKRUfeH5F4JrVEZtS7DrF5F++Vg+IeMZqlChvPmHXviTrn45acydnrNyA5vzBQX5pn7hFtlNmjSWVT/+WEY3nIYABAIloDfL6rVTEfv+++/LypUrA20at/VUiK1atcqxmxMnBLum49PvPnuxvTowPB/qRXfKk17ahUOwFyezevVqefHFFy1PdvEzkX+n/y5VjOtnVR+aqlGP6edDn/Whnxn7WORHdKQHFeuafeiSSy6RoUOHWgud9e91pD+fR0bAKwhAwJNAs+YtZI0Jh3OyFHnYs7IOSXZWthWnmWF+0tWSb7581NNnl/SMdCPmCz1KlpA3Yl7LsmXfWzup2fV4hgAEQiegf/TXrVtnZZZ45ZVXrN0QQ7cWHy1VGKunUmOBnShOCHYnxhGuDQR7cYK6gPOhhx6Sb775pviJKLxTYW7Hq+uzxrC7pWi41hlnnCEXXHCBJdp1fQWx6265Oowj2Qj8aJzYrVq1dnzaKdWq1yhQr1F+vhHnxmtezqQo07i3Qq/7XhGvCPdK5q69sH6+qb/PGtCECY/JkCFDHB8cBiGQjARUsOtCNY3rnjx5srUrYjJyCGfOCPbA6GmWmyZNmkjv3r2tRYqaG97Nxem1Dm6eayBjUw+6/j0+9dRTrQ2SVLRrliL1uFMgAIHYEJg0aZIMG3an451bgl3/0as33S6WIDfeBKPa7UNFz5rq0apvfv4TEyijQv+C8y+Qd8wmShQIQCB8Agj28Bki2ANjiGAPjJNba2nYS/PmzS3vum6SpBsm6dqKYHL9u3VujAsC8UrgcrNZ0myzaZLTpSgkJlTDGs+em5NrFt3sCmiRaqj90A4CyUIAwR7+lUawB8YQwR4YJ7fVUqeZ/hKuu+dedNFFcv7551vZYerUqeO2oTIeCCQVAV3DUq1adcfCOz3hpVSuUrWYG1296/bdub8YPc0zbHvaNTRm9nuz5aILL/S0zWsIQCAEAgj2EKB5NUGwewEp5S2CvRQwLj+s8eka+qKhMLqjaUezQYuKdd07hQIBCMSOwNwPPpDul3SPyABKbJykGyXZ/+j37tlTaqcVK1W0Msno3YQK9qG3D5VHx48vtT4nIACBwAgg2APj5K8Wgt0fnSPnEOxHWMTLK00lqtetS5cuctZZZ0nXrl1F869TIACB2BO4a/hwmfjExIgMxDHB3rxFc1luVvBTIACB8Agg2MPjp60R7IExRLAHxslNtZo2bSqnnHKK9OzZ0wqD0X0BrJTLbhokY4FAkhJo2aqVSXW+KiKzDz+G3XjYNYe7FtI7RuQaYTTJCCDYw7/gCPbAGCLYA+Pkhlqawcf2rNve9ZNPPtkNQ2MMEICAIRCpdI423PAFu8kks2+vSf9oytixj5hUNsNs2zxDAAIhEECwhwDNqwmC3QtIKW8R7KWAceFhzQDTrl07+dOf/iTnnXeeqICP9E67LsTAkCDgWgITJkyQkSPvjtj4UjIyMostOk0zi0ntGHZbiPvs3Wx9ahI8WmnaC6wUj2J9icydO8dndQ5CAAKBEUCwB8bJXy0Euz86R84h2I+wcNsrOwGELiZt1KiRJdbbt28vbdq0kZNOOsltw2U8EEh6Ahdd1E0+/vjjiHEoEcOelp5m7torWR36W3Ra2oi2bN0iNWvUKO00xyEAgTIIINjLABTAaQR7AJBMFQR7YJxiUUszsekGSJ06dbIywah3XWPX9Ri7mMbiitAnBEon8MfOnVLn6MimVU0pX6FicQ+7SeuYeXiXNN1+uaxiHO1Wesec3BwpyC+QadOmyrXXXltWM85DAAKlEECwlwImiMMI9sBgIdgD4xTNWuXNbuPHHHOMHH/88dZGSK1bt5a2bdtKgwYNrOPRHAt9QQACgRF45ZVXpF+//oFVDrFW2DHsdr9Zhw5Jdna2XHnllfLqq6/Yh3mGAASCJIBgDxKYj+oIdh9QfBxCsPuAEoNDuqeJFn3Wa6Le9HPPPVd69OhhhcOoiNcQGQoEIOBOAtdcc6288cYbER1cSvUaNYs87PaXht1jgVlQWlax2xw8cEByc3OtRTC7du20vnjKast5CECgJAEEe0kmwR5BsAdGDMEeGKdI1tK/oeo9P+6440RTNmpO9UYmZl03RmrSpIm1uNTeqDCS48A2BCAQGgHVytWr15ADRgdHslgx7PqFUalyJSOyi9/B79u31wpzKW0AnvHumtrRXnz69jtvS4/ukdnpqbSxcBwCiUIAwR7+lUSwB8YQwR4YJ6dq2QtJNQZdHyrE9Vl3LNWwl7PPPltamTzO1atXF/WqUyAAAfcTmDV7tvS6vFfEB5pSrnz5gooVKupvcVZnOTnZ5gsk03rtKcJ9jSQjM8N8qRRuhbx3r9kV9bBDvv8N/eW5Z5/11YRjEIBAGQQQ7GUACuA0gj0ASKYKgj0wTk7V0g2Ojj76aGnYsKEVo37ssccWxaZr3HrdunWtTb8yMzPNTuJpTnWLHQhAIIIEBt58s0x9cWoEeyg0XSyG/ZCJQ9ewFnvXtLIEu3oAMswXixbPjDK1zc5rmzZuKOyB/0IAAkERQLAHhctnZQS7TywlDiLYSyAJ+YDtPVevuYptFd36UA+6/Vo/lyrSmzVrJrrp0QknnGCFvWjmF61DgQAE4o9A3Xr1Zfu2bREfuCXYNf5GY9BVKKSYhS22YN9vwlzyD+dYT7Xu9gsK3x/2pGs9rV9QYHY73Vu426k94vfff0+6du1qv+UZAhAIkACCPUBQfqoh2P3A8TiFYPeAEeZL3b9E/yZWqVLFetSrV080h7p+FtWrrt7z2rVrW+EuuulRtWrVrPraRsU+i0rDvAA0h0AMCHwwb55ccvElUek5pUrVagUHD5pA+cMiXOPZK5svHC379xvBnpdvva5cxYhzrxh364T5T65J6XjwQPEUkANvHihPTZpkV+EZAhAIkIAK9g0bNsgPP/wgb731lnz33XcBtqSaTUDF0O23325l2bCPxePzpk2b5JtvvpEFCxZYD/3V08minOrXr29tenfFFVdIpUqFe3A42YeTtvTfxMSJE2Xx4sVOmg3JlnrR7ZzoKrZ111FPwa4CXcNcVLAfZX51VgGvvNWTjjgPCTmNIOA6ArcOGWJCwJ+LyrhKbJzkKdgP7N9ved11JOWN90B/2vMu6p1XYa852D1LHfNFtf73dZ6HeA0BCARAQP9N7dmzR7Zv3y4//vijbNmyJYBWVPEkoEKqQ4cOVtYNz+Px9loFut682Q9NnetkUU7q7W1kspK0aNHC53e8k/2Fa2ub+dl50aJFojcysS7qUVchrh51W7iriLcfKsz1uIbI2CEx+hqxHusrR/8QcI5Ag2MbypbNm50z6MdSScHuERJjp2q02ps1qephTzUeeBX1Yv6v4TJWyExxrV7U3fv/fV+6XnBB0XteQAACZRNQwZ6TY361MhuX7dq1K+KposoeUfzVUNGkYQiabSOei34O9hvHif3QX1+cLMpJxaSKzhpmh2q3i0ldZ6U3sJFOnxYIYxXjykw968rQ+rsYSEPqQAACCUFg3ocfysV/ujhqcykh2NOMB0C/gLRkZZnNkLJC9+gMGDhAnn7qqahNho4gkCgEVLTrQwWaPlOCJ5AI3kz7c1DkHAkeQ5ktVGiqUFfx7vaiPDQxghv+TdjclB1i3e2fHMYHAecJ3HLrrTLluSnOGy7FYgnBrotIMw+HvmSbFI/eoS6l2PF5mGwxPrFwEAIQgAAEIAABCEAgjglEKzuMjaiEYLdPOPX8n//8Ry65JHo/GTg1buxAAAIQgAAEIAABCEDAm8B7770vl112mffhiL6PuGC//vrr5YUXno/oJDAOAQhAAAIQgAAEIACBaBC48cab5KWXXopGV0V9RFywazz8jh3brZXyRb3yAgIQgAAEIAABCEAAAnFGQNfR1KpVO+qL3yMu2PU6vPzyS3LVVVfF2SVhuBCAAAQgAAEIQAACEDhC4PXXX5frrrv+yIEovYqKYO/Zs6e8+eYbUZoS3UAAAhCAAAQgAAEIQMB5AldccaXMnDnTecNlWIyKYNcxbNi4QY42m0xQIAABCEAAAhCAAAQgEG8EtprN2+rXqx+TYUdNsE+Y8JgMMVu4UiAAAQhAAAIQgAAEIBBvBCZNmiTDht0Zk2FHTbB36txJvvj885hMkk4hAAEIQAACEIAABCAQDoEzzzpLvvn6m3BMhNw2aoJdR7h48bfSqlWrkAdLQwhAAAIQgAAEIAABCESbwLJly6Rdu9Oi3W1Rf1EV7MNHDJeHHnywqHNeQAACEIAABCAAAQhAwO0ERt1zj4wfNz5mw4yqYK/foIGs/W1NzCZLxxCAAAQgAAEIQAACEAiWQKPjG8uG9euDbeZY/agKdh31W2+/JZf26OHYBDAEAQhAAAIQgAAEIACBSBF4d9Ys6d2rd6TMB2Q36oK9d+/e8vrrrwU0OCpBAAIQgAAEIAABCEAglgSuuupqeeutt2I5BIm6YNfZrvt9ndQ95piYTpzOIQABCEAAAhCAAAQg4I/Aps2bpeGxDf1Vicq5mAj2hx56SIYPvysqE6QTCEAAAhCAAAQgAAEIhEJg/PhHZdSoUaE0dbRNTAT7yaecLN8tXeroRDAGAQhAAAIQgAAEIAABJwmc2qaNrFyx0kmTIdmKiWDXkf53zn/lgvPPD2nQNIIABCAAAQhAAAIQgEAkCXz40Ufyp25/imQXAduOmWC/5ppr5F//mhbwQKkIAQhAAAIQgAAEIACBaBH4y1/6yauvvhqt7vz2EzPBrqNav2G91Dn6aL8D5CQEIAABCEAAAhCAAASiSWDL1q3SoH6DaHbpt6+YCvYHza6nI8zupxQIQAACEIAABCAAAQi4hcA4s6vpPWZ3U7eUmAr2ps2amkD+FW5hwTggAAEIQAACEIAABCAgJ59yiqz+abVrSMRUsCuFt995W3p07+4aIAwEAhCAAAQgAAEIQCB5CcyaPVt6Xd7LVQBiLth79Oghb78d292jXHVFGAwEIAABCEAAAhCAQMwI9OrVW2bNmhWz/n11HHPBroNavnyZNG/e3Nf4OAYBCEAAAhCAAAQgAIGoEFi1apW0bNkqKn0F04krBPsdw+6QcWPHBjNu6kIAAhCAAAQgAAEIQMBRAiNGjpTHJzzuqE0njLlCsFepWlU2bdwo5cplOjEnbEAAAhCAAAQgAAEIQCAoAllZ2VK3Xj3Zu2dPUO2iUdkVgl0n+sQTj8stt9wSjTnTBwQgAAEIQAACEIAABIoRePrpp+X22+8odswtb1wj2E9peYosXbLELVwYBwQgAAEIQAACEIBAEhFo07atrFjuznTjrhHs+nl4y2SLudRkjaFAAAIQgAAEIAABCEAgWgTeNVlhepvsMG4trhLs3bp1M2l03nUrK8YFAQhAAAIQgAAEIJCABHr0uFTmzJnj2pm5SrArpa+++lLat2/vWmAMDAIQgAAEIAABCEAgcQgsWrRITj+9i6sn5DrB3q9fP5ky5TlXQ2NwEIAABCAAAQhAAAKJQWDAgIEybdo0V0/GdYJdaf366y/SsGFDV4NjcBCAAAQgAAEIQAAC8U1g3bp10qTJCa6fhCsF+/ARw+WhBx90PTwGCAEIQAACEIAABCAQvwRG3XOPjB833vUTcKVgr1ipoqz/fb1UqVLZ9QAZIAQgAAEIQAACEIBA/BHYu3efNDi2gRzYf8D1g3elYFdqY8aMkZEjR7geIAOEAAQgAAEIQAACEIg/AmPHjpPRo0fHxcBdK9jr1a8v/1v7W1xAZJAQgAAEIAABCEAAAvFF4LhGx8vGDRviYtCuFexK78knJ8qgQYPiAiSDhAAEIAABCEAAAhCIDwKTJ0+W224bGh+DNaN0tWBv2qyprFzhzi1i4+YKM1AIQAACEIAABCAAgWIETj7lFFn90+pix9z8xtWCXcG98MLzcv3117uZIWODAAQgAAEIQAACEIgTAi+99JLceONNcTLawmG6XrC3PrW1fGt2oKJAAAIQgAAEIAABCEAgXAKntW8v33/3fbhmotre9YJdaUyf/rL06dMnqmDoDAIQgAAEIAABCEAgsQjMmDFD+va9Lu4mFReCvX2H9vLVl1/GHVwGDAEIQAACEIAABCDgHgKnd+kiixbGX+RGXAh2vcyvvf6aXNG7t3uuOCOBAAQgAAEIQAACEIgbAm++9ZZcfdXVcTNez4HGjWDv2KmjzP/iC8+x8xoCEIAABCAAAQhAAAIBETjjzDNlwTcLAqrrtkpxI9gVHF52t318GA8EIAABCEAAAhBwP4F49q4r3bgS7B06dpAv5893/6eCEUIAAhCAAAQgAAEIuIZAlzPOkIULFrpmPMEOJK4Eu06OjDHBXmLqQwACEIAABCAAgeQlEK+ZYTyvWNwJ9jZt25g7pPiMP/IEz2sIQAACEIAABCAAgcgT6NCxoyxdsjTyHUWwh7gT7MqC3U8j+InANAQgAAEIQAACEEgQAvG4q6kv9HEp2Ju3aC7Lly3zNR+OQQACEIAABCAAAQhAwCLQslUrWfXjqrinEZeCXak/+eREGTRoUNxfACYAAQhAAAIQgAAEIOA8gcmTJ8tttw113nAMLMatYD+2YUNZ8+svMUBGlxCAAAQgAAEIQAACbifQuMkJ8vu6dW4fZkDji1vBrrMbM2aMjBw5IqCJUgkCEIAABCAAAQhAIDkIjB07TkaPHp0wk41rwV6lalVZs+ZXqV6tWsJcECYCAQhAAAIQgAAEIBA6gV27d0vjxk1k7549oRtxWcu4FuzKcviI4fLQgw+6DCvDgQAEIAABCEAAAhCIBYFR99wj48eNj0XXEesz7gW7kvnpp1XmTqpxxCBhGAIQgAAEIAABCEDA/QTWrFkjzZo1d/9AgxxhQgj2fv36yZQpzwU5dapDAAIQgAAEIAABCCQSgQEDBsq0adMSaUrWXBJCsOtMPv/8M+ncuXPCXSAmBAEIQAACEIAABCBQNoGvv0CKwVgAADd9SURBVP5azjrr7LIrxmGNhBHs3bp1k1mz3o3DS8CQIQABCEAAAhCAAATCJdCjx6UyZ86ccM24sn3CCHal+9rrr8kVvXu7EjSDggAEIAABCEAAAhCIDIE333pLrr7q6sgYd4HVhBLsp7Q8RZYuWeICrAwBAhCAAAQgAAEIQCBaBNq0bSsrlq+IVndR7yehBLvSGzv2ERk2bFjUQdIhBCAAAQhAAAIQgED0CUyYMMFspHl39DuOYo8JJ9h1M6XVq3+S2rVqRREjXUEAAhCAAAQgAAEIRJvA9h07pGnTZgm1SZIvhgkn2HWSg28ZLBOfeMLXfDkGAQhAAAIQgAAEIJAgBIbefrs88/QzCTKb0qeRkIJdpzt//hfSsWPH0mfOGQhAAAIQgAAEIACBuCWwYMECOeOMM+N2/MEMPGEF+4UXXijvvTc7GBbUhQAEIAABCEAAAhCIEwKXXNJdPvjggzgZbXjDTFjBrlimTn1R+vbtGx4hWkMAAhCAAAQgAAEIuIrA9OnTpX//G1w1pkgOJqEF+7ENG8qqH3+QzMzMSDLENgQgAAEIQAACEIBAlAhkZ2dL8xYnye/r1kWpx9h3k9CCXfEOHzFcHnrwwdiTZgQQgAAEIAABCEAAAmETGHXPPTJ+3Piw7cSTgYQX7HoxFi5cIG3atImn68JYIQABCEAAAhCAAAS8CCxdulQ6dEi+pCJJIdi7desms2a963XJeQsBCEAAAhCAAAQgEE8EevS4VObMmRNPQ3ZkrEkh2JXUlCnPSb9+/RyBhhEIQAACEIAABCAAgegSmDZtmgwYMDC6nbqkt6QR7EfXqSM/rFwh1apVcwl6hgEBCEAAAhCAAAQgEAiB3bt3y0knnyJbt2wJpHrC1Ukawa5XbtDgQfLkxIkJdxGZEAQgAAEIQAACEEhkArcNHSqTn5mcyFP0O7ekEuxKYs7cOXL+eef5hcJJCEAAAhCAAAQgAAF3EPjo44+l20Xd3DGYGI0i6QR723ZtZcE338QIN91CAAIQgAAEIAABCARDoGOnTrJk8ZJgmiRc3aQT7HoF//73v8vo0fck3MVkQhCAAAQgAAEIQCCRCIwZ86Cl2xJpTqHMJSkFu4JavPhbadWqVSjMaAMBCEAAAhCAAAQgEGECy5Ytk3btTotwL/FhPmkFe9euXeX999+Lj6vEKCEAAQhAAAIQgECSEbj44ktk3rx5STZr39NNWsGuOCZMeEyGDBnimwxHIQABCEAAAhCAAARiQmDSpEkybNidMenbjZ26U7CniKSmpklaaqrk5edLfn6eSIHz+DIzM2X58mXSuHFj541jEQIQgAAEIAABCEAgaAJr1qyRli1bSXZ2dtBtE7VB8II9JUXS09OLeOTm5BS9dupFalqqZKRnFJnLyc2V/Dwj2iNQevbsKW+++UYELGMSAhCAAAQgAAEIQCBYAldccaXMnDkz2GYJXT9owZ5ivN6ZGYViWp3e2VlZjgNKMzcE6WlpRXbVyx6JGwO7g6effspsdTvAfsszBCAAAQhAAAIQgEAMCEyZMkVuueXWGPTs7i5dKdhTUlPMTUFmEbls48UvMKI9UqVixYry/fffSaNGjSLVBXYhAAEIQAACEIAABPwQWLt2rbRufaocOHDAT63kPOVKwW5dChN6k2q8+fkq1AsiEMDudb0JjfECwlsIQAACEIAABCAQRQKEwpQO272CvfQxR+zMk09OlEGDBkXMPoYhAAEIQAACEIAABEoSmDx5stx229CSJzhiEYi4YE8xnnKNe9dnLQXGW67hLfrst2i7wxV81S2yp+ljDpvy7Mvqp+BwP2V0ZY9Ds8YsXbpUmjY90T7EMwQgAAEIQAACEIBABAmsXr1aTj21jeREIJFJBIcdVdMRE+wqntMz0iU1JdXnhPKNYM/N1dh032o6s1y5IsGe5bWwVW2ruNaSa7LH5OXlSoZZCOurL6sfjYH3c4NQOFZtnyK6odI777ztc8wchAAEIAABCEAAAhBwlkD37j1k7ty5zhpNMGsREezqUVcBbXvIS2OmUl1Fe35eyQWlwQh2Fdyas720ov1kZ5tsNj7uDXyN9Z8P/FOG3XFHaeY4DgEIQAACEIAABCDgAIHx4x+VUaNGOWApsU04L9iNSs/MPOIdLxTluYVhMIZlqskAk25yrNtiXs/nmMT43h7wQAW7tlPB7tmPGteNlzxTQ1qeeJPPvVgpMdYC83OMGasJpfnqyy+lffv2xarzBgIQgAAEIAABCEDAGQKLFi2S00/v4oyxBLfiuGDXTZXSDudQL02Mq6DOMGkbNQRFS74RyDnZxTdgClSwa/vS+vHM5651vHPGe45VQ2dycsyOWlrRlA4dO8iX8+cXvuG/EIAABCAAAQhAAAKOEuhyxhmycMFCR20mqjHHBbun0Pa3Q6nnBkwKN8srZMXTjr8Ydm2ba2LY83J97ITq5UH310e2Eeve8fR33nWnPPLww9oFBQIQgAAEIAABCEDAIQJ3//Wv8tijjzlkLfHNOCrYPTc8sjzaXiLcG2dmuUzjbC/0snuL+2AEu7cQ9+zHs49sj9Cb4mMtMN534133Ud42C1B7dO/u4wyHIAABCEAAAhCAAASCJTBr9mzpdXmvYJsldX1HBXtqmllsauLTtVghJkYg+yvpZmGqvVjU20seqGD3Feri2WeGySZjh954etE9x6o2NNOMr1K/fn3zc80CqVWrlq/THIMABCAAAQhAAAIQCJDA9h075LTT2suG9esDbEE1JeCoYNfYdY0L1xKQYPeId88z6RlzPRaFBirYy+qnNMHuOVZrwH7+06t3L3npX//yU4NTEIAABCAAAQhAAAJlEbjmmmvljTfeKKsa570IOCrYU41gz4gTwe451sJ1poX/9eJT9PaRRx6RIbfeWvSeFxCAAAQgAAEIQAACgROYOHGi3HXX8MAbULOIgMOC/UhIjNnPtNS4cLt3a7Ojw/nTQw2JCdXD7hkSU5YNe7zz538hHTt2tN/yDAEIQAACEIAABCAQAIEFJrz4jDPODKAmVXwRCFqwe3umPVMlFl/IWfpmRfZAPMNecrw2UPI85y9LTFliu7SQmBJj9dpN1R6j53PrU1tb8eypfjZp8qzPawhAAAIQgAAEIJDsBPLz80267I7y/XffJzuKkOcftGBPzzB51s2mRFp8edE9hbbPzYoOD9XTw62HvDO9eNqJhGDXPj378M5So+ftoikodcMnjbO/8cYbZfIzz9ineIYABCAAAQhAAAIQ8ENg0ODB8sLzL/ipwamyCAQl2L1zp+eZO6bcnOIbHnlvVpRjzheYep5FdyZVz3dhQkeTocWHHU8xHSnBXnKsJXOxe45Vo9x1V9ann35KbrrpJs8p8RoCEIAABCAAAQhAwIvA888/L4MH3+J1lLfBEihdsKuoNt50swGoVVS42ukR7U6yfYhxVeGZmeWKxLjWVU+7/hyiRT3VaWnpRefVvOZHL+rIqlXc+x0pwV7aWK0bDDOP1BTjWTcLae0bC8+xLljwjbRt2/bwaHmCAAQgAAEIQAACEPAksGTJErP2r5PnIV6HSKBUwa4CPdN4wUsr3mkYPet5eqU9j3u/tjzWvkS/qRgND7uOR2PZMzKOePu9x2i/9x5rm7Zt5JuvvzY3IKl2FZ4hAAEIQAACEIAABAwBddR26txZli5ZCg8HCAQt2FW4ar70fOM191uM4E9PTzOC9oiH2rO+hsHkGTsFtgvf86R5HRHB7rHTabHurLGmW+Lb9qZ7ni9trP3695Mpzz3nWZXXEIAABCAAAQhAIOkJDBg4UKZNnZb0HJwCUKpg1ziQFBMSYrSsKeY/RliruC5NYJc6oGJ2CiNfCgpMeIwqf7eVEMY6YcJjMmTIELfNhPFAAAIQgAAEIACBmBCYNGmSDBt2Z0z6TtROSxfsiTrjCMzrww/nydlnnx0By5iEAAQgAAEIQAAC8UPgs88+kwsu6Bo/A46TkSLYHbhQjZs0kS+/nC+1a9VywBomIAABCEAAAhCAQPwR2L5jh3Tpcoas+fXX+Bu8y0eMYHfoAvXo0UPefvsth6xhBgIQgAAEIAABCMQXgV69esusWbPia9BxMloEu4MXauTdI2XMAw84aBFTEIAABCAAAQhAwP0ERt97r4x9ZKz7BxqnI0SwO3zhpk59Ufr27euwVcxBAAIQgAAEIAABdxKYPn269O9/gzsHlyCjQrA7fCE1L/v8+V9I+/btHbaMOQhAAAIQgAAEIOAuAosWLZIzzjizaINMd40ucUaDYI/AtWzeorl88cUXUr1atQhYxyQEIAABCEAAAhCIPYFdu3fLmWeeKat+XBX7wST4CBDsEbrALEKNEFjMQgACEIAABCDgCgIsMo3eZUCwR5D1HcPukHFjWYARQcSYhgAEIAABCEAgBgRGjBwpj094PAY9J2eXCPYIX/cnn5wogwYNinAvmIcABCAAAQhAAALRITB58mS57bah0emMXiwCCPYofBBmzZ4l3S66KAo90QUEIAABCEAAAhCIHIE5c+dKj+49ItcBln0SQLD7xOLswZpmB9TPPv1Emjdv7qxhrEEAAhCAAAQgAIEoEVi1apWcfc658ofZ0ZQSXQII9ijxbtO2jXz6yadSsWKFKPVINxCAAAQgAAEIQMAZAgcOHJRzzj1Hli5Z6oxBrARFAMEeFK7wKvfs2VPefPON8IzQGgIQgAAEIAABCESZwBVXXCkzZ86Mcq90ZxNAsNskovR8y623yBOPs6o6SrjpBgIQgAAEIACBMAncfscd8vRTT4dphebhEECwh0MvxLZjxoyRkSNHhNiaZhCAAAQgAAEIQCA6BMaOHSejR4+OTmf0UioBBHupaCJ7YurUF6Vv376R7QTrEIAABCAAAQhAIEQC06dPl/79bwixNc2cJIBgd5JmkLbe/+/70vWCC4JsRXUIQAACEIAABCAQWQLzPvxQLv7TxZHtBOsBE0CwB4zK+YrVa9SQjz6cJ61atXLeOBYhAAEIQAACEIBACASWLVsm51/QVXbt3BlCa5pEggCCPRJUg7DZtFlTmTdvntSrWzeIVlSFAAQgAAEIQAACzhPYuGmTdO3aVVb/tNp541gMmQCCPWR0zjU8vcvpMu+DDyQzM9M5o1iCAAQgAAEIQAACQRDIzs6WrhdeKF99+VUQragaDQII9mhQDqCPSy+9VN56680AalIFAhCAAAQgAAEIOE+gd+8r5N1333XeMBbDJoBgDxuhcwb69esnU6Y855xBLEEAAhCAAAQgAIEACAwYMFCmTZsWQE2qxIIAgj0W1P30efsdt8v4ceP81OAUBCAAAQhAAAIQcI7A8BEjzKaOTzhnEEuOE0CwO440fIP33Xef3HsvmxSETxILEIAABCAAAQj4I/DAA2Pk/vvv91eFcy4ggGB3wUXwNYRHHx0vQ4cO9XWKYxCAAAQgAAEIQCBsAhMnTpS77hoeth0MRJ4Agj3yjEPu4dlnJ8sNN7DDWMgAaQgBCEAAAhCAgE8CL774otx88yCf5zjoPgIIdvddk2Ijmj79ZenTp0+xY7yBAAQgAAEIQAACoRKYMWOG9O17XajNaRcDAgj2GEAPtsu33n5LLu3RI9hm1IcABCAAAQhAAALFCLw7a5b07tW72DHeuJ8Agt3918ga4XvvvycXmp3HKBCAAAQgAAEIQCAUAh+YndUvufiSUJrSJsYEEOwxvgCBdl++fHmZPXuWnH322YE2oR4EIAABCEAAAhCwCHz22WfSvXsPOXToEETikACCPY4uWpWqVeU9I9o7d+4cR6NmqBCAAAQgAAEIxJLA119/LZcYsb53z55YDoO+wyCAYA8DXiya1qxVS2bPelfat28fi+7pEwIQgAAEIACBOCKwaNEi6d7jUvljx444GjVD9SaAYPcmEgfvjzr6aEu0t23bNg5GyxAhAAEIQAACEIgFgSVLllhifdvWrbHonj4dJIBgdxBmNE3VOeYYmfXuTGnTpk00u6UvCEAAAhCAAATigMDSpUulx6U9ZcvmzXEwWoZYFgEEe1mEXHz+mLp15d2Z/0G0u/gaMTQIQAACEIBAtAmoWL+052WyedOmaHdNfxEigGCPENhomVVPu4p2wmOiRZx+IAABCEAAAu4loGEwKtbxrLv3GoUyMgR7KNRc1kZj2mf+5x0WorrsujAcCEAAAhCAQDQJ6ALTnpddLsSsR5N6dPpCsEeHc8R70ewx/3nnbVI+Rpw0HUAAAhCAAATcR0BTN152eS+ywbjv0jgyIgS7IxjdYUTztL/z9ltsruSOy8EoIAABCEAAAlEhoJsiXd6rN3nWo0I7Np0g2GPDPWK96o6obxnRfmHXrhHrA8MQgAAEIAABCLiDwAfz5klvI9bZwdQd1yNSo0CwR4psjO2qaL+0R48Yj4LuIQABCEAAAhCIFIF3Z82yxHqk7GPXPQQQ7O65Fo6PZPr0l6VPnz6O28UgBCAAAQhAAAKxJTBjxgzp2/e62A6C3qNGAMEeNdSx6ejZZyfLDTfcEJvO6RUCEIAABCAAAccJvPjii3LzzYMct4tB9xJAsLv32jg2skcfHS9Dhw51zB6GIAABCEAAAhCIDYGJEyfKXXcNj03n9BozAgj2mKGPbsf33Xef3Hvv6Oh2Sm8QgAAEIAABCDhG4IEHxsj999/vmD0MxQ8BBHv8XKuwR3r7HbfL+HHjwraDAQhAAAIQgAAEoktg+IgR8sTjT0S3U3pzDQEEu2suRXQG0q9fP5ky5bnodEYvEIAABCAAAQiETWDAgIEybdq0sO1gIH4JINjj99qFPPJLL71UXnvtVcnMzAzZBg0hAAEIQAACEIgsgezsbLn66mvk3XffjWxHWHc9gSOCPUUkJSXVPMwLUwoKCswj37woZQ6F1QpP+qrjed4y6MNOQHVSrDEVjsuMKV/H5avDw/Y9bdrVzJxSdV7mkZ+XV3Ig5rjat/qw5l1GHyUtxN2R07ucbkT7a1Kvbt24GzsDhgAEIAABCCQ6gY2bNhmxfrV89eVXiT5V5hcAgZT0jIyC9PQMSU01Yt2rgepdFbi5ebnFhHuKqZuZkWHVzss353PMea+Slp4u6Wlph+vkmzo5XjVE0k2dtMN1cnJzTF/mBsEuZjA6rjTTl3fRceV61z9cKT3D2ExNs+4zsrOyLPs6FntuWeaYXXQeGWYe9jn7uD7nG+Gem5trbhA8xuRZIQFeN23WVF579VVp1apVAsyGKUAAAhCAAAQSg8CyZcvk6muukdU/rU6MCTGLsAmkVKxUqcD4lv0aUvGao4Lb9myb6pmZ5axWKp5VGHuXDBNuYXm1zYlA6mRlGxta8XDJyDQ3Ecbj76/k6c2EEdWexdyAWCJfTemY7RsLu44t2FPNjUKGEfJllWxjI5FFe/UaNeTVV1+RrhdcUBYKzkMAAhCAAAQgEGEC8z78UK655lrZtXNnhHvCfDwRSKlUqbIlk/U/6gXP1zAYU1Qsq/i1pXye8TR7esk9BXWWibEqEvPa2DQqZwS9Z9E4rGKhLCYEpdzhGGrrhkBtHC6envdCT7eKZjNCYzfVeM89hXZ2jrGr5+y2HoJdD+n4tV8dv4b42F78zHKFNxxaR39B0OMmEMaExaQWeuUPe/b1WHbWkbFp/UQsU6e+aHZM65uIU2NOEIAABCAAgbggMH36dOnfn80O4+JiRXmQlmBXuauCupjo1oEYUa0LE23R7ult9vRQ5xgvt2dseGqaCTUx4Sy2jNb2pdXRbnKNpzzvsKfcM9ym0LOv49JaR4pn3yXE/mHBbte2bjRM+IynDY1Vtxdcet+IWO3MgDMyzLxNPfXge87NtpuIz2PGjJGRI0ck4tSYEwQgAAEIQMDVBMaOHSejR7NfiqsvUgwHZwl29TDn5fpYjGkGVjwW3SNe3cND7i167bAUFdPq3dY49Hzj4bbCag5P1q6jbz295MWPlx6OYnvIrZsNj5Acz/aFNyLFQ220vxI3BR7efT1vFfsuxetmwT6dqM+33HqLyfP6eKJOj3lBAAIQgAAEXEfg9jvukKefetp142JA7iFgCfYSIS2e4/MQ5t7hIZnl1PueYjmvPePYbTGtnnMV7BrC4i2s7TqBHvcckr72FOae4/c87um5L9beiHHPkB294VAPf7GQnWINkutNz5495aWXXpKKFSsk18SZLQQgAAEIQCCKBA4cOCjXX3+9zJw5M4q90lU8EjCLTisXeIptX5MoZ+K9tXiLa89YcztG3TPcxPKcm0Z2rHpRSI3HTYC3d94W8oX9aY+llSNLZYvsmqqegt07DMfTkucvB/Zx7c2Kczcx8bqg1byxTyXdc5u2beSlf/1LmjdvnnRzZ8IQgAAEIACBSBNYtWqVXP+Xv8jSJUsj3RX2E4BAQILdU0TbWVZ07p6hJXZYjaZpVCGvUte+EbA98bbH2zMG3Tudo31zEAzb0gS753Ff9tLS08wC0yMpHz3r6PiTKX7dc+7265q1asm//jVNul10kX2IZwhAAAIQgAAEwiQwZ+5c+ctf+skfO3aEaYnmyUIgIMFui2hPEW4BMqEldnpHe/GnnT3G03Nue+LtOp5ecO90jvbNgSWYNZVkAEXt2t5wT9u2178sE3rjoSkorWfz2g5f13b+vPRl2U2U808+OVEGDRqUKNNhHhCAAAQgAIGYEZg8ebLcdtvQmPVPx/FJoMwYds8QF43xtrLJeMxVNx7STZcsMW9yqdsC3lPo6nmtp0UFul3HFvAe5sQW7HZdy7BnhTJehyLYi5k0al297vamT77GWKx+kry5Y9gdMm7s2CSZLdOEAAQgAAEIOE9gxMiR8vgEEjs4TzbxLR7OEnMkraL3lD1jvX1tVOQZ3qIhJOpN1+K5EFRd1vYiT886doiMZ5+egttT9HvW0dd6I6GLYL0FvWf7Uj3sh0W53oCUlrKx2I2DRxYa73Ek0/sePXrIiyZfe/Vq1ZJp2swVAhCAAAQgEBaBXbt3yw39b5BZs2aFZYfGyUvAEuzqHc/x3tjIHFNRrDuW2iEiPmPCPRaQqgC2hbT3ZkP2zqfqsbZ3QPVM52hfAs+4+EKvfcn88CmpZlwmT7qWXJNj3d4MSd8HItjtmHqt71PUmwnbvwJYY0CwKyqrNG/RXF584QVp3769fYhnCEAAAhCAAARKIbBo0SK54cYbZdWPq0qpwWEIlE3AEuxaTYWptcjSpDjUomEs6i23xbpnTLpVweM/1uZKRrjbxZcn3tNTr/X8CWHPup7j0h50XHre7s3bSx+IYPe2rykdNU+8euwt+yYkxr6p8Ddve77J9qyMXnjheXZGTbYLz3whAAEIQCAoArpz6Y033mRpjKAaUhkCXgRSKlSsVGCLU69zRW+tOO6ckjuO2hU8BbAe0w2SVAB7FvWKZx72iuvxsoSwp/D2tOP52teNgWc7n95zNWDUvnroy5q33iz4+uXBcwzJ/Hrk3SNlzAMPJDMC5g4BCEAAAhDwSWD0vffK2EdY++UTDgeDJpBiBG6BLrLUdIy219q2ooJVRXGe2QnVconbJ7yePcNY9JR35he7umdcuHc6R7tO0bMZTLp6uv2Ny3jGvUt6hplLapp1uFTBrmeN/dLmraf1hoLNlJSE/6Jx7c9NeU5qmxSQFAhAAAIQgECyE9huUjUOHDCQePVk/yA4PP+U9PQM1eWWgNX4c3s7Ig0PsXb+LDzrcLdBmDPCumhc5rWOydFxedo3w3LNvINAFOuqjZs0keeenSxnn312rIdC/xCAAAQgAIGYEfjss89k4M2DZM2vv8ZsDHScmASOCPbEnB+ziiKBCRMekyFDhkSxR7qCAAQgAAEIuIPApEmTZNiwO90xGEaRcAQQ7Al3SWM7oX79+8mzZlMIXZhKgQAEIAABCCQ6AV2zd7PZXHDa1GmJPlXmF0MCCPYYwk/Urtu0bSOTn3lG2rZtm6hTZF4QgAAEIAABWbJkiQwaPFiWLlkKDQhElACCPaJ4k9v4M888LTfddFNyQ2D2EIAABCCQkASef/55GTz4loScG5NyHwEEu/uuSUKN6MabbpSnn3qKEJmEuqpMBgIQgEDyEtAQmFtuvVVeeP6F5IXAzKNOAMEedeTJ12HrU1vLU2YxTseOHZNv8swYAhCAAAQShsCCBQvkVpNc4fvvvk+YOTGR+CCAYI+P65QQo3z00fEydOjQhJgLk4AABCAAgeQiMHHiRLnrruHJNWlm6xoCCHbXXIrkGMiVV14pE5+cyEZLyXG5mSUEIACBuCegGyENvW2ovPHGG3E/FyYQvwQQ7PF77eJ25PUbNJAnjWjv0b173M6BgUMAAhCAQOITmDV7ttxmxPqG9esTf7LM0NUEEOyuvjyJPbg777pTHnn44cSeJLODAAQgAIG4JHD3X/8qjz36WFyOnUEnHgEEe+Jd07iaUYeOHeTxCROkffv2cTVuBgsBCEAAAolJYNGiRXLHsGGycMHCxJwgs4pLAgj2uLxsiTfohx56SIYPvyvxJsaMIAABCEAgbgiMH/+ojBo1Km7Gy0CThwCCPXmutetnetFFF8ljjz0qTZs2df1YGSAEIAABCCQOgdWrV8udd94lc+fOTZxJMZOEIoBgT6jLGf+TycjIsET7oEGD4n8yzAACEIAABFxPYPLkyZZYz8nJcf1YGWDyEkCwJ++1d/XMe/bsKePHj5NGjRq5epwMDgIQgAAE4pPA2rVrTSjmCJk5c2Z8ToBRJxUBBHtSXe74mmzFihUt0T5gwID4GjijhQAEIAABVxOYMmWKJdYPHDjg6nEyOAjYBBDsNgmeXUtAve1jxz4ijRs3du0YGRgEIAABCLifwJo1a2TkyLvxqrv/UjFCLwIIdi8gvHUngczMTHnkkYdlyJAh7hwgo4IABCAAAVcTmDRpktx9918lOzvb1eNkcBDwRQDB7osKx1xLoGvXrvLwww9Jq1atXDtGBgYBCEAAAu4hsGzZMvnrX0fJvHnz3DMoRgKBIAkg2IMERnV3EPj73/8uo0ff447BMAoIQAACEHAlgTFjHhT9e0GBQLwTQLDH+xVM4vG3bddWHnzwQTn/vPOSmAJThwAEIAABbwIfffyx3HPPPbJk8RLvU7yHQFwSQLDH5WVj0J4EBg0eJA/8859SrVo1z8O8hgAEIACBJCOwe/duuff//k8mPzM5yWbOdBOdAII90a9wkszv6Dp1ZMwD/5R+/folyYyZJgQgAAEIeBKYNm2ajL73/2Trli2eh3kNgYQggGBPiMvIJGwC3bp1k3/8435p06aNfYhnCEAAAhBIYAJLly6Vv/3tPpkzZ04Cz5KpJTsBBHuyfwISdP7DRwyX+81CI00HSYEABCAAgcQjoOkZ7zPf8+PHjU+8yTEjCHgRQLB7AeFt4hA4tmFD+cf9f5e+ffsmzqSYCQQgAAEIyPTp0+Vv9/1dfl+3DhoQSAoCCPakuMzJPckLL7zQ/Fz6f9KxY8fkBsHsIQABCMQ5gQULFpiwx3/KBx98EOczYfgQCI4Agj04XtSOYwKDbxlshPvfpHatWnE8C4YOAQhAIPkIbN+xwwj1f8gzTz+TfJNnxhAwBBDsfAySikCVqlXl/+4dLcOGDUuqeTNZCEAAAvFKYMKECfLPB8bI3j174nUKjBsCYRNAsIeNEAPxSOCUlqeYnVJHyxW9e8fj8BkzBCAAgYQn8OZbb8mYMWNkxfIVCT9XJgiBsggg2MsixPmEJqBpIO+5Z5R07tw5oefJ5CAAAQjEC4Gvv/7a7GL9EGka4+WCMc6oEECwRwUznbidgG64NGrUX6Vx48ZuHyrjgwAEIJCQBNasWSMPPfSw6AZIFAhAoDgBBHtxHrxLcgKav/3uu++W6tWqJTkJpg8BCEAgOgR27d4tjzzyCPnUo4ObXuKUAII9Ti8cw44cAV2Y+lcj2keOHBG5TrAMAQhAAAIyduw4ediIdRaU8mGAgH8CCHb/fDibxAR046WRxuM+aNCgJKbA1CEAAQg4T2Dy5Mky1uxQysZHzrPFYmISQLAn5nVlVg4SaN6iuYwYPlyuv/56B61iCgIQgEDyEXjppZdk3PjxsurHVck3eWYMgTAIJK9gT0mRFAOuQOEVWP8NAyNNk4FAm7Zt5K4775Q+ffokw3SZIwQgAAHHCMyYMUMefewxWbpkqWM2MQSBZCIQOcFuBHFGRrqkpKRKXl6e5OXmuoJralqqpKdnWGLdHlB2drbR7OGJ9oxMY9PMVe3kGHt2SUlNNRwyrLc5OTlSkJ9vn3LXs7le6Wlp1pj0eoXLw12Tc3Y0HTp2sDZeIoe7s1yxBgEIJB4BzaWuGx8tXLAw8SbHjCAQRQIRE+xp6elFAlDnk51jRHF+eKI4XC4qnjMPi2dPW84I9kxJNaI334dgt/tUwZ7vUsGebrikGT5a8swYc81YKf4JdOzUUe644w42X/KPibMQgEASElCh/vjjj8uCbxYk4eyZMgScJxA1wZ6bl2u87HnOzyAIi+oFTzVecC25xuOvwtQqYXrX1UZGZnwLdk823jcdhZD4b2kE2ndoL7cPHUqoTGmAOA4BCCQNAQ19eWLiRFm0cFHSzJmJQiAaBCIm2E18iAk9SZdU47XVWPFcF4TFZJYrVxS3np2V5SjfeBfsKal6vQpDd/RmJpqhOynms5JqwnH0WfuO1zUFrU9tLUNvu43FqY7+y8IYBCAQDwR0MenEJ5+U77/7Ph6GyxghEHcEIifYD6OwhawbwkFswR6JkA97nt7eac8wHDcwcNsntETolAPrCWI9x6bNmsptQ4aQDjLWF4L+IQCBiBPQ9IxPTpokq39aHfG+6AACyUwgxcQuFxSmSnEYg/GW6qJTDUHRBYwaJ15qMS54zdmiHlafMd563pzT/6kta8AhhMMHJdg9+zQDtxZh+gmdCVuwezDQqZXVX6kso3hCvfJ65YIaq7mOGutvX8NME0qkJb8g37JT6GG3DsX9f+rVry+33nKLDB48WKpUqRz382ECEIAABJTA3r375JlnnpGnnn5aNm7YABQIQCAKBFIqVqpsoh/MIsNcs8jQSwR7eoezS8lwoqEMGSb0RUuWivLDotb2nKrHWRcwWqLu8IRs4aw2tVPNoqJiXEtWtglVscdhDmmYhr0Y0qpw+D+Wl9zHmD3r6GvP8Xmfs98XW3R6uE87lMeuo88qKnNzTLiID+EejmBPMwyVVyGBIz1a7LzDU/6/vTP/rqLI4vhNYkgIhG0ggGwKIkFCEAdExgVZZBgBGcXjAi6Iyw/zB82c44K4gMsRHQQcBlnEZRBhRCBIEEFlEQgMWyBmgWTurfductN293s8kpf3+n3rnEr3q66uqvtpDudbt29Vc6Vu3WKhPbKbixO4bbe4M+UrGP1Cf+wCU+Vtn7X3TYDGt7v+eC2CPBMvH/dmQZ6nDxsZlNgndnptlGuZsL5BxtFZqaRHCf1NhDt/gGk4f4wJCQRAAASykcCRI0foH+xR/zsL9brLddloAsYMAllLIK8HC3YZvYhREWqtYpnLwkScWmwFsRXsziPOHtjmq7/fxrCIY8klNbHg9m6xqAJSlF1hYWwhp/YlA7WCzwlSK/C1ojkW3FDAu9XEJhSmuN1pq2B3fbYtTJVK/n22TUy0oVQFu3d83v6kfe9kSfsSL3VjQ/s3F+L17sbcNPntzqOC3obvhD1r7U8Eu7SvC3e1Dz36Pg9maiddUqeF/6259yXsaZcUE/vC1P2M9J8lS5bQSy+9SJMnT460nTAOBEAgOgR27NhBL7/8Ci1fvjw6RsESEMgyAnnF3Uta1IPtje0OE3FqZ5Bg1+t+RxXsItQ0PELEYDNv+6iLHa0XWD27qp6tAHTXZKFiUHKaMCYMJfxCzmLeeb2HVWJcKNo+YxOY+AJIvqmARb/uUy4edhHCep90raLWimApD2No2ckQmnTrS+5PPNg6mWl3jevp2wtp306S5Le9Jr+9i31lIqVhKPZa2DjVNhmH8pN99YWDCHj7hqSJy5v5WWqy7V5tjr8RiPO29tux6L1RPs6ZM4deZOH+0Pz5UTYTtoEACGQxgY/XrKFXWKivX78+i63A0EEgGgTcolMNeRCTrDfXii1vmISab0WXVzxqHe9RBbuU+3lXrZfYO4nQtlREyu9Wr7xeDDiqZ9mvTStkvaJbm7PecK/A1PF47w1jqOMR/dro86bAcrDttmvTI5DtOPz2hbfPK9lnrW0KBzeRaZRQprZk2XnZ6gQiyEZt29rX1nL0zyrGV9CLL7xAzz//AhUVtb0Zib7lsBAEQCATCTTwW9vXXnuVXnn1VaraW5WJQ8SYQCAnCTjBboWhFVzthCGHy/gtCLUCMBXB7heykUybto4VnmFPUQWytVHrJ9Ueu5c1ftwJULM1ZJDwDGJoRa5X/OuY5Kjtyrnl62sLj6+I49slCRP9YJOd0OhbBO/4g8Ypbdkx+D0vqePeXrD33iu8dTLo3kr4LDwOGo+0mUuptFcvFu1L6fmlS6m8vDyXTIetIAACGUCgurqaXlu2jMX6Mqq9eDEDRoQhgAAIWAKt2zqqALSCK0zEaSNW6FpBqdf9juphT0bESZiIX8rj3Wd0sas3DMOvvpSpjX6CXYWj1GswQlx+26QCVMqsEFZRa/lJnSCGllvYhMN69W09Ha8V3hJGI+EpWqb22rcjWuZlEDROsUFt03alzJuUi7dOIg97q9Dnhc9uDYW34Rz8PZ/DZJ5b+hzNnzcvB62HySAAAukksGbtWnp92eu0hsNfkEAABDKXgBHsEt8t2+2xdzYuWMNEnJpkhee1Cnbx2PuJNBWI2keiY7K7jASJVWlf+7T2+/V7A29VWZBf4C5Ze/X+ZAW7fFRKdk2RZNtxBeZPfoFMTGIfNLITE8tdF81qmyrGVdRrnL99k2Lbku7CnrXa5rfIVYeqfXn52Xbd89adffhtgF0X4B2PtpvLR9nPfcmzS+iZZ5+hgWVluYwCtoMACHQggVM1NfTmG2/S8jeWY//0DuSKpkCgMwlct2C3HuAw4WmNUA+7W4TI2yR6kwpEKRcBnCi5BatmoWNQ/SgJdvmSbFF8D3PZ2lEYqH0qflXsq9AOe1ZWWFuPvLDU5+GdjFjOQYJd6qiXXc7d05RnyuOXBayS3ARDhXysCH89BBYtWkRPP/M0zZo503MFP0EABEAgOQIbN22it958i1auXJncDagFAiCQMQSMYI/v7S17ssv2jpzCRJxaEORx1ut+RxXsQbHbYeLPr71ky1TQqgfa3qd9SlkyITFeT3KQqA1i2M5Dzrx1dxw7Jjm3Ils96VqnrU95U3GlVcC3TpxMTLuUSbiM30JUaS9onHKtrZ8WavKJQ5c6ys/LRa5ZwS6/NckEoJl3jrl6pW1XGb2Goz+BcRXj6KnFT9HipxbT4EGD/CuhFARAAATiBE6cPEkr3l5Bb694m/ZV7QMXEACBLCXgBLsNlVBvrdgTVG5t1RhkKWsViraCz3kiwd5OzLJAlFj3jkhhgr1dn0ECmgWwLjr1hvMEidogIZz8otPYvvBhQliuyXOTmH6vF1zHJV53CZkRr7bfRClonMJd2/C2Ldc0BQl2bVfGKGJfvP2x0CsukUKklAksXLiQFi1ehK0hUyaIG0EgugRkS8aVK1bSqlWromskLAOBHCLgBLsuGBS77cJGUXe664ifWNOQC+XVUYLdThS8wlj7Es+zxICLZznIO6119Rgm2K2A9rNV2pD+RPRK8oreIFGrglXu8Yaa6HhEt17Lto7SlqR2nHhSI95z77jUuy02yXVJfju9hI0zyDbXWPxPkGDX/oP6tW3gPDUCQ4YOpSeffIKefOIJqqysTK0R3AUCIJD1BPbs2UPvvPsuvfPOu3T82LGstwcGgAAItBEI/XCSVFNRKedODPKn6SXl88JLFa8xGdhxHnZpXwWgnMdinPUjRnksnPmjQvGvlwaJXbnPm9QWv5AYqWv7jC2Q1D7jYr1dn/LhpDYXcZCoDRPC1qsvLbX7cBLvgiPjEbbtrslATVKbtKjdhIsLbf9Sx/Hy2QXH1vNOLIJs0z7lqOy87dtJhdST6zbJ2xPJwtt+cMnWwXnyBO6aehc9/thj9Njjj1PZgAHJ34iaIAACWUmg5vRpev+99+i999+nr7d9nZU2YNAgAAKJCeT16NHTaSjnVfZ8vVNut6LS25zcKOKubb/v9iLWW19/JwqJcfVYqRYWdmv1CkuZ9KeTA/0tcd1WOEt5UFJxGyTYpfFYnHd+axPJ9hkkasOEsHRiPdDy29uflHlFuJRpUqEsv+Xe33nq2SYN45E6QbaHjTPINmlPk47DjcEzIbBx+Frf7xg0Nr+6KEtMYMGCBfToows5P9o6uU58F2qAAAhkOgEJgfzggw84r6LVq1dn+nAxPhAAgQ4g4AS7E0ohu3TYUBDtU4TZFb6nubnl94sdtVLAMSnBLvey2LyBtzQs4P3FbZK+JQxG/tO6lvj2hIJdOgnoUy7JpEYW5Pr1GSRqrRAOEt6x8J5YfLn0o0niva9wyI94n4OSnVAFhfLYkCfdQcbbXtg4g2yzbQQJdlvuvOniSY+/mWDU7g2A7B8v55K83v1YKf5eD4GSkhIn2h955BGaO/fB62kK94IACHQhgXXrPqEPP/zQifW6urouHAm6BgEQSDeBPBZUogsTJ1ZU8rEiCYMWvdXSwiIymfsSt5y4hvbNNZ3oiwu+xDdeRw3bZ7xfZ/h1NBl6q+tPlmPG9sKXvvwmBqFtZNhFGw4TNFGQIesHn+TcG4MvZUgdR6A/h8k8/PBfOT9MD8ya1XENoyUQAIFOIfDpxo300Ucfcf4nneHwFyQQAIHcJNC6rWNumg+rO5OADfcJXZDMs0DdUz5M2HfmWHOx7YG8LeSCBQ9xXkCzH3ggFxHAZhDISAIbPv3UhbqsXv0xneJtGZFAAARAAIId/wY6jYAN14mFXcUX8ZoeZXceCZvRHWwaGhvS9+bGjCPXT8XzPn/+PM7zad7cufwmjV/5IIEACKSFgLxNXbtuHa3hrRjXrFkLT3paqKMTEMguAhDs2fW8smu0LPrcPv1m1C6kKf5bRKGVhQiHMaC68FRi3ueyaJd49788+CD169u3C0eDrkEgmgTOnjtH//rkE5K49HUs1hGTHs3nDKtAoKMIQLB3FEm0409APOi8d71dWGorugXE7F1yC4hDFtfae3CeXgIzZsygOXP+zHkOjR07Nr2dozcQiBCB/fv30/r16zn/mzZv3hwhy2AKCIBAZxOAYO9swmi/lYAsQpVteCTaQtYNu0W1coKUNQTKx5bT7NmzXZZFqzIRQwIBEPAnIDt8yaLRDRs2uFy9v9q/IkpBAARAIAEBCPYEgHAZBEDAn0BxcTHNYtE+c+YMzjPhfffHhNIcIyBe9E2bNnHeTBtZrNfX1+cYAZgLAiDQGQQg2DuDKtoEgRwkMHLUKJo+/X6aMX06Tbv/fhpYVpaDFGByrhE4VVNDWz/7jDZv2UJbtnxGhw8dyjUEsBcEQCANBCDY0wAZXYBALhKYeMdEuu+++2jatGl07733Up/evXMRA2yOGIHzFy7QF198QVu3bqXPP/+cdn27K2IWwhwQAIFMJADBnolPBWMCgQgSmDR5Et1zzz109913uzygf/8IWgmTokbg9Jkz9NVXX7n85Zdf0s4dO6NmIuwBARDIAgIQ7FnwkDBEEIgigYrxFTR16lT6E+cpU6bQ6NGjo2gmbMoyAgcPHqTt27fTf7Zto22cq/ZWZZkFGC4IgEAUCUCwR/GpwiYQyEICgwYPpil33kl3cp48eTJNmjSJSkt7ZqElGHK2EKitvUQ7d+6kHTt20DfffEPbOZ88cSJbho9xggAI5BABCPYcetgwFQSyjcD4yvE06Y+T6A6Oh584MZblY1xIIHCtBBobG2nXrl0uf8tx5zv/u5P27tl7rc2gPgiAAAh0CQEI9i7Bjk5BAARSJTDh9gk08faJNGFCJVVWVtJ4zn379Em1OdwXQQLnzp9nMb6H9nDevXsP7fpuF+3+bncELYVJIAACuUIAgj1XnjTsBIEIE7jp5ptpfEUFjasYRxXjxtFtt93m9oWXr+wiRZeAfCFZ9j3//vvvqWrfPtpXtY/2VlXRzz/9FF2jYRkIgEBOEoBgz8nHDqNBIDcIyJdZx5aPpTHlY6h8zBi69dZbaTRnbDGZXc9ftlI8+MMP9APn6gMH6ED1AdpfvZ/w5dDseo4YLQiAQOoEINhTZ4c7QQAEspTAwEGDeFeaW+iWUbfQyJEjadSokXQze+nFU4/tJrvmocr2ieIZ/4nzoUOH6fDhw/TjoR/p4MEf6dTJk10zKPQKAiAAAhlCAII9Qx4EhgECIJAZBEp79aKbbhpBI4aPoGHDh9HwYcNp2LChNHToUBoyZAjdeOONhIWv1/asZMHnr7/+SsePH6djx47R0aPH6MjRI3T0yFH65cgv9PPPv1DtxYvX1ihqgwAIgEAOEYBgz6GHDVNBAAQ6hsCAsjIW7oNp8KDBNIi99WUDy2ggl5Vxlmvipe/PuV+/P1BxcVHHdJphrdTXN9DZs/+jM+wZF+/46ZoaquF8So6naugke8VPnDzBQv2Eu5Zhw8dwQAAEQCCrCECwZ9XjwmBBAASyjUCPnj1ZuPejvn37cO7L8fN9qHfv3lTaq5R6sTe/tGep22++J9cr6dGDSkpKqKR7d+rOubi42OWioiIq5O0sCwsLqZAX0hYWdqOCggLO+ZSfn095eXkuC5uWlhaXm5ub6epVyVepqamRmniBZlNTEzWxt7uhoYHq6+td/u2336hOcl0d1V2+TJcuXSLZn7z2Ui1dZK937cVausAx5OcvnKdz585xPs9C/Sxd5npIIAACIAAC6SEAwZ4ezugFBEAABEAABEAABEAABFIiAMGeEjbcBAIgAAIgAAIgAAIgAALpIQDBnh7O6AUEQAAEQAAEQAAEQAAEUiIAwZ4SNtwEAiAAAiAAAiAAAiAAAukhAMGeHs7oBQRAAARAAARAAARAAARSIvB/AnA1MM13PqAAAAAASUVORK5CYII=;" parent="1" vertex="1">
                    <mxGeometry x="630" y="-55.41000000000001" width="78" height="78.41" as="geometry"/>
                </mxCell>
                <mxCell id="44" style="edgeStyle=none;html=1;exitX=0.855;exitY=0.145;exitDx=0;exitDy=0;exitPerimeter=0;fontSize=13;entryX=0;entryY=0.5;entryDx=0;entryDy=0;" parent="1" source="3" target="42" edge="1">
                    <mxGeometry relative="1" as="geometry">
                        <Array as="points">
                            <mxPoint x="490" y="-16"/>
                        </Array>
                    </mxGeometry>
                </mxCell>
                <mxCell id="45" style="edgeStyle=none;html=1;exitX=0.855;exitY=0.145;exitDx=0;exitDy=0;exitPerimeter=0;fontSize=13;entryX=0;entryY=0.5;entryDx=0;entryDy=0;startArrow=classic;startFill=1;endArrow=none;endFill=0;" parent="1" edge="1">
                    <mxGeometry relative="1" as="geometry">
                        <mxPoint x="408.9949999999999" y="100.44000000000005" as="sourcePoint"/>
                        <mxPoint x="639.9999999999995" y="-6.205000000000155" as="targetPoint"/>
                        <Array as="points">
                            <mxPoint x="500" y="-6"/>
                        </Array>
                    </mxGeometry>
                </mxCell>
                <mxCell id="49" value="AWS" style="text;html=1;strokeColor=none;fillColor=none;align=center;verticalAlign=middle;whiteSpace=wrap;rounded=0;fontSize=13;" vertex="1" parent="1">
                    <mxGeometry x="40" y="-100" width="59" height="30" as="geometry"/>
                </mxCell>
            </root>
        </mxGraphModel>
    </diagram>
</mxfile>